<svg xmlns="http://www.w3.org/2000/svg" width="24" height="24" viewBox="0 0 24 24">
  <path fill-rule="evenodd" d="M4,16.5 L20,16.5 C20.55,16.5 21,16.95 21,17.5 C21,18.05 20.55,18.5 20,18.5 L4,18.5 C3.45,18.5 3,18.05 3,17.5 C3,16.95 3.45,16.5 4,16.5 Z M4,9.5 L20,9.5 C20.55,9.5 21,9.95 21,10.5 L21,13.5 C21,14.05 20.55,14.5 20,14.5 L4,14.5 C3.45,14.5 3,14.05 3,13.5 L3,10.5 C3,9.95 3.45,9.5 4,9.5 Z M4,5.5 L20,5.5 C20.55,5.5 21,5.95 21,6.5 C21,7.05 20.55,7.5 20,7.5 L4,7.5 C3.45,7.5 3,7.05 3,6.5 C3,5.95 3.45,5.5 4,5.5 Z"/>
</svg>
