<svg xmlns="http://www.w3.org/2000/svg" width="24" height="24" viewBox="0 0 24 24">
  <path fill-rule="evenodd" d="M9.01,14 L3,14 C2.45,14 2,14.45 2,15 C2,15.55 2.45,16 3,16 L9.01,16 L9.01,17.79 C9.01,18.24 9.55,18.46 9.86,18.14 L12.64,15.35 C12.83,15.15 12.83,14.84 12.64,14.64 L9.86,11.85 C9.55,11.53 9.01,11.76 9.01,12.2 L9.01,14 Z M14.99,11.79 L14.99,10 L21,10 C21.55,10 22,9.55 22,9 C22,8.45 21.55,8 21,8 L14.99,8 L14.99,6.21 C14.99,5.76 14.45,5.54 14.14,5.86 L11.36,8.65 C11.17,8.85 11.17,9.16 11.36,9.36 L14.14,12.15 C14.45,12.46 14.99,12.24 14.99,11.79 Z"/>
</svg>
