<svg xmlns="http://www.w3.org/2000/svg" width="24" height="24" viewBox="0 0 24 24">
  <path fill-rule="evenodd" d="M5.5,21 C6.33,21 7,20.33 7,19.5 L7,18 L17,18 L17,19.5 C17,20.33 17.67,21 18.5,21 C19.33,21 20,20.33 20,19.5 L20,17 C20,15.9 19.1,15 18,15 L6,15 C4.9,15 4,15.9 4,17 L4,19.5 C4,20.33 4.67,21 5.5,21 Z M20,10 L21,10 C21.55,10 22,10.45 22,11 L22,12 C22,12.55 21.55,13 21,13 L20,13 C19.45,13 19,12.55 19,12 L19,11 C19,10.45 19.45,10 20,10 Z M3,10 L4,10 C4.55,10 5,10.45 5,11 L5,12 C5,12.55 4.55,13 4,13 L3,13 C2.45,13 2,12.55 2,12 L2,11 C2,10.45 2.45,10 3,10 Z M17,13 L7,13 L7,5 C7,3.9 7.9,3 9,3 L15,3 C16.1,3 17,3.9 17,5 L17,13 Z"/>
</svg>
