<svg xmlns="http://www.w3.org/2000/svg" width="24" height="24" viewBox="0 0 24 24">
  <path fill-rule="evenodd" d="M18,7.01 L12,7.01 C11.45,7.01 11,7.46 11,8.01 L11,12.01 C11,12.56 11.45,13.01 12,13.01 L18,13.01 C18.55,13.01 19,12.56 19,12.01 L19,8.01 C19,7.46 18.55,7.01 18,7.01 Z M21,3.01 L3,3.01 C1.9,3.01 1,3.91 1,5.01 L1,19.01 C1,20.11 1.9,20.99 3,20.99 L21,20.99 C22.1,20.99 23,20.11 23,19.01 L23,5.01 C23,3.91 22.1,3.01 21,3.01 Z M20,19.02 L4,19.02 C3.45,19.02 3,18.57 3,18.02 L3,5.99 C3,5.44 3.45,4.99 4,4.99 L20,4.99 C20.55,4.99 21,5.44 21,5.99 L21,18.02 C21,18.57 20.55,19.02 20,19.02 L20,19.02 Z"/>
</svg>
