<svg xmlns="http://www.w3.org/2000/svg" width="24" height="24" viewBox="0 0 24 24">
  <path fill-rule="evenodd" d="M16,6.5 L16,4.5 C16,3.4 15.1,2.5 14,2.5 L10,2.5 C8.9,2.5 8,3.4 8,4.5 L8,6.5 L4,6.5 C2.9,6.5 2,7.4 2,8.5 L2,19.5 C2,20.6 2.9,21.5 4,21.5 L20,21.5 C21.1,21.5 22,20.6 22,19.5 L22,8.5 C22,7.4 21.1,6.5 20,6.5 L16,6.5 Z M10,4.5 L14,4.5 L14,6.5 L10,6.5 L10,4.5 Z M9,17.57 L9,10.33 C9,9.95 9.4,9.71 9.74,9.89 L15.77,13.1 C16.1,13.28 16.13,13.75 15.81,13.96 L9.78,17.98 C9.45,18.2 9,17.97 9,17.57 L9,17.57 Z"/>
</svg>
