<svg xmlns="http://www.w3.org/2000/svg" width="24" height="24" viewBox="0 0 24 24">
  <path fill-rule="evenodd" d="M22,9.50625 L17.21,9.50625 L12.82,2.93625 C12.42,2.34625 11.55,2.34625 11.16,2.93625 L6.77,9.50625 L2,9.50625 C1.45,9.50625 1,9.95625 1,10.50625 C1,10.59625 1.01,10.68625 1.04,10.77625 L3.58,20.04625 C3.81,20.88625 4.58,21.50625 5.5,21.50625 L18.5,21.50625 C19.42,21.50625 20.19,20.88625 20.43,20.04625 L22.97,10.77625 L23,10.50625 C23,9.95625 22.55,9.50625 22,9.50625 Z M11.99,5.29625 L14.8,9.50625 L9.18,9.50625 L11.99,5.29625 Z M12,17.50625 C10.9,17.50625 10,16.60625 10,15.50625 C10,14.40625 10.9,13.50625 12,13.50625 C13.1,13.50625 14,14.40625 14,15.50625 C14,16.60625 13.1,17.50625 12,17.50625 Z"/>
</svg>
