<svg xmlns="http://www.w3.org/2000/svg" width="24" height="24" viewBox="0 0 24 24">
  <path fill-rule="evenodd" d="M8,9 L8,10.5 L10.25,10.5 L10.25,15 L11.75,15 L11.75,10.5 L14,10.5 L14,9 L8,9 Z M6,9 L3,9 C2.45,9 2,9.45 2,10 L2,15 L3.5,15 L3.5,13.5 L5.5,13.5 L5.5,15 L7,15 L7,10 C7,9.45 6.55,9 6,9 Z M5.5,12 L3.5,12 L3.5,10.5 L5.5,10.5 L5.5,12 Z M21,9 L16.5,9 C15.95,9 15.5,9.45 15.5,10 L15.5,15 L17,15 L17,10.5 L18,10.5 L18,14 L19.5,14 L19.5,10.49 L20.5,10.49 L20.5,15 L22,15 L22,10 C22,9.45 21.55,9 21,9 Z"/>
</svg>
