<svg xmlns="http://www.w3.org/2000/svg" width="24" height="24" viewBox="0 0 24 24">
  <path fill-rule="evenodd" d="M11.5,2 L6,11 L17,11 L11.5,2 Z M11.5,5.84 L13.43,9 L9.56,9 L11.5,5.84 Z M17,13 C14.51,13 12.5,15.01 12.5,17.5 C12.5,19.99 14.51,22 17,22 C19.49,22 21.5,19.99 21.5,17.5 C21.5,15.01 19.49,13 17,13 Z M17,20 C15.62,20 14.5,18.88 14.5,17.5 C14.5,16.12 15.62,15 17,15 C18.38,15 19.5,16.12 19.5,17.5 C19.5,18.88 18.38,20 17,20 Z M2.5,21.5 L10.5,21.5 L10.5,13.5 L2.5,13.5 L2.5,21.5 Z M4.5,15.5 L8.5,15.5 L8.5,19.5 L4.5,19.5 L4.5,15.5 Z"/>
</svg>
