<svg xmlns="http://www.w3.org/2000/svg" width="24" height="24" viewBox="0 0 24 24">
  <path fill-rule="evenodd" d="M12,2 C7.58,2 4,2.5 4,6 L4,16.5 C4,18.43 5.57,20 7.5,20 L6,21.5 L6,22 L18,22 L18,21.5 L16.5,20 C18.43,20 20,18.43 20,16.5 L20,6 C20,2.5 16.42,2 12,2 Z M12,4 C18,4 18,5.2 18,6 L6,6 C6,5.2 6,4 12,4 Z M18,8 L18,11 L6,11 L6,8 L18,8 Z M16.5,18 L7.5,18 C6.67,18 6,17.33 6,16.5 L6,13 L18,13 L18,16.5 C18,17.33 17.33,18 16.5,18 Z M12,13.5 C10.9,13.5 10,14.4 10,15.5 C10,16.6 10.9,17.5 12,17.5 C13.1,17.5 14,16.6 14,15.5 C14,14.4 13.1,13.5 12,13.5 Z"/>
</svg>
