<svg xmlns="http://www.w3.org/2000/svg" width="24" height="24" viewBox="0 0 24 24">
  <path fill-rule="evenodd" d="M13,5.25 C14.1,5.25 15,4.35 15,3.25 C15,2.15 14.1,1.25 13,1.25 C11.9,1.25 11,2.15 11,3.25 C11,4.35 11.9,5.25 13,5.25 Z M9.3,8.65 L6.5,22.75 L8.6,22.75 L10.4,14.75 L12.5,16.75 L12.5,22.75 L14.5,22.75 L14.5,15.25 L12.4,13.25 L13,10.25 C14.3,11.75 16.3,12.75 18.5,12.75 L18.5,10.75 C16.6,10.75 15,9.75 14.2,8.35 L13.2,6.75 C12.64,5.86 11.52,5.5 10.55,5.91 L5.5,8.05 L5.5,12.75 L7.5,12.75 L7.5,9.35 L9.3,8.65 L9.3,8.65 Z"/>
</svg>
