<svg xmlns="http://www.w3.org/2000/svg" width="24" height="24" viewBox="0 0 24 24">
  <path fill-rule="evenodd" d="M7,13.5 C8.66,13.5 10,12.16 10,10.5 C10,8.84 8.66,7.5 7,7.5 C5.34,7.5 4,8.84 4,10.5 C4,12.16 5.34,13.5 7,13.5 Z M7,9.5 C7.55,9.5 8,9.95 8,10.5 C8,11.05 7.55,11.5 7,11.5 C6.45,11.5 6,11.05 6,10.5 C6,9.95 6.45,9.5 7,9.5 Z M19,6.5 L11,6.5 L11,14.5 L3,14.5 L3,4.5 L1,4.5 L1,19.5 L3,19.5 L3,16.5 L21,16.5 L21,19.5 L23,19.5 L23,10.5 C23,8.29 21.21,6.5 19,6.5 Z M21,14.5 L13,14.5 L13,8.5 L19,8.5 C20.1,8.5 21,9.4 21,10.5 L21,14.5 Z"/>
</svg>
