<svg xmlns="http://www.w3.org/2000/svg" width="24" height="24" viewBox="0 0 24 24">
  <path fill-rule="evenodd" d="M12,0.755 C7.59,0.755 4,4.345 4,8.755 C4,14.325 10.96,22.095 11.26,22.425 L12,23.245 L12.74,22.425 C13.04,22.095 20,14.325 20,8.755 C20,4.345 16.41,0.755 12,0.755 Z M12,20.225 C9.82,17.615 6,12.295 6,8.755 C6,5.445 8.69,2.755 12,2.755 C15.31,2.755 18,5.445 18,8.755 C18,12.585 13.75,18.115 12,20.225 Z M12,8.755 C12.83,8.755 13.5,8.085 13.5,7.255 C13.5,6.425 12.83,5.755 12,5.755 C11.17,5.755 10.5,6.435 10.5,7.255 C10.5,8.085 11.17,8.755 12,8.755 Z M12,9.755 C11,9.755 9,10.255 9,11.255 L9,11.375 C9.73,12.215 10.8,12.755 12,12.755 C13.2,12.755 14.27,12.215 15,11.375 L15,11.255 C15,10.255 13,9.755 12,9.755 L12,9.755 Z"/>
</svg>
