<svg xmlns="http://www.w3.org/2000/svg" width="24" height="24" viewBox="0 0 24 24">
  <path fill-rule="evenodd" d="M11.56,15.33 C11.22,15.6 11,16.03 11,16.5 L11,22 L18,22 C19.1,22 20,21.1 20,20 L20,14.02 C19.06,13.69 18.05,13.5 17,13.5 C14.97,13.5 13.07,14.2 11.56,15.33 Z M17,2 C14.2385763,2 12,4.23857625 12,7 C12,9.76142375 14.2385763,12 17,12 C19.7614237,12 22,9.76142375 22,7 C22,4.23857625 19.7614237,2 17,2 Z M10.5,7 C10.5,5.92 10.77,4.9 11.24,4 L4,4 C2.9,4 2,4.9 2,6 L2,20 C2,20.55 2.23,21.05 2.59,21.41 L12.41,11.59 C11.23,10.42 10.5,8.8 10.5,7 Z"/>
</svg>
