<svg xmlns="http://www.w3.org/2000/svg" width="24" height="24" viewBox="0 0 24 24">
  <path fill-rule="evenodd" d="M13,5 L13.75,3.5 L17,3.5 L17,2 L7,2 L7,3.5 L11.75,3.5 L11,5 C7.87,5.09 5,5.73 5,8.5 L5,17 C5,18.5 6.11,19.73 7.55,19.95 L6,21.5 L6,22 L8,22 L10,20 L14,20 L16,22 L18,22 L18,21.5 L16.45,19.95 L16.44,19.95 L16.45,19.95 C17.89,19.73 19,18.5 19,17 L19,8.5 C19,5.73 16.13,5.09 13,5 Z M11.03,7 L12.97,7 C15.72,7.08 16.59,7.58 16.87,8 L7.13,8 C7.41,7.58 8.28,7.08 11.03,7 Z M10.85,17.95 L7.74,17.95 C7.3,17.84 7,17.45 7,17 L7,16 L10.89,16 C10.65,16.27 10.5,16.61 10.5,17 C10.5,17.36 10.63,17.69 10.85,17.95 Z M17,17 C17,17.45 16.7,17.84 16.26,17.95 L13.15,17.95 C13.37,17.69 13.5,17.36 13.5,17 C13.5,16.61 13.35,16.27 13.11,16 L17,16 L17,17 Z M17,14 L7,14 L7,10 L17,10 L17,14 Z"/>
</svg>
