<svg xmlns="http://www.w3.org/2000/svg" width="24" height="24" viewBox="0 0 24 24">
  <path fill-rule="evenodd" d="M20,8.965 C19.96,4.575 16.4,1.035 12,1.035 C7.6,1.035 4.04,4.575 4,8.965 L4,14.965 C4,19.385 7.58,22.965 12,22.965 C16.42,22.965 20,19.385 20,14.965 L20,8.965 Z M18,8.965 L13,8.965 L13,3.125 C15.81,3.595 17.96,6.025 18,8.965 Z M11,3.125 L11,8.965 L6,8.965 C6.04,6.025 8.19,3.595 11,3.125 Z M18,14.965 C18,18.275 15.31,20.965 12,20.965 C8.69,20.965 6,18.275 6,14.965 L6,10.965 L18,10.965 L18,14.965 Z"/>
</svg>
