<svg xmlns="http://www.w3.org/2000/svg" width="24" height="24" viewBox="0 0 24 24">
  <path fill-rule="evenodd" d="M22,6.07 L22,4.07 L7.39,4.07 L9.39,6.07 L22,6.07 Z M24,19.07 L24,9.07 C24,8.52 23.55,8.07 23,8.07 L17,8.07 C16.45,8.07 16,8.52 16,9.07 L16,12.68 L18,14.68 L18,10.07 L22,10.07 L22,17.07 L20.39,17.07 L23.32,20 C23.71,19.87 24,19.51 24,19.07 Z M2.06,1.58 L0.65,2.99 L2.47,4.81 C2.18,5.15 2,5.59 2,6.07 L2,17.07 L0,17.07 L0,20.07 L17.73,20.07 L20.08,22.42 L21.49,21.01 L2.06,1.58 Z M4,17.07 L4,6.34 L14.73,17.07 L4,17.07 Z"/>
</svg>
