<svg xmlns="http://www.w3.org/2000/svg" width="24" height="24" viewBox="0 0 24 24">
  <path fill-rule="evenodd" d="M6.4,15.42 C5.19601925,15.42 4.22,16.3960192 4.22,17.6 C4.22,18.8039808 5.19601925,19.78 6.4,19.78 C7.60398075,19.78 8.58,18.8039808 8.58,17.6 C8.58,16.3960192 7.60398075,15.42 6.4,15.42 Z M4.22,4.22 L4.22,7.05 C11.25,7.05 16.95,12.75 16.95,19.78 L19.78,19.78 C19.78,11.19 12.81,4.22 4.22,4.22 Z M4.22,9.88 L4.22,12.71 C8.12,12.71 11.29,15.88 11.29,19.78 L14.12,19.78 C14.12,14.31 9.69,9.88 4.22,9.88 Z"/>
</svg>
