<svg xmlns="http://www.w3.org/2000/svg" xmlns:xlink="http://www.w3.org/1999/xlink" width="128" height="128" viewBox="0 0 128 128">
  <defs>
    <path id="monogram-a" d="M0,96.878628 L0,31.121372 L12.9894292,31.121372 L40.05074,75.0343008 L40.05074,31.121372 L52.4538407,31.121372 L52.4538407,96.878628 L39.0584919,96.878628 L12.4031008,53.9973615 L12.4031008,96.878628 L0,96.878628 Z M63.8646934,64.4036939 C63.8646934,57.7053315 64.8719655,52.0835759 66.8865398,47.5382586 C68.3899535,44.1890774 70.4420824,41.1838304 73.042988,38.5224274 C75.6438937,35.8610245 78.4928198,33.8874295 81.589852,32.6015831 C85.7092055,30.8671857 90.4599214,30 95.8421424,30 C105.584263,30 113.379346,33.005247 119.227625,39.0158311 C125.075904,45.0264153 128,53.3842912 128,64.0897098 C128,74.7054181 125.098455,83.0109639 119.295278,89.0065963 C113.492102,95.0022287 105.734603,98 96.0225511,98 C86.1902257,98 78.3725919,95.0171802 72.5694151,89.0514512 C66.7662383,83.0857222 63.8646934,74.8698852 63.8646934,64.4036939 Z M77.6208598,63.9551451 C77.6208598,71.4010926 79.3497595,77.0452754 82.807611,80.8878628 C86.2654624,84.7304502 90.6553645,86.651715 95.9774489,86.651715 C101.299533,86.651715 105.666885,84.7454016 109.079634,80.9327177 C112.492383,77.1200337 114.198732,71.4010935 114.198732,63.7757256 C114.198732,56.2400679 112.537484,50.6183123 109.21494,46.9102902 C105.892396,43.2022682 101.479943,41.348285 95.9774489,41.348285 C90.4749549,41.348285 86.0399511,43.2246954 82.6723044,46.9775726 C79.3046578,50.7304497 77.6208598,56.389584 77.6208598,63.9551451 Z"/>
  </defs>
  <g fill="none" fill-rule="evenodd">
    <rect width="128" height="128"/>
    <mask id="monogram-b" fill="#fff">
      <use xlink:href="#monogram-a"/>
    </mask>
    <use fill="#FFF" fill-opacity="0" xlink:href="#monogram-a"/>
    <g fill="#000" mask="url(#monogram-b)">
      <rect width="128" height="128"/>
    </g>
  </g>
</svg>
