<svg xmlns="http://www.w3.org/2000/svg" width="24" height="24" viewBox="0 0 24 24">
  <path fill-rule="evenodd" d="M10.01,20.76 C10.01,21.86 10.9,22.75 12,22.75 C13.1,22.75 13.99,21.86 13.99,20.76 L10.01,20.76 Z M12,5.75 C14.76,5.75 17,7.99 17,10.75 L17,17.75 L7,17.75 L7,10.75 C7,7.99 9.24,5.75 12,5.75 Z M12,1.25 C11.17,1.25 10.5,1.92 10.5,2.75 L10.5,3.92 C7.36,4.6 5,7.4 5,10.75 L5,16.75 L3,18.75 L3,19.75 L21,19.75 L21,18.75 L19,16.75 L19,10.75 C19,7.4 16.64,4.6 13.5,3.92 L13.5,2.75 C13.5,1.92 12.83,1.25 12,1.25 Z M13,7.75 L11,7.75 L11,10.75 L8,10.75 L8,12.75 L11,12.75 L11,15.75 L13,15.75 L13,12.75 L16,12.75 L16,10.75 L13,10.75 L13,7.75 Z"/>
</svg>
