<svg xmlns="http://www.w3.org/2000/svg" width="24" height="24" viewBox="0 0 24 24">
  <path fill-rule="evenodd" d="M20.5,7.28 L20.5,5 C20.5,3.9 19.6,3 18.5,3 L4.5,3 C3.39,3 2.5,3.9 2.5,5 L2.5,19 C2.5,20.1 3.39,21 4.5,21 L18.5,21 C19.6,21 20.5,20.1 20.5,19 L20.5,16.72 C21.09,16.37 21.5,15.74 21.5,15 L21.5,9 C21.5,8.26 21.09,7.63 20.5,7.28 Z M19.5,9 L19.5,15 L12.5,15 L12.5,9 L19.5,9 Z M4.5,19 L4.5,5 L18.5,5 L18.5,7 L12.5,7 C11.4,7 10.5,7.9 10.5,9 L10.5,15 C10.5,16.1 11.4,17 12.5,17 L18.5,17 L18.5,19 L4.5,19 Z M15.5,10.5 C14.6715729,10.5 14,11.1715729 14,12 C14,12.8284271 14.6715729,13.5 15.5,13.5 C16.3284271,13.5 17,12.8284271 17,12 C17,11.1715729 16.3284271,10.5 15.5,10.5 Z"/>
</svg>
