<svg xmlns="http://www.w3.org/2000/svg" width="24" height="24" viewBox="0 0 24 24">
  <path fill-rule="evenodd" d="M12,4 C16.41,4 20,7.59 20,12 C20,13.48 19.59,14.86 18.88,16.06 L20.34,17.52 C21.39,15.93 22,14.04 22,12 C22,6.48 17.52,2 12,2 C9.96,2 8.07,2.61 6.49,3.66 L7.95,5.12 C9.14,4.41 10.52,4 12,4 Z M14.91,12.08 L17.5,6.5 L11.92,9.09 L14.91,12.08 Z M2.1,4.93 L3.66,6.49 C2.61,8.07 2,9.96 2,12 C2,17.52 6.48,22 12,22 C14.04,22 15.93,21.39 17.51,20.34 L19.07,21.9 L20.48,20.49 L3.51,3.51 L2.1,4.93 Z M5.12,7.94 L9.1,11.92 L6.5,17.5 L12.08,14.91 L16.06,18.89 C14.86,19.59 13.48,20 12,20 C7.59,20 4,16.41 4,12 C4,10.52 4.41,9.14 5.12,7.94 Z"/>
</svg>
