<svg xmlns="http://www.w3.org/2000/svg" width="24" height="24" viewBox="0 0 24 24">
  <path fill-rule="evenodd" d="M21,3.01 L3,3.01 C1.9,3.01 1,3.91 1,5.01 L1,9 L3,9 L3,4.99 L21,4.99 L21,19.02 L3,19.02 L3,15 L1,15 L1,19.01 C1,20.11 1.9,20.99 3,20.99 L21,20.99 C22.1,20.99 23,20.11 23,19.01 L23,5.01 C23,3.9 22.1,3.01 21,3.01 Z M11,16 L15,12 L11,8 L11,11 L1,11 L1,13 L11,13 L11,16 Z M21,3.01 L3,3.01 C1.9,3.01 1,3.91 1,5.01 L1,9 L3,9 L3,4.99 L21,4.99 L21,19.02 L3,19.02 L3,15 L1,15 L1,19.01 C1,20.11 1.9,20.99 3,20.99 L21,20.99 C22.1,20.99 23,20.11 23,19.01 L23,5.01 C23,3.9 22.1,3.01 21,3.01 Z M11,16 L15,12 L11,8 L11,11 L1,11 L1,13 L11,13 L11,16 Z"/>
</svg>
