<svg xmlns="http://www.w3.org/2000/svg" width="24" height="24" viewBox="0 0 24 24">
  <path fill-rule="evenodd" d="M11.645,24 L13.645,24 L13.645,22 L11.645,22 L11.645,24 Z M7.645,24 L9.645,24 L9.645,22 L7.645,22 L7.645,24 Z M15.645,24 L17.645,24 L17.645,22 L15.645,22 L15.645,24 Z M18.355,5.71 L12.645,0 L11.645,0 L11.645,7.59 L7.055,3 L5.645,4.41 L11.235,10 L5.645,15.59 L7.055,17 L11.645,12.41 L11.645,20 L12.645,20 L18.355,14.29 L14.055,10 L18.355,5.71 Z M13.645,3.83 L15.525,5.71 L13.645,7.59 L13.645,3.83 Z M15.525,14.29 L13.645,16.17 L13.645,12.41 L15.525,14.29 L15.525,14.29 Z"/>
</svg>
