<svg xmlns="http://www.w3.org/2000/svg" width="24" height="24" viewBox="0 0 24 24">
  <path fill-rule="evenodd" d="M17.01,14.26 L16.21,14.26 L15.94,13.99 C16.92,12.85 17.51,11.38 17.51,9.76 C17.51,6.17 14.6,3.26 11.01,3.26 C7.42,3.26 4.51,6.26 4.51,9.76 L2,9.76 L5.84,13.76 L10,9.76 L6.51,9.76 C6.51,7.26 8.53,5.26 11.01,5.26 C13.49,5.26 15.51,7.27 15.51,9.76 C15.51,12.24 13.49,14.26 11.01,14.26 C10.36,14.26 9.75,14.12 9.19,13.88 L7.71,15.36 C8.68,15.93 9.8,16.26 11.01,16.26 C12.62,16.26 14.09,15.67 15.23,14.69 L15.5,14.96 L15.5,15.75 L20.51,20.74 L22,19.26 L17.01,14.26 Z"/>
</svg>
