<svg xmlns="http://www.w3.org/2000/svg" width="24" height="24" viewBox="0 0 24 24">
  <path fill-rule="evenodd" d="M15.755,14.255 L14.965,14.255 L14.685,13.985 C15.665,12.845 16.255,11.365 16.255,9.755 C16.255,6.165 13.345,3.255 9.755,3.255 C6.165,3.255 3.255,6.165 3.255,9.755 C3.255,13.345 6.165,16.255 9.755,16.255 C11.365,16.255 12.845,15.665 13.985,14.685 L14.255,14.965 L14.255,15.755 L19.255,20.745 L20.745,19.255 L15.755,14.255 Z M9.755,14.255 C7.265,14.255 5.255,12.245 5.255,9.755 C5.255,7.265 7.265,5.255 9.755,5.255 C12.245,5.255 14.255,7.265 14.255,9.755 C14.255,12.245 12.245,14.255 9.755,14.255 Z M10.255,7.255 L9.255,7.255 L9.255,9.255 L7.255,9.255 L7.255,10.255 L9.255,10.255 L9.255,12.255 L10.255,12.255 L10.255,10.255 L12.255,10.255 L12.255,9.255 L10.255,9.255 L10.255,7.255 Z"/>
</svg>
