<svg xmlns="http://www.w3.org/2000/svg" width="24" height="24" viewBox="0 0 24 24">
  <path fill-rule="evenodd" d="M12,8.625 C10.1402344,8.625 8.625,10.1402344 8.625,12 C8.625,13.8597656 10.1402344,15.375 12,15.375 C13.8597656,15.375 15.375,13.8597656 15.375,12 C15.375,10.1402344 13.8597656,8.625 12,8.625 Z M20.6625,11.4550781 L17.3332031,9.7921875 L18.5109375,6.2625 C18.6691406,5.784375 18.215625,5.33085938 17.7410156,5.49257813 L14.2113281,6.6703125 L12.5449219,3.3375 C12.3199219,2.8875 11.6800781,2.8875 11.4550781,3.3375 L9.7921875,6.66679688 L6.25898437,5.4890625 C5.78085937,5.33085938 5.32734375,5.784375 5.4890625,6.25898438 L6.66679688,9.78867188 L3.3375,11.4550781 C2.8875,11.6800781 2.8875,12.3199219 3.3375,12.5449219 L6.66679688,14.2078125 L5.4890625,17.7410156 C5.33085938,18.2191406 5.784375,18.6726563 6.25898438,18.5109375 L9.78867188,17.3332031 L11.4515625,20.6625 C11.6765625,21.1125 12.3164063,21.1125 12.5414063,20.6625 L14.2042969,17.3332031 L17.7339844,18.5109375 C18.2121094,18.6691406 18.665625,18.215625 18.5039062,17.7410156 L17.3261719,14.2113281 L20.6554688,12.5484375 C21.1125,12.3199219 21.1125,11.6800781 20.6625,11.4550781 Z M15.1816406,15.1816406 C13.4273438,16.9359375 10.5726563,16.9359375 8.81835938,15.1816406 C7.0640625,13.4273438 7.0640625,10.5726563 8.81835938,8.81835938 C10.5726563,7.0640625 13.4273438,7.0640625 15.1816406,8.81835938 C16.9359375,10.5726563 16.9359375,13.4273438 15.1816406,15.1816406 Z"/>
</svg>
