<svg xmlns="http://www.w3.org/2000/svg" width="24" height="24" viewBox="0 0 24 24">
  <path fill-rule="evenodd" d="M15.67,4 L14,4 L14,3 C14,2.45 13.55,2 13,2 L11,2 C10.45,2 10,2.45 10,3 L10,4 L8.33,4 C7.6,4 7,4.6 7,5.33 L7,20.66 C7,21.4 7.6,22 8.34,22 L15.66,22 C16.4,22 17,21.4 17,20.67 L17,5.33 C17,4.6 16.4,4 15.67,4 Z M14.61,13.24 L11.94,18.24 C11.7,18.69 11,18.52 11,18 L11,14.5 L9.83,14.5 C9.45,14.5 9.21,14.1 9.39,13.76 L12.06,8.76 C12.3,8.31 13,8.48 13,9 L13,12.5 L14.17,12.5 C14.54,12.5 14.79,12.9 14.61,13.24 L14.61,13.24 Z"/>
</svg>
