<svg xmlns="http://www.w3.org/2000/svg" width="24" height="24" viewBox="0 0 24 24">
  <path fill-rule="evenodd" d="M20.7700904,14.1628951 L19.1551656,13.2701565 C19.3181745,12.4282242 19.3181745,11.5645178 19.1551656,10.7225855 L20.7700904,9.82984691 C20.9558446,9.72823439 21.0392445,9.51775132 20.97859,9.32178431 C20.5577998,8.02985371 19.8413191,6.86130974 18.904966,5.88873277 C18.7609117,5.73994301 18.5258757,5.70365283 18.3439124,5.80526535 L16.7289876,6.69800391 C16.050416,6.13913505 15.2694899,5.70728185 14.4241185,5.4242184 L14.4241185,3.64237029 C14.4241185,3.43914526 14.2762733,3.26132335 14.0677736,3.21777512 C12.6765122,2.9201956 11.2511326,2.93471168 9.92810744,3.21777512 C9.71960777,3.26132335 9.57176254,3.43914526 9.57176254,3.64237029 L9.57176254,5.42784742 C8.73018205,5.71453988 7.94925601,6.14639309 7.26689345,6.70163293 L5.65575962,5.80889436 C5.47000537,5.70728185 5.23876028,5.73994301 5.09470596,5.89236179 C4.15835289,6.86130974 3.4418722,8.02985371 3.02108195,9.32541333 C2.9566366,9.52138033 3.04382737,9.73186341 3.22958162,9.83347593 L4.84450635,10.7262145 C4.68149752,11.5681468 4.68149752,12.4318532 4.84450635,13.2737855 L3.22958162,14.1665241 C3.04382737,14.2681366 2.9604275,14.4786197 3.02108195,14.6745867 C3.4418722,15.9665173 4.15835289,17.1350612 5.09470596,18.1076382 C5.23876028,18.256428 5.47379627,18.2927182 5.65575962,18.1911056 L7.27068435,17.2983671 C7.94925601,17.8572359 8.73018205,18.2890891 9.57555345,18.5721526 L9.57555345,20.3576297 C9.57555345,20.5608547 9.72339867,20.7386767 9.93189834,20.7822249 C11.3231598,21.0798044 12.7485394,21.0652883 14.0715645,20.7822249 C14.2800642,20.7386767 14.4279094,20.5608547 14.4279094,20.3576297 L14.4279094,18.5721526 C15.2694899,18.2854601 16.050416,17.8536069 16.7327785,17.2983671 L18.3477033,18.1911056 C18.5334575,18.2927182 18.7647026,18.260057 18.9087569,18.1076382 C19.84511,17.1386903 20.5615907,15.9701463 20.9823809,14.6745867 C21.0392445,14.4749906 20.9558446,14.2645076 20.7700904,14.1628951 Z M11.9979405,14.8995858 C10.3261523,14.8995858 8.96521804,13.5967682 8.96521804,11.996371 C8.96521804,10.3959738 10.3261523,9.09315615 11.9979405,9.09315615 C13.6697288,9.09315615 15.030663,10.3959738 15.030663,11.996371 C15.030663,13.5967682 13.6697288,14.8995858 11.9979405,14.8995858 Z"/>
</svg>
