<svg xmlns="http://www.w3.org/2000/svg" width="24" height="24" viewBox="0 0 24 24">
  <path fill-rule="evenodd" d="M11.5,2 L5.99999995,11 L17,11 L11.5,2 Z M16.9999999,13 C15.3923048,13 13.9067332,13.8576951 13.1028856,15.25 C12.299038,16.6423048 12.299038,18.3576952 13.1028856,19.75 C13.9067332,21.1423049 15.3923048,22 16.9999999,22 C18.6076951,22 20.0932668,21.1423049 20.8971143,19.75 C21.7009619,18.3576952 21.7009619,16.6423048 20.8971143,15.25 C20.0932668,13.8576951 18.6076951,13 16.9999999,13 L16.9999999,13 Z M2.49999995,13.5 L10.5,13.5 L10.5,21.5 L2.49999995,21.5 L2.49999995,13.5 Z"/>
</svg>
