<svg xmlns="http://www.w3.org/2000/svg" width="24" height="24" viewBox="0 0 24 24">
  <path fill-rule="evenodd" d="M20,8.49716901 L17,8.49716901 L17,6.71716901 C17,4.10716901 15.09,1.77716901 12.49,1.52716901 C9.51,1.23716901 7,3.57716901 7,6.49716901 L7,8.49716901 L4,8.49716901 L4,22.497169 L20,22.497169 L20,8.49716901 Z M8.9,6.49716901 C8.9,4.78716901 10.29,3.39716901 12,3.39716901 C13.71,3.39716901 15.1,4.78716901 15.1,6.49716901 L15.1,8.49716901 L8.9,8.49716901 L8.9,6.49716901 Z M16,16.497169 L13,16.497169 L13,19.497169 L11,19.497169 L11,16.497169 L8,16.497169 L8,14.497169 L11,14.497169 L11,11.497169 L13,11.497169 L13,14.497169 L16,14.497169 L16,16.497169 Z"/>
</svg>
