<svg xmlns="http://www.w3.org/2000/svg" width="24" height="24" viewBox="0 0 24 24">
  <path fill-rule="evenodd" d="M24,3 L6,3 L0,12 L6,21 L24,21 L24,3 Z M9,13.5 C8.17,13.5 7.5,12.83 7.5,12 C7.5,11.17 8.17,10.5 9,10.5 C9.83,10.5 10.5,11.17 10.5,12 C10.5,12.83 9.83,13.5 9,13.5 Z M14,13.5 C13.17,13.5 12.5,12.83 12.5,12 C12.5,11.17 13.17,10.5 14,10.5 C14.83,10.5 15.5,11.17 15.5,12 C15.5,12.83 14.83,13.5 14,13.5 Z M19,13.5 C18.17,13.5 17.5,12.83 17.5,12 C17.5,11.17 18.17,10.5 19,10.5 C19.83,10.5 20.5,11.17 20.5,12 C20.5,12.83 19.83,13.5 19,13.5 Z"/>
</svg>
