<svg xmlns="http://www.w3.org/2000/svg" width="24" height="24" viewBox="0 0 24 24">
  <path fill-rule="evenodd" d="M18.9992188,12.0007812 L20.9992188,12.0007812 C20.9992188,7.03078116 16.9692188,3.00078116 11.9992188,3.00078116 L11.9992188,5.00078116 C15.8692188,5.00078116 18.9992188,8.13078116 18.9992188,12.0007812 Z M14.9992188,12.0007812 L16.9992188,12.0007812 C16.9992188,9.24078116 14.7592188,7.00078116 11.9992188,7.00078116 L11.9992188,9.00078116 C13.6592188,9.00078116 14.9992188,10.3407812 14.9992188,12.0007812 Z M13.2092188,17.3707812 C10.3792188,15.9307812 8.05921884,13.6207812 6.61921884,10.7807812 L9.14921884,8.25078116 L8.53921884,3.00078116 L3.02921884,3.00078116 C2.44921884,13.1807812 10.8192188,21.5507812 20.9992188,20.9707812 L20.9992188,15.4607812 L15.7292188,14.8507812 L13.2092188,17.3707812 Z"/>
</svg>
