<svg xmlns="http://www.w3.org/2000/svg" width="24" height="24" viewBox="0 0 24 24">
  <path fill-rule="evenodd" d="M21,12.17 L23,10.17 C19.27,6.44 14.13,5.02 9.3,5.86 L11.88,8.44 C15.18,8.42 18.49,9.66 21,12.17 Z M9,18.17 L12,21.17 L15,18.17 C13.35,16.51 10.66,16.51 9,18.17 Z M19,14.17 C17.92,13.09 16.64,12.32 15.28,11.84 L18.3,14.86 L19,14.17 Z M3.41,2.81 L2,4.22 L5.05,7.27 C3.59,8 2.22,8.96 1,10.17 L3,12.17 C4.23,10.94 5.65,10.01 7.17,9.39 L9.41,11.63 C7.79,12.06 6.27,12.91 5,14.17 L7,16.17 C8.35,14.82 10.11,14.13 11.89,14.11 L18.97,21.19 L20.38,19.78 L3.41,2.81 Z"/>
</svg>
