<svg xmlns="http://www.w3.org/2000/svg" xmlns:xlink="http://www.w3.org/1999/xlink" width="24" height="24" viewBox="0 0 24 24">
  <defs>
    <path id="list-a" d="M4 14h2c.55 0 1-.45 1-1v-2c0-.55-.45-1-1-1H4c-.55 0-1 .45-1 1v2c0 .55.45 1 1 1zm0 6h2c.55 0 1-.45 1-1v-2c0-.55-.45-1-1-1H4c-.55 0-1 .45-1 1v2c0 .55.45 1 1 1zM4 8h2c.55 0 1-.45 1-1V5c0-.55-.45-1-1-1H4c-.55 0-1 .45-1 1v2c0 .55.45 1 1 1zm6 6h10c.55 0 1-.45 1-1v-2c0-.55-.45-1-1-1H10c-.55 0-1 .45-1 1v2c0 .55.45 1 1 1zm0 6h10c.55 0 1-.45 1-1v-2c0-.55-.45-1-1-1H10c-.55 0-1 .45-1 1v2c0 .55.45 1 1 1zM9 5v2c0 .55.45 1 1 1h10c.55 0 1-.45 1-1V5c0-.55-.45-1-1-1H10c-.55 0-1 .45-1 1z"/>
  </defs>
  <g fill="none" fill-rule="evenodd">
    <polygon points="0 0 24 0 24 24 0 24" opacity=".87"/>
    <mask id="list-b" fill="#fff">
      <use xlink:href="#list-a"/>
    </mask>
    <use fill="#000" xlink:href="#list-a"/>
    <g fill="#000" mask="url(#list-b)">
      <rect width="24" height="24"/>
    </g>
  </g>
</svg>
