<svg xmlns="http://www.w3.org/2000/svg" width="24" height="24" viewBox="0 0 24 24">
  <path fill-rule="evenodd" d="M17,5 L1,5 L1,16 L3,16 C3,17.66 4.34,19 6,19 C7.66,19 9,17.66 9,16 L15,16 C15,17.66 16.34,19 18,19 C19.66,19 21,17.66 21,16 L23,16 L23,11 L17,5 Z M3,11 L3,7 L7,7 L7,11 L3,11 Z M6,17.25 C5.31,17.25 4.75,16.69 4.75,16 C4.75,15.31 5.31,14.75 6,14.75 C6.69,14.75 7.25,15.31 7.25,16 C7.25,16.69 6.69,17.25 6,17.25 Z M13,11 L9,11 L9,7 L13,7 L13,11 Z M18,17.25 C17.31,17.25 16.75,16.69 16.75,16 C16.75,15.31 17.31,14.75 18,14.75 C18.69,14.75 19.25,15.31 19.25,16 C19.25,16.69 18.69,17.25 18,17.25 Z M15,11 L15,7 L16,7 L20,11 L15,11 Z"/>
</svg>
