<svg xmlns="http://www.w3.org/2000/svg" width="24" height="24" viewBox="0 0 24 24">
  <path fill-rule="evenodd" d="M18,16 L6.5,16 C4.29,16 2.5,14.21 2.5,12 C2.5,9.79 4.29,8 6.5,8 L19,8 C20.38,8 21.5,9.12 21.5,10.5 C21.5,11.88 20.38,13 19,13 L8.5,13 C7.95,13 7.5,12.55 7.5,12 C7.5,11.45 7.95,11 8.5,11 L18,11 L18,9.5 L8.5,9.5 C7.12,9.5 6,10.62 6,12 C6,13.38 7.12,14.5 8.5,14.5 L19,14.5 C21.21,14.5 23,12.71 23,10.5 C23,8.29 21.21,6.5 19,6.5 L6.5,6.5 C3.46,6.5 1,8.96 1,12 C1,15.04 3.46,17.5 6.5,17.5 L18,17.5 L18,16 Z"/>
</svg>
