<svg xmlns="http://www.w3.org/2000/svg" xmlns:xlink="http://www.w3.org/1999/xlink" width="24" height="24" viewBox="0 0 24 24">
  <defs>
    <path id="apple-a" d="M8.621 20.653a4.031 4.031 0 0 1-.932-.862 11.562 11.562 0 0 1-.798-1.09 10.543 10.543 0 0 1-1.334-2.725C5.182 14.85 5 13.772 5 12.717c0-1.176.255-2.203.751-3.065a4.333 4.333 0 0 1 1.574-1.636 4.197 4.197 0 0 1 2.129-.63c.262 0 .547.038.847.113.217.06.48.157.802.277.412.158.637.255.712.278.24.09.442.127.6.127.12 0 .292-.038.483-.097.109-.038.315-.105.607-.233.29-.105.519-.195.701-.262.277-.083.546-.158.787-.195.293-.045.583-.06.86-.038a5.12 5.12 0 0 1 1.455.315 3.923 3.923 0 0 1 1.841 1.47 4.59 4.59 0 0 0-1.465 1.54 3.822 3.822 0 0 0-.483 1.889c.012.811.218 1.525.63 2.143.29.45.678.835 1.15 1.152.232.157.436.266.63.337-.09.281-.19.555-.304.825-.26.604-.57 1.184-.937 1.731a15.59 15.59 0 0 1-.772 1.057c-.301.36-.592.63-.885.822a1.97 1.97 0 0 1-1.088.327 2.413 2.413 0 0 1-.775-.095 7.512 7.512 0 0 1-.642-.242c-.22-.1-.446-.186-.678-.255a3.498 3.498 0 0 0-1.742-.001 5.402 5.402 0 0 0-.68.243c-.315.131-.52.217-.64.255a3.351 3.351 0 0 1-.743.131c-.39 0-.752-.112-1.114-.337l.01-.01zM13.76 6.816c-.51.255-.994.363-1.48.327-.074-.484 0-.982.203-1.527.18-.465.42-.885.75-1.26.344-.39.757-.711 1.221-.944.495-.255.967-.39 1.417-.412.06.51 0 1.012-.187 1.552-.171.48-.426.922-.75 1.319a3.76 3.76 0 0 1-1.189.944l.015.001z"/>
  </defs>
  <g fill="none" fill-rule="evenodd">
    <polygon points="0 0 24 0 24 24 0 24"/>
    <mask id="apple-b" fill="#fff">
      <use xlink:href="#apple-a"/>
    </mask>
    <use fill="#000" xlink:href="#apple-a"/>
    <g fill="#000" mask="url(#apple-b)">
      <rect width="24" height="24"/>
    </g>
  </g>
</svg>
