<svg xmlns="http://www.w3.org/2000/svg" xmlns:xlink="http://www.w3.org/1999/xlink" width="24" height="24" viewBox="0 0 24 24">
  <defs>
    <path id="apple-music-a" d="M20.995 7.592c0-.553-.048-1.102-.18-1.642-.237-.983-.796-1.733-1.634-2.283a3.766 3.766 0 0 0-1.408-.545A7.872 7.872 0 0 0 16.6 3.01c-.03-.003-.062-.008-.093-.01H7.489l-.34.02c-.561.032-1.118.092-1.646.3-1.002.398-1.725 1.09-2.148 2.085a4.216 4.216 0 0 0-.273 1.056 7.957 7.957 0 0 0-.075.885c0 .024-.005.047-.007.07v9.167l.02.318c.038.61.116 1.218.373 1.78.487 1.064 1.303 1.764 2.425 2.1.315.096.642.141.97.172.416.04.833.045 1.25.045h8.272c.394 0 .786-.026 1.178-.075.617-.08 1.198-.263 1.722-.608a3.784 3.784 0 0 0 1.41-1.656c.14-.315.22-.652.277-.993a9.168 9.168 0 0 0 .103-1.53c-.002-2.85 0-5.696-.002-8.544h-.003zm-4.817 2.992v4.284c0 .313-.043.62-.183.905a1.59 1.59 0 0 1-1.04.855 3.46 3.46 0 0 1-.803.13 1.4 1.4 0 0 1-1.457-1.153 1.41 1.41 0 0 1 .778-1.516 3.2 3.2 0 0 1 .764-.243c.283-.061.568-.115.85-.18.206-.047.343-.172.383-.387a.678.678 0 0 0 .015-.145c0-1.36 0-2.722-.002-4.082a.543.543 0 0 0-.02-.139c-.03-.112-.112-.182-.227-.175-.12.007-.239.026-.357.05-.57.112-1.14.227-1.71.341l-1.744.353-1.03.208c-.012.003-.024.008-.036.01-.208.058-.283.152-.293.368v.097c-.001 1.952 0 3.903-.002 5.854 0 .315-.035.627-.161.92-.209.48-.578.78-1.076.925-.262.075-.532.12-.806.129a1.38 1.38 0 0 1-1.44-1.158 1.4 1.4 0 0 1 .866-1.557c.267-.112.547-.174.83-.232.216-.045.432-.087.645-.133.288-.062.438-.242.45-.535v-.113c0-2.22 0-4.441.002-6.661 0-.092.01-.187.031-.277.053-.214.205-.336.41-.389.191-.05.386-.084.58-.124l1.65-.333 1.703-.345 1.507-.302c.165-.032.332-.066.498-.08.233-.018.392.128.416.362.006.055.009.111.009.167v4.301z"/>
  </defs>
  <g fill="none" fill-rule="evenodd">
    <polygon points="0 0 24 0 24 24 0 24"/>
    <mask id="apple-music-b" fill="#fff">
      <use xlink:href="#apple-music-a"/>
    </mask>
    <use fill="#000" xlink:href="#apple-music-a"/>
    <g fill="#000" mask="url(#apple-music-b)">
      <rect width="24" height="24"/>
    </g>
  </g>
</svg>
