<svg xmlns="http://www.w3.org/2000/svg" xmlns:xlink="http://www.w3.org/1999/xlink" width="24" height="24" viewBox="0 0 24 24">
  <defs>
    <path id="behance-a" d="M8.206 6a6.69 6.69 0 0 1 1.44.141 3.24 3.24 0 0 1 1.114.458c.308.21.55.487.72.84.17.353.256.788.256 1.298 0 .555-.128 1.02-.38 1.396-.254.375-.629.675-1.128.915.68.195 1.183.54 1.517 1.028.336.495.5 1.088.5 1.77 0 .563-.098 1.043-.308 1.449-.21.412-.503.75-.87 1.012-.36.262-.788.45-1.254.576-.457.124-.939.19-1.433.19H3V6.006h5.206V6zm7.504 9.125c.33.321.805.482 1.42.482.444 0 .826-.11 1.149-.335.318-.218.51-.458.585-.705h1.942c-.303.96-.786 1.65-1.426 2.063-.637.42-1.413.623-2.31.623a4.599 4.599 0 0 1-1.705-.3 3.712 3.712 0 0 1-1.29-.856 3.827 3.827 0 0 1-.809-1.328 4.923 4.923 0 0 1-.28-1.703c0-.602.102-1.155.303-1.673.202-.525.483-.96.84-1.343a4.08 4.08 0 0 1 1.303-.896c.504-.224 1.05-.325 1.665-.325.683 0 1.268.123 1.786.393.503.255.915.615 1.245 1.05.33.44.563.946.706 1.516.142.562.187 1.155.157 1.785h-5.77c0 .63.21 1.225.533 1.55l-.06.022.016-.02zm-7.683.038c.238 0 .465-.023.68-.07a1.74 1.74 0 0 0 .572-.225c.158-.102.293-.246.39-.438.098-.18.143-.427.143-.72 0-.563-.165-.968-.48-1.216-.323-.24-.743-.36-1.268-.36H5.43v3.039h2.596v-.022.012zm10.21-4.24c-.265-.288-.706-.444-1.244-.444-.351 0-.642.056-.875.179a1.617 1.617 0 0 0-.555.442c-.143.18-.238.36-.294.563a2.63 2.63 0 0 0-.102.533h3.573c-.052-.563-.247-.975-.51-1.268v.007l.006-.012zm-10.345-.461c.43 0 .788-.1 1.069-.31.28-.202.416-.54.416-1.003 0-.258-.053-.469-.135-.635a1.097 1.097 0 0 0-.375-.384 1.589 1.589 0 0 0-.54-.193 3.32 3.32 0 0 0-.63-.055H5.422v2.58h2.469zm6.826-3.72h4.478v1.091h-4.478v-1.1.009z"/>
  </defs>
  <g fill="none" fill-rule="evenodd">
    <polygon points="0 0 24 0 24 24 0 24"/>
    <mask id="behance-b" fill="#fff">
      <use xlink:href="#behance-a"/>
    </mask>
    <use fill="#000" xlink:href="#behance-a"/>
    <g fill="#000" mask="url(#behance-b)">
      <rect width="24" height="24"/>
    </g>
  </g>
</svg>
