<svg xmlns="http://www.w3.org/2000/svg" xmlns:xlink="http://www.w3.org/1999/xlink" width="24" height="24" viewBox="0 0 24 24">
  <defs>
    <path id="dropbox-a" d="M7.5,4 L3,6.8665 L7.5,9.733 L12.00075,6.8665 L7.5,4 Z M16.5,4 L12,6.8665 L16.5,9.733 L21,6.8665 L16.5,4 Z M3,12.60025 L7.5,15.46675 L12.00075,12.60025 L7.5,9.73375 L3,12.60025 L3,12.60025 Z M16.5,9.73375 L12,12.60025 L16.5,15.46675 L21,12.60025 L16.5,9.73375 L16.5,9.73375 Z M7.5,16.423 L12.00075,19.2895 L16.50075,16.423 L12.00075,13.5565 L7.5,16.423 Z"/>
  </defs>
  <g fill="none" fill-rule="evenodd">
    <polygon points="0 0 24 0 24 24 0 24"/>
    <mask id="dropbox-b" fill="#fff">
      <use xlink:href="#dropbox-a"/>
    </mask>
    <use fill="#000" xlink:href="#dropbox-a"/>
    <g fill="#000" mask="url(#dropbox-b)">
      <rect width="24" height="24"/>
    </g>
  </g>
</svg>
