<svg xmlns="http://www.w3.org/2000/svg" xmlns:xlink="http://www.w3.org/1999/xlink" width="24" height="24" viewBox="0 0 24 24">
  <defs>
    <path id="firefox-a" d="M20.385 11.226c-.022-.16-.053-.258-.053-.258l-.167.212a5.852 5.852 0 0 0-.205-1.145 7.762 7.762 0 0 0-.53-1.359 5.025 5.025 0 0 0-.486-.827c-.1-.152-.183-.266-.198-.288-.326-.531-.69-.85-1.123-1.457a4.47 4.47 0 0 1-.554-1.51 5.595 5.595 0 0 0-.273.986c-.433-.44-.82-.759-1.047-.971C14.61 3.546 14.747 3 14.747 3s-2.125 2.368-1.207 4.834c.32.835.866 1.57 1.586 2.11.888.728 1.844 1.305 2.345 2.784a4.672 4.672 0 0 0-1.768-1.874c.228.539.342 1.108.334 1.692a4.018 4.018 0 0 1-4.91 3.916 3.76 3.76 0 0 1-.994-.341 3.975 3.975 0 0 1-1.199-1.1v-.008c.038.015.06.022.069.022.166.061.333.107.508.137.683.144 1.389.06 2.019-.235.637-.357 1.024-.615 1.335-.516.311.098.546-.198.334-.509a1.667 1.667 0 0 0-1.609-.622c-.637.091-1.222.539-2.049.106-.06-.03-.106-.06-.159-.09-.053-.039.182.045.121.007a3.66 3.66 0 0 1-.523-.311c-.008-.008.129.038.114.03a2 2 0 0 1-.547-.554 1.006 1.006 0 0 1-.038-.873.769.769 0 0 1 .342-.318c.106.053.174.09.174.09s-.053-.09-.076-.136c.008-.007.016 0 .03-.007.092.038.297.144.41.212a.57.57 0 0 1 .19.167s.038-.015.008-.099a.462.462 0 0 0-.197-.235h.015c.083.046.16.091.235.152.068-.167.106-.334.099-.509a.682.682 0 0 0-.038-.28c-.03-.061.015-.084.068-.023a.482.482 0 0 0-.046-.137s.03-.045.046-.053a.495.495 0 0 1 .121-.098 5.01 5.01 0 0 1 .828-.425c.235-.1.424-.183.462-.205.061-.038.114-.076.167-.122a1.1 1.1 0 0 0 .372-.645c.008-.038.008-.068.008-.098v-.061c-.03-.13-.25-.22-1.396-.334a.995.995 0 0 1-.82-.766v.007c-.015.038-.03.084-.046.13l.046-.13v-.007c.22-.57.615-1.063 1.123-1.397.03-.023-.114.008-.083-.015.09-.045.19-.091.296-.129.053-.015-.22-.121-.463-.099a1.386 1.386 0 0 0-.425.1c.06-.046.227-.107.19-.107a2.528 2.528 0 0 0-.873.326c0-.03.007-.053.015-.076a1.33 1.33 0 0 0-.539.418v-.099c-.099.076-.182.16-.265.25h-.008a3.525 3.525 0 0 0-1.98-.167l-.008-.007h.007a1.452 1.452 0 0 1-.349-.395l-.007.008-.016-.015c-.045-.061-.083-.137-.129-.22-.037-.054-.068-.122-.106-.19 0 0 0-.008-.007-.008-.008 0-.023.069-.03.046a2.401 2.401 0 0 1-.16-.949h-.008c-.19.13-.334.311-.402.531-.038.076-.06.114-.083.16v-.023l.022-.114c-.007.008-.007.015-.015.023a.964.964 0 0 0-.136.205 1.12 1.12 0 0 0-.091.22v-.038c0-.03.007-.076 0-.06l-.008.022a5.32 5.32 0 0 0-.455 1.707c-.015.107-.015.205-.015.304v.015c-.175.19-.327.395-.463.615a8.748 8.748 0 0 0-.972 2.39c.144-.318.319-.63.524-.918A8.386 8.386 0 0 0 3 13.093c.068-.311.152-.615.25-.918a7.87 7.87 0 0 0 .706 3.65 8.466 8.466 0 0 0 3.362 3.801c.6.41 1.26.729 1.95.941.091.03.19.069.28.1-.03-.016-.052-.031-.083-.039.82.243 1.677.372 2.535.372 3.043 0 4.045-1.161 4.143-1.275a1.52 1.52 0 0 0 .357-.486c.06-.022.114-.045.175-.075l.037-.016c.046-.022.069-.03.069-.03a6.45 6.45 0 0 0 1.29-.804 3.108 3.108 0 0 0 1.191-1.753c.114-.258.114-.54.023-.805.046-.076.083-.144.091-.159a7.165 7.165 0 0 0 1.078-3.483v-.106c0-.258-.023-.524-.069-.782z"/>
  </defs>
  <g fill="none" fill-rule="evenodd">
    <polygon points="0 0 24 0 24 24 0 24"/>
    <mask id="firefox-b" fill="#fff">
      <use xlink:href="#firefox-a"/>
    </mask>
    <use fill="#000" xlink:href="#firefox-a"/>
    <g fill="#000" mask="url(#firefox-b)">
      <rect width="24" height="24"/>
    </g>
  </g>
</svg>
