<svg xmlns="http://www.w3.org/2000/svg" xmlns:xlink="http://www.w3.org/1999/xlink" width="24" height="24" viewBox="0 0 24 24">
  <defs>
    <path id="flickr-a" d="M3,12.173 C3,14.4785 4.8705,16.346 7.17375,16.346 C9.48,16.346 11.3505,14.4785 11.3505,12.173 C11.3505,9.8675 9.48075,8 7.17375,8 C4.87125,8 3,9.8675 3,12.173 Z M12.6495,12.173 C12.6495,14.4785 14.51925,16.346 16.82475,16.346 C19.122,16.346 21,14.4785 21,12.173 C21,9.8675 19.131,8 16.827,8 C14.52075,8 12.6495,9.8675 12.6495,12.173 Z"/>
  </defs>
  <g fill="none" fill-rule="evenodd">
    <polygon points="0 0 24 0 24 24 0 24"/>
    <mask id="flickr-b" fill="#fff">
      <use xlink:href="#flickr-a"/>
    </mask>
    <use fill="#000" xlink:href="#flickr-a"/>
    <g fill="#000" mask="url(#flickr-b)">
      <rect width="24" height="24"/>
    </g>
  </g>
</svg>
