<svg xmlns="http://www.w3.org/2000/svg" xmlns:xlink="http://www.w3.org/1999/xlink" width="24" height="24" viewBox="0 0 24 24">
  <defs>
    <path id="github-a" d="M12 3c-4.973 0-9 4.03-9 9a8.999 8.999 0 0 0 6.154 8.539c.45.084.615-.194.615-.433 0-.214-.008-.78-.011-1.53-2.504.543-3.032-1.207-3.032-1.207-.41-1.04-1.001-1.317-1.001-1.317-.815-.558.063-.546.063-.546.903.063 1.378.927 1.378.927.803 1.376 2.107.978 2.621.748.081-.582.313-.979.57-1.204-1.998-.225-4.099-.999-4.099-4.447 0-.983.349-1.785.926-2.415-.101-.228-.405-1.143.079-2.382 0 0 .754-.242 2.475.922a8.66 8.66 0 0 1 2.25-.304 8.66 8.66 0 0 1 2.25.304c1.71-1.164 2.464-.922 2.464-.922.483 1.24.18 2.154.09 2.382.573.63.922 1.432.922 2.415 0 3.457-2.103 4.219-4.106 4.44.315.27.607.822.607 1.665 0 1.204-.01 2.172-.01 2.464 0 .236.157.518.618.428A8.969 8.969 0 0 0 21 12a9 9 0 0 0-9-9"/>
  </defs>
  <g fill="none" fill-rule="evenodd">
    <polygon points="0 0 24 0 24 24 0 24"/>
    <mask id="github-b" fill="#fff">
      <use xlink:href="#github-a"/>
    </mask>
    <use fill="#000" xlink:href="#github-a"/>
    <g fill="#000" mask="url(#github-b)">
      <rect width="24" height="24"/>
    </g>
  </g>
</svg>
