<svg xmlns="http://www.w3.org/2000/svg" xmlns:xlink="http://www.w3.org/1999/xlink" width="24" height="24" viewBox="0 0 24 24">
  <defs>
    <path id="google-a" d="M12 10.714V13.8h5.105c-.207 1.324-1.543 3.88-5.105 3.88-3.071 0-5.58-2.541-5.58-5.68S8.93 6.32 12 6.32c1.748 0 2.918.741 3.589 1.386l2.44-2.353C16.462 3.89 14.43 3 12 3c-4.976 0-9 4.024-9 9s4.024 9 9 9c5.195 0 8.64-3.652 8.64-8.794a8.2 8.2 0 0 0-.142-1.492H12z"/>
  </defs>
  <g fill="none" fill-rule="evenodd">
    <polygon points="0 0 24 0 24 24 0 24"/>
    <mask id="google-b" fill="#fff">
      <use xlink:href="#google-a"/>
    </mask>
    <use fill="#000" xlink:href="#google-a"/>
    <g fill="#000" mask="url(#google-b)">
      <rect width="24" height="24"/>
    </g>
  </g>
</svg>
