<svg xmlns="http://www.w3.org/2000/svg" xmlns:xlink="http://www.w3.org/1999/xlink" width="24" height="24" viewBox="0 0 24 24">
  <defs>
    <path id="google-chrome-a" d="M15.16 9.518l5.037-1.26A9.02 9.02 0 0 1 21 11.98c0 4.947-4.073 9.02-9.024 9.02-.227 0-.454-.008-.68-.026l3.679-6.26c.267-.282.49-.602.66-.953a4.088 4.088 0 0 0-.032-3.561 3.867 3.867 0 0 0-.442-.682zm-2.43 6.43l-1.59 5.012C6.553 20.51 3 16.605 3 11.983c0-1.789.532-3.538 1.529-5.024l3.625 6.283c.135.404.84 1.936 2.3 2.495a4.096 4.096 0 0 0 2.276.212zm-.75-7.233c-1.505.014-2.909 1.158-3.211 2.634a3.358 3.358 0 0 0 .928 3.024c.91.89 2.355 1.184 3.55.695a3.367 3.367 0 0 0 2.018-2.573c.204-1.392-.59-2.874-1.87-3.472a3.31 3.31 0 0 0-1.415-.308zm-3.696 1.757l-3.59-3.75A9.032 9.032 0 0 1 11.998 3a9.036 9.036 0 0 1 8.08 5.006h-7.66c-1.358-.094-2.465.39-3.198 1.09a4.009 4.009 0 0 0-.936 1.376z"/>
  </defs>
  <g fill="none" fill-rule="evenodd">
    <polygon points="0 0 24 0 24 24 0 24"/>
    <mask id="google-chrome-b" fill="#fff">
      <use xlink:href="#google-chrome-a"/>
    </mask>
    <use fill="#000" xlink:href="#google-chrome-a"/>
    <g fill="#000" mask="url(#google-chrome-b)">
      <rect width="24" height="24"/>
    </g>
  </g>
</svg>
