<svg xmlns="http://www.w3.org/2000/svg" xmlns:xlink="http://www.w3.org/1999/xlink" width="24" height="24" viewBox="0 0 24 24">
  <defs>
    <path id="google-play-a" d="M4.045 3c-.022.07-.045.139-.045.231v17.422c0 .163.046.255.138.347l8.561-9.07L4.045 3zm9.232 9.531l2.213 2.284-3.16 1.8s-4.016 2.283-6.23 3.554l7.177-7.638zm.6-.623l2.375 2.469c.372-.207 3.278-1.87 3.693-2.1.438-.254.394-.6.022-.785-.345-.191-3.25-1.856-3.69-2.126l-2.403 2.544.003-.002zm-.602-.6l2.238-2.377-3.194-1.823s-5.207-2.98-6.94-3.974l7.898 8.174h-.002z"/>
  </defs>
  <g fill="none" fill-rule="evenodd">
    <polygon points="0 0 24 0 24 24 0 24"/>
    <mask id="google-play-b" fill="#fff">
      <use xlink:href="#google-play-a"/>
    </mask>
    <use fill="#000" xlink:href="#google-play-a"/>
    <g fill="#000" mask="url(#google-play-b)">
      <rect width="24" height="24"/>
    </g>
  </g>
</svg>
