<svg xmlns="http://www.w3.org/2000/svg" xmlns:xlink="http://www.w3.org/1999/xlink" width="24" height="24" viewBox="0 0 24 24">
  <defs>
    <path id="internet-explorer-a" d="M20.1 8.402c.844-2.025.9-3.713-.113-4.725-1.125-1.124-3.825-.788-6.693.562h-.337c-2.025 0-3.993.732-5.456 2.025-1.237 1.125-2.137 2.588-2.53 4.22.28-.338 1.855-2.195 3.655-3.207.057 0 .507-.281.507-.281-.057 0-.9.843-1.07 1.012-3.937 4.05-6.242 10.18-4.442 11.98 1.18 1.181 3.318.9 5.793-.45 1.069.506 2.25.731 3.543.731 1.687 0 3.262-.45 4.612-1.35 1.406-.9 2.418-2.305 3.038-3.937h-4.388c-.562 1.07-1.856 1.8-3.206 1.8-1.912 0-3.487-1.575-3.543-3.375v-.168h11.474v-.17c0-.28.056-.618.056-.842 0-1.35-.338-2.644-.9-3.825zM4.858 19.652c-.9-.9-.618-2.644.45-4.725.506 1.406 1.35 2.644 2.418 3.544.338.28.732.562 1.125.787-1.8.956-3.262 1.125-3.993.393zm11.53-8.55H9.526v-.056c.113-1.743 1.743-3.262 3.656-3.262 1.8 0 3.262 1.406 3.375 3.262v.057h-.169zm3.43-3.15a6.9 6.9 0 0 0-1.293-1.574 8.41 8.41 0 0 0-2.7-1.688c1.8-.843 3.319-.955 4.106-.168.619.731.563 1.968-.112 3.43 0 .057 0 .057 0 0 0 .057 0 .057 0 0z"/>
  </defs>
  <g fill="none" fill-rule="evenodd">
    <polygon points="0 0 24 0 24 24 0 24"/>
    <mask id="internet-explorer-b" fill="#fff">
      <use xlink:href="#internet-explorer-a"/>
    </mask>
    <use fill="#000" xlink:href="#internet-explorer-a"/>
    <g fill="#000" mask="url(#internet-explorer-b)">
      <rect width="24" height="24"/>
    </g>
  </g>
</svg>
