<svg xmlns="http://www.w3.org/2000/svg" xmlns:xlink="http://www.w3.org/1999/xlink" width="24" height="24" viewBox="0 0 24 24">
  <defs>
    <path id="linkedin-a" d="M18.33525,18.339 L15.66975,18.339 L15.66975,14.16225 C15.66975,13.16625 15.6495,11.8845 14.28075,11.8845 C12.891,11.8845 12.67875,12.96825 12.67875,14.08875 L12.67875,18.339 L10.01325,18.339 L10.01325,9.75 L12.57375,9.75 L12.57375,10.92075 L12.60825,10.92075 C12.966,10.24575 13.836,9.53325 15.13575,9.53325 C17.8365,9.53325 18.336,11.31075 18.336,13.6245 L18.336,18.339 L18.33525,18.339 Z M7.00275,8.57475 C6.14475,8.57475 5.4555,7.88025 5.4555,7.026 C5.4555,6.1725 6.1455,5.47875 7.00275,5.47875 C7.85775,5.47875 8.55075,6.1725 8.55075,7.026 C8.55075,7.88025 7.857,8.57475 7.00275,8.57475 Z M8.33925,18.339 L5.66625,18.339 L5.66625,9.75 L8.33925,9.75 L8.33925,18.339 Z M19.66875,3 L4.32825,3 C3.594,3 3,3.5805 3,4.29675 L3,19.70325 C3,20.42025 3.594,21 4.32825,21 L19.6665,21 C20.4,21 21,20.42025 21,19.70325 L21,4.29675 C21,3.5805 20.4,3 19.6665,3 L19.66875,3 Z"/>
  </defs>
  <g fill="none" fill-rule="evenodd">
    <polygon points="0 0 24 0 24 24 0 24"/>
    <mask id="linkedin-b" fill="#fff">
      <use xlink:href="#linkedin-a"/>
    </mask>
    <use fill="#000" xlink:href="#linkedin-a"/>
    <g fill="#000" mask="url(#linkedin-b)">
      <rect width="24" height="24"/>
    </g>
  </g>
</svg>
