<svg xmlns="http://www.w3.org/2000/svg" xmlns:xlink="http://www.w3.org/1999/xlink" width="24" height="24" viewBox="0 0 24 24">
  <defs>
    <path id="livejournal-a" d="M16.567 14.022a4.93 4.93 0 0 0-2.535 2.55l3.202.662-.664-3.212h-.003zM4.857 9.238L3 7.388A8.445 8.445 0 0 1 7.367 3h.005l1.851 1.847a8.418 8.418 0 0 1 3.348-.69c4.654 0 8.429 3.77 8.429 8.421C21 17.23 17.225 21 12.57 21c-4.657 0-8.43-3.768-8.43-8.422 0-1.193.266-2.31.714-3.338l6.857 6.836a8.45 8.45 0 0 1 4.367-4.388l-6.85-6.84H9.22a8.464 8.464 0 0 0-4.367 4.388l.002.002z"/>
  </defs>
  <g fill="none" fill-rule="evenodd">
    <polygon points="0 0 24 0 24 24 0 24"/>
    <mask id="livejournal-b" fill="#fff">
      <use xlink:href="#livejournal-a"/>
    </mask>
    <use fill="#000" xlink:href="#livejournal-a"/>
    <g fill="#000" mask="url(#livejournal-b)">
      <rect width="24" height="24"/>
    </g>
  </g>
</svg>
