<svg xmlns="http://www.w3.org/2000/svg" xmlns:xlink="http://www.w3.org/1999/xlink" width="24" height="24" viewBox="0 0 24 24">
  <defs>
    <path id="mailchimp-a" d="M16.736 11.506c.123-.016.249-.016.372 0 .067-.154.078-.419.018-.707-.09-.428-.21-.688-.46-.647-.25.04-.259.35-.169.78.05.24.14.446.24.574h-.001zm-2.145.339c.179.078.288.13.331.085.028-.028.02-.082-.022-.152a1.047 1.047 0 0 0-.463-.373 1.258 1.258 0 0 0-1.226.147c-.12.088-.232.21-.217.284.006.024.023.042.065.048.1.01.443-.163.84-.188.28-.017.513.07.692.15v-.001zm-.36.205c-.233.038-.361.114-.444.185-.07.062-.114.13-.114.178l.018.043.039.015c.052 0 .17-.048.17-.048.24-.09.498-.117.75-.078.117.013.173.02.198-.02.007-.01.017-.036-.006-.075-.055-.088-.29-.237-.61-.2h-.001zm1.78.755c.158.078.332.047.39-.068.056-.116-.026-.273-.184-.35-.158-.078-.332-.047-.389.067-.057.117.026.273.184.35zm1.017-.89c-.128-.002-.235.139-.238.316-.003.176.099.32.227.323.128.002.235-.139.238-.315.003-.176-.099-.32-.227-.324zM8.4 15.097c-.031-.04-.084-.027-.135-.015a.484.484 0 0 1-.12.016.26.26 0 0 1-.219-.111c-.058-.09-.055-.224.01-.378l.03-.069c.103-.231.275-.619.082-.988-.146-.277-.384-.451-.67-.487a.859.859 0 0 0-.737.266c-.284.314-.328.741-.273.893.02.054.052.07.075.073.048.007.12-.028.165-.15l.012-.039a1.17 1.17 0 0 1 .118-.277.516.516 0 0 1 .715-.15c.2.13.276.375.191.608-.044.12-.115.35-.1.54.033.384.268.538.479.555.205.007.35-.109.385-.194.023-.05.004-.08-.007-.093zm11.869-.702a12.64 12.64 0 0 0-.13-.44l-.142-.382c.282-.422.286-.8.25-1.012a1.28 1.28 0 0 0-.373-.723c-.22-.234-.675-.473-1.312-.651l-.334-.093c-.001-.014-.017-.79-.032-1.123-.01-.24-.03-.616-.147-.986-.139-.502-.38-.94-.683-1.22.833-.864 1.353-1.817 1.351-2.634-.002-1.57-1.928-2.047-4.302-1.062l-.502.214-.923-.905c-2.707-2.366-11.168 7.056-8.464 9.345l.592.5c-.16.43-.216.89-.165 1.346.064.63.388 1.233.914 1.699.498.443 1.155.724 1.791.723 1.053 2.43 3.458 3.921 6.278 4.005 3.025.09 5.565-1.332 6.63-3.886.07-.18.364-.988.364-1.7 0-.718-.404-1.015-.661-1.015zM7.892 16.308a1.455 1.455 0 0 1-.28.02c-.914-.025-1.901-.848-2-1.826-.108-1.08.443-1.911 1.418-2.108a1.66 1.66 0 0 1 .41-.03c.547.03 1.352.45 1.536 1.644.163 1.056-.096 2.132-1.084 2.3zm-1.02-4.56a2.322 2.322 0 0 0-1.47.939c-.196-.164-.56-.48-.625-.603-.523-.994.57-2.927 1.333-4.018 1.888-2.697 4.842-4.738 6.21-4.368.222.063.959.918.959.918s-1.367.76-2.636 1.82c-1.708 1.317-2.999 3.233-3.772 5.312zm9.59 4.156c.02-.01.033-.03.031-.053a.05.05 0 0 0-.055-.045s-1.431.212-2.783-.284c.147-.48.538-.306 1.13-.258a8.257 8.257 0 0 0 2.73-.296c.613-.176 1.417-.523 2.042-1.017.21.464.285.974.285.974s.163-.03.3.055c.128.079.222.244.158.67-.132.798-.47 1.445-1.038 2.04a4.273 4.273 0 0 1-1.248.934 5.263 5.263 0 0 1-.813.345c-2.144.701-4.338-.07-5.046-1.725a2.686 2.686 0 0 1-.142-.392c-.3-1.091-.045-2.4.755-3.224.049-.052.1-.115.1-.192 0-.065-.042-.133-.077-.182-.28-.407-1.25-1.1-1.055-2.44.14-.964.981-1.642 1.765-1.602l.199.011c.34.02.636.064.916.076.468.02.889-.048 1.388-.464.168-.14.303-.263.53-.3.025-.005.084-.026.203-.02.122.004.24.042.342.11.4.265.456.91.477 1.383.012.27.044.92.056 1.108.025.428.137.488.364.563.128.043.247.074.422.123.528.15.842.3 1.04.494.118.12.172.25.19.373.063.456-.353 1.02-1.454 1.53-1.204.56-2.662.702-3.671.59l-.353-.04c-.807-.11-1.267.935-.783 1.65.312.462 1.162.762 2.012.762 1.95 0 3.448-.834 4.006-1.554l.045-.064c.027-.041.004-.064-.03-.04-.456.311-2.478 1.551-4.643 1.178 0 0-.262-.043-.502-.137-.19-.074-.59-.258-.638-.668 1.746.54 2.845.029 2.845.029zm-6.107-7.85c.672-.776 1.497-1.451 2.237-1.83.025-.013.052.015.039.04-.06.106-.173.335-.208.508a.03.03 0 0 0 .046.031c.46-.314 1.26-.65 1.963-.694.03-.002.045.037.02.056-.115.09-.22.193-.308.31a.03.03 0 0 0 .024.048c.492.003 1.188.176 1.64.43.03.018.01.077-.025.07-.685-.158-1.807-.278-2.973.007-1.04.255-1.834.647-2.413 1.07-.03.02-.065-.018-.042-.046z"/>
  </defs>
  <g fill="none" fill-rule="evenodd">
    <polygon points="0 0 24 0 24 24 0 24"/>
    <mask id="mailchimp-b" fill="#fff">
      <use xlink:href="#mailchimp-a"/>
    </mask>
    <use fill="#000" xlink:href="#mailchimp-a"/>
    <g fill="#000" mask="url(#mailchimp-b)">
      <rect width="24" height="24"/>
    </g>
  </g>
</svg>
