<svg xmlns="http://www.w3.org/2000/svg" xmlns:xlink="http://www.w3.org/1999/xlink" width="24" height="24" viewBox="0 0 24 24">
  <defs>
    <path id="mail.ru-a" d="M11.689 6.585c1.375 0 2.668.608 3.618 1.56v.003c0-.457.307-.801.734-.801h.109c.668 0 .804.631.804.832l.004 7.106c-.047.466.48.706.772.407 1.14-1.173 2.507-6.028-.71-8.842-2.997-2.623-7.017-2.191-9.157-.717-2.273 1.569-3.728 5.039-2.314 8.299 1.54 3.555 5.948 4.614 8.568 3.558 1.327-.537 1.94 1.257.562 1.842-2.082.888-7.877.798-10.583-3.89-1.83-3.167-1.732-8.738 3.119-11.624 3.71-2.207 8.602-1.596 11.552 1.485 3.083 3.22 2.904 9.25-.105 11.596-1.362 1.065-3.387.027-3.373-1.524l-.015-.508a5.059 5.059 0 0 1-3.586 1.49c-2.719 0-5.11-2.391-5.11-5.108 0-2.745 2.392-5.164 5.11-5.164zm3.42 4.967c-.102-1.99-1.58-3.187-3.363-3.187h-.067c-2.059 0-3.201 1.62-3.201 3.458 0 2.06 1.381 3.36 3.192 3.36 2.02 0 3.348-1.479 3.444-3.229l-.005-.402z"/>
  </defs>
  <g fill="none" fill-rule="evenodd">
    <polygon points="0 0 24 0 24 24 0 24"/>
    <mask id="mail.ru-b" fill="#fff">
      <use xlink:href="#mail.ru-a"/>
    </mask>
    <use fill="#000" xlink:href="#mail.ru-a"/>
    <g fill="#000" mask="url(#mail.ru-b)">
      <rect width="24" height="24"/>
    </g>
  </g>
</svg>
