<svg xmlns="http://www.w3.org/2000/svg" xmlns:xlink="http://www.w3.org/1999/xlink" width="24" height="24" viewBox="0 0 24 24">
  <defs>
    <path id="medium-a" d="M3 3v18h18V3H3zm14.953 4.264l-.965.926a.282.282 0 0 0-.107.271v6.8a.282.282 0 0 0 .107.272l.943.925v.203h-4.742v-.202l.977-.949c.096-.096.096-.124.096-.27V9.742l-2.715 6.897h-.367L8.018 9.743v4.622a.638.638 0 0 0 .174.53l1.27 1.54v.204h-3.6v-.203l1.27-1.541a.615.615 0 0 0 .164-.53V9.02a.468.468 0 0 0-.152-.395l-1.13-1.36v-.203H9.52l2.71 5.942 2.381-5.943h3.342v.204z"/>
  </defs>
  <g fill="none" fill-rule="evenodd">
    <polygon points="0 0 24 0 24 24 0 24"/>
    <mask id="medium-b" fill="#fff">
      <use xlink:href="#medium-a"/>
    </mask>
    <use fill="#000" xlink:href="#medium-a"/>
    <g fill="#000" mask="url(#medium-b)">
      <rect width="24" height="24"/>
    </g>
  </g>
</svg>
