<svg xmlns="http://www.w3.org/2000/svg" xmlns:xlink="http://www.w3.org/1999/xlink" width="24" height="24" viewBox="0 0 24 24">
  <defs>
    <path id="messenger-a" d="M3 11.73C3 6.712 6.93 3 12 3s9 3.712 9 8.73c0 5.017-3.93 8.73-9 8.73-.907 0-1.785-.12-2.602-.346a.72.72 0 0 0-.48.038l-1.792.787a.72.72 0 0 1-1.013-.637l-.052-1.605a.727.727 0 0 0-.24-.51A8.542 8.542 0 0 1 3 11.73zm6.24-1.643l-2.64 4.2c-.262.398.24.855.616.562l2.842-2.152a.53.53 0 0 1 .652 0l2.1 1.575c.63.473 1.53.3 1.95-.36l2.64-4.2c.263-.397-.24-.847-.615-.562l-2.842 2.152a.518.518 0 0 1-.645 0l-2.1-1.575a1.35 1.35 0 0 0-1.957.36z"/>
  </defs>
  <g fill="none" fill-rule="evenodd">
    <polygon points="0 0 24 0 24 24 0 24"/>
    <mask id="messenger-b" fill="#fff">
      <use xlink:href="#messenger-a"/>
    </mask>
    <use fill="#000" xlink:href="#messenger-a"/>
    <g fill="#000" mask="url(#messenger-b)">
      <rect width="24" height="24"/>
    </g>
  </g>
</svg>
