<svg xmlns="http://www.w3.org/2000/svg" xmlns:xlink="http://www.w3.org/1999/xlink" width="24" height="24" viewBox="0 0 24 24">
  <defs>
    <path id="microsoft-edge-a" d="M20.74 13.688H9.237c0 .433.065.827.197 1.18a3.343 3.343 0 0 0 1.384 1.638c.31.197.647.36 1.007.486.357.13.731.225 1.11.287.823.13 1.662.124 2.483-.02a9.72 9.72 0 0 0 1.238-.314c.405-.133.796-.29 1.188-.47.393-.18.792-.377 1.203-.597v3.814c-.459.225-.909.414-1.359.577-.45.157-.9.295-1.357.405-.46.112-.923.197-1.399.247-.488.053-.977.079-1.468.079a8.146 8.146 0 0 1-1.954-.233 7.663 7.663 0 0 1-1.767-.67 7.402 7.402 0 0 1-1.513-1.063 6.718 6.718 0 0 1-2.213-5.068c0-.74.101-1.443.303-2.115A6.754 6.754 0 0 1 7.199 10 6.69 6.69 0 0 1 8.59 8.5a7.365 7.365 0 0 1 1.851-1.068 3.905 3.905 0 0 0-.872 1.33 5.753 5.753 0 0 0-.402 1.541h6.406c0-.647-.064-1.21-.196-1.693-.132-.484-.344-.886-.639-1.204a2.662 2.662 0 0 0-1.133-.72c-.464-.16-1.024-.242-1.679-.242-.774 0-1.547.113-2.32.346a9.76 9.76 0 0 0-2.205.956c-.698.414-1.34.9-1.924 1.457A9.115 9.115 0 0 0 4 11.026a10.5 10.5 0 0 1 .487-2.184A9.292 9.292 0 0 1 5.4 6.9c.37-.588.807-1.13 1.305-1.614a7.755 7.755 0 0 1 1.659-1.237 8.47 8.47 0 0 1 1.96-.794A10.05 10.05 0 0 1 12.566 3a7.8 7.8 0 0 1 1.377.124c.459.084.906.197 1.342.343a7.993 7.993 0 0 1 2.32 1.243 7.915 7.915 0 0 1 1.716 1.837 8.196 8.196 0 0 1 1.057 2.297c.242.836.366 1.705.366 2.608v2.236h-.003z"/>
  </defs>
  <g fill="none" fill-rule="evenodd">
    <polygon points="0 0 24 0 24 24 0 24"/>
    <mask id="microsoft-edge-b" fill="#fff">
      <use xlink:href="#microsoft-edge-a"/>
    </mask>
    <use fill="#000" xlink:href="#microsoft-edge-a"/>
    <g fill="#000" mask="url(#microsoft-edge-b)">
      <rect width="24" height="24"/>
    </g>
  </g>
</svg>
