<svg xmlns="http://www.w3.org/2000/svg" xmlns:xlink="http://www.w3.org/1999/xlink" width="24" height="24" viewBox="0 0 24 24">
  <defs>
    <path id="odnoklassniki-a" d="M14.093 16.08a8.7 8.7 0 0 0 2.7-1.117 1.362 1.362 0 0 0-1.452-2.305 5.9 5.9 0 0 1-6.255 0 1.36 1.36 0 0 0-1.875.424l-.001.004a1.36 1.36 0 0 0 .425 1.875l.001.001c.83.522 1.742.9 2.698 1.116l-2.6 2.6a1.347 1.347 0 0 0-.02 1.902l.022.022c.258.266.608.398.956.398s.697-.132.956-.398l2.566-2.553 2.553 2.555a1.362 1.362 0 0 0 1.925-1.924l-2.6-2.6zm-1.88-3.789a4.651 4.651 0 0 0 4.647-4.645A4.653 4.653 0 0 0 12.214 3a4.653 4.653 0 0 0-4.647 4.648 4.65 4.65 0 0 0 4.647 4.644zm0-6.568a1.925 1.925 0 0 1 0 3.848 1.927 1.927 0 0 1-1.923-1.923 1.928 1.928 0 0 1 1.924-1.925z"/>
  </defs>
  <g fill="none" fill-rule="evenodd">
    <polygon points="0 0 24 0 24 24 0 24"/>
    <mask id="odnoklassniki-b" fill="#fff">
      <use xlink:href="#odnoklassniki-a"/>
    </mask>
    <use fill="#000" xlink:href="#odnoklassniki-a"/>
    <g fill="#000" mask="url(#odnoklassniki-b)">
      <rect width="24" height="24"/>
    </g>
  </g>
</svg>
