<svg xmlns="http://www.w3.org/2000/svg" xmlns:xlink="http://www.w3.org/1999/xlink" width="24" height="24" viewBox="0 0 24 24">
  <defs>
    <path id="opera-a" d="M9.038 6.928c-.996 1.175-1.64 2.913-1.684 4.86v.423c.045 1.949.688 3.684 1.684 4.86 1.291 1.677 3.21 2.74 5.354 2.74 1.318 0 2.55-.402 3.606-1.103a8.946 8.946 0 0 1-6.426 2.282A8.998 8.998 0 0 1 3 12a9 9 0 0 1 9-9h.034a8.974 8.974 0 0 1 5.964 2.291 6.515 6.515 0 0 0-3.607-1.103c-2.143 0-4.063 1.065-5.355 2.74h.002zM21 12a8.972 8.972 0 0 1-3.002 6.709c-2.308 1.125-4.459.338-5.172-.154 2.268-.498 3.98-3.24 3.98-6.555 0-3.316-1.712-6.056-3.98-6.555.712-.49 2.864-1.277 5.172-.154A8.97 8.97 0 0 1 21 12z"/>
  </defs>
  <g fill="none" fill-rule="evenodd">
    <polygon points="0 0 24 0 24 24 0 24"/>
    <mask id="opera-b" fill="#fff">
      <use xlink:href="#opera-a"/>
    </mask>
    <use fill="#000" xlink:href="#opera-a"/>
    <g fill="#000" mask="url(#opera-b)">
      <rect width="24" height="24"/>
    </g>
  </g>
</svg>
