<svg xmlns="http://www.w3.org/2000/svg" xmlns:xlink="http://www.w3.org/1999/xlink" width="24" height="24" viewBox="0 0 24 24">
  <defs>
    <path id="pinterest-a" d="M12.013 3a8.99 8.99 0 0 0-3.278 17.362c-.079-.712-.149-1.802.031-2.58.164-.702 1.054-4.467 1.054-4.467s-.269-.54-.269-1.336c0-1.247.726-2.183 1.626-2.183.768 0 1.139.577 1.139 1.266 0 .772-.49 1.925-.744 2.994-.214.895.45 1.624 1.331 1.624 1.596 0 2.826-1.684 2.826-4.116 0-2.146-1.547-3.652-3.756-3.652-2.558 0-4.057 1.922-4.057 3.9 0 .774.296 1.607.667 2.056.074.09.084.168.064.258l-.25 1.023c-.04.168-.13.203-.302.123-1.12-.517-1.824-2.158-1.824-3.484 0-2.832 2.06-5.44 5.94-5.44 3.118 0 5.544 2.226 5.544 5.193 0 3.101-1.955 5.596-4.675 5.596-.91 0-1.765-.471-2.069-1.034l-.561 2.136c-.202.784-.753 1.764-1.124 2.36A9.02 9.02 0 0 0 11.99 21c4.955 0 8.988-4.024 8.988-8.99 0-4.967-4.033-8.99-8.988-8.99l.024-.02z"/>
  </defs>
  <g fill="none" fill-rule="evenodd">
    <polygon points="0 0 24 0 24 24 0 24"/>
    <mask id="pinterest-b" fill="#fff">
      <use xlink:href="#pinterest-a"/>
    </mask>
    <use fill="#000" xlink:href="#pinterest-a"/>
    <g fill="#000" mask="url(#pinterest-b)">
      <rect width="24" height="24"/>
    </g>
  </g>
</svg>
