<svg xmlns="http://www.w3.org/2000/svg" xmlns:xlink="http://www.w3.org/1999/xlink" width="24" height="24" viewBox="0 0 24 24">
  <defs>
    <path id="playstation-a" d="M9.738 5v13.16l2.936.946V8.07c0-.518.228-.863.596-.743.477.135.57.61.57 1.128v4.407c1.83.895 3.271-.001 3.271-2.364 0-2.428-.844-3.507-3.328-4.37-.98-.337-2.796-.89-4.043-1.127h-.002zm3.492 12.181l4.722-1.706c.536-.194.62-.469.184-.614-.44-.144-1.227-.104-1.767.093l-3.154 1.124v-1.789l.18-.063s.9-.315 2.185-.462c1.272-.135 2.838.022 4.077.496 1.386.45 1.531 1.104 1.182 1.554-.348.45-1.216.777-1.216.777l-6.408 2.33v-1.723l.015-.017zm-8.874-.178c-1.425-.41-1.66-1.251-1.014-1.741.6-.439 1.619-.788 1.619-.788l4.212-1.51v1.735l-3.019 1.104c-.529.203-.619.474-.18.62.44.145 1.228.112 1.758-.09l1.453-.53v1.555c-.09.022-.192.033-.293.055a9.353 9.353 0 0 1-4.527-.36l-.01-.05z"/>
  </defs>
  <g fill="none" fill-rule="evenodd">
    <polygon points="0 0 24 0 24 24 0 24"/>
    <mask id="playstation-b" fill="#fff">
      <use xlink:href="#playstation-a"/>
    </mask>
    <use fill="#000" xlink:href="#playstation-a"/>
    <g fill="#000" mask="url(#playstation-b)">
      <rect width="24" height="24"/>
    </g>
  </g>
</svg>
