<svg xmlns="http://www.w3.org/2000/svg" xmlns:xlink="http://www.w3.org/1999/xlink" width="24" height="24" viewBox="0 0 24 24">
  <defs>
    <path id="pocket-a" d="M17.11 10.736l-4.235 4.065a1.237 1.237 0 0 1-1.711 0l-4.235-4.065a1.234 1.234 0 0 1 1.707-1.782l3.384 3.242 3.387-3.242a1.232 1.232 0 0 1 1.745.037 1.23 1.23 0 0 1-.034 1.745h-.008zm3.812-5.659A1.622 1.622 0 0 0 19.392 4H4.633c-.675 0-1.288.423-1.528 1.054-.07.187-.106.383-.106.58v5.434l.063 1.08c.261 2.459 1.535 4.607 3.511 6.105.034.027.071.052.108.079l.022.017a8.924 8.924 0 0 0 3.52 1.554 8.972 8.972 0 0 0 3.448.027c.067-.022.133-.034.2-.045.017 0 .036-.011.055-.022a9.002 9.002 0 0 0 3.38-1.518l.023-.024.1-.079c1.971-1.496 3.244-3.646 3.515-6.11L21 11.05V5.626c0-.188-.023-.375-.09-.557l.012.008z"/>
  </defs>
  <g fill="none" fill-rule="evenodd">
    <polygon points="0 0 24 0 24 24 0 24"/>
    <mask id="pocket-b" fill="#fff">
      <use xlink:href="#pocket-a"/>
    </mask>
    <use fill="#000" xlink:href="#pocket-a"/>
    <g fill="#000" mask="url(#pocket-b)">
      <rect width="24" height="24"/>
    </g>
  </g>
</svg>
