<svg xmlns="http://www.w3.org/2000/svg" xmlns:xlink="http://www.w3.org/1999/xlink" width="24" height="24" viewBox="0 0 24 24">
  <defs>
    <path id="reddit-a" d="M4.653 13.066a2.99 2.99 0 0 0-.068.636c0 2.582 3.301 4.686 7.36 4.686 4.057 0 7.359-2.103 7.359-4.686 0-.206-.022-.41-.062-.607l-.011-.024a.342.342 0 0 1-.022-.124c-.226-.881-.838-1.68-1.722-2.327a.317.317 0 0 1-.094-.053c-.02-.015-.034-.031-.05-.048-1.345-.925-3.267-1.505-5.397-1.505-2.112 0-4.016.569-5.36 1.478a.298.298 0 0 1-.134.093c-.904.646-1.531 1.452-1.765 2.342a.34.34 0 0 1-.028.128l-.006.011zm7.33 4.081c-1.346 0-2.293-.292-2.898-.898a.337.337 0 0 1 0-.474.352.352 0 0 1 .476 0c.473.472 1.264.707 2.421.707 1.157 0 1.944-.225 2.415-.696a.348.348 0 0 1 .471 0 .362.362 0 0 1 0 .483c-.606.606-1.548.899-2.896.899l.01-.021zm-2.705-5.68a1.27 1.27 0 0 0-1.258 1.258c0 .683.573 1.238 1.258 1.238s1.238-.555 1.238-1.238c0-.684-.554-1.258-1.238-1.258zm5.425 0c-.686 0-1.259.574-1.259 1.258 0 .683.573 1.238 1.259 1.238.685 0 1.238-.555 1.238-1.238 0-.684-.555-1.258-1.238-1.258zm3.41-1.196c.778.625 1.35 1.366 1.642 2.178a1.364 1.364 0 1 0-1.642-2.176v-.002zm-13.08-.269a1.364 1.364 0 0 0-.88 2.405c.301-.81.88-1.54 1.66-2.157a1.366 1.366 0 0 0-.78-.247v-.001zm6.913 9.059c-4.43 0-8.032-2.404-8.032-5.356 0-.207.017-.408.051-.607A2.042 2.042 0 0 1 3 11.362a2.043 2.043 0 0 1 3.391-1.523c1.392-.893 3.268-1.455 5.334-1.494l1.36-4.143.302.072.012.001 3.167.745a1.678 1.678 0 0 1 3.222.655c0 .924-.752 1.676-1.673 1.676a1.677 1.677 0 0 1-1.673-1.673l-2.888-.684-1.1 3.358c1.988.079 3.785.64 5.133 1.516.37-.348.858-.54 1.375-.54 1.123 0 2.038.91 2.038 2.034a2.05 2.05 0 0 1-1.033 1.773c.021.192.044.37.044.562-.011 2.953-3.605 5.357-8.04 5.357l-.025.007zM18.08 4.67a1.004 1.004 0 1 0 0 2.009c.549 0 .997-.45.997-1s-.448-1-1.01-1l.013-.009z"/>
  </defs>
  <g fill="none" fill-rule="evenodd">
    <polygon points="0 0 24 0 24 24 0 24"/>
    <mask id="reddit-b" fill="#fff">
      <use xlink:href="#reddit-a"/>
    </mask>
    <use fill="#000" xlink:href="#reddit-a"/>
    <g fill="#000" mask="url(#reddit-b)">
      <rect width="24" height="24"/>
    </g>
  </g>
</svg>
