<svg xmlns="http://www.w3.org/2000/svg" xmlns:xlink="http://www.w3.org/1999/xlink" width="24" height="24" viewBox="0 0 24 24">
  <defs>
    <path id="safari-a" d="M12 21a9 9 0 1 1 0-18 9 9 0 0 1 0 18zm0-.563a8.438 8.438 0 1 0 0-16.875 8.438 8.438 0 0 0 0 16.875zM12 4.5c.104 0 .188.084.188.188v.75a.187.187 0 1 1-.376 0v-.75c0-.104.084-.188.188-.188zm0 13.875c.104 0 .188.084.188.188v.75a.187.187 0 1 1-.376 0v-.75c0-.104.084-.188.188-.188zm5.303-11.678a.188.188 0 0 1 0 .264l-.53.531a.188.188 0 0 1-.265-.265l.53-.53a.188.188 0 0 1 .265 0zm-9.81 9.81a.188.188 0 0 1 0 .266l-.532.53a.188.188 0 1 1-.264-.265l.53-.53a.188.188 0 0 1 .265 0zm-.796-9.81a.188.188 0 0 1 .264 0l.531.53a.188.188 0 1 1-.265.266l-.53-.53a.188.188 0 0 1 0-.266zm9.81 9.81a.188.188 0 0 1 .266 0l.53.531a.188.188 0 1 1-.265.265l-.53-.53a.188.188 0 0 1 0-.265zM4.5 12c0-.104.084-.188.188-.188h.75a.187.187 0 1 1 0 .376h-.75A.187.187 0 0 1 4.5 12zm13.875 0c0-.104.084-.188.188-.188h.75a.187.187 0 1 1 0 .376h-.75a.187.187 0 0 1-.188-.188zM14.93 5.096a.188.188 0 0 1 .1.246l-.293.69a.187.187 0 1 1-.345-.146l.292-.69a.188.188 0 0 1 .246-.1zM9.51 17.87c.095.04.14.15.099.245l-.293.69a.187.187 0 0 1-.345-.146l.293-.69a.188.188 0 0 1 .246-.1zm9.444-8.68a.188.188 0 0 1-.104.245l-.695.28a.188.188 0 1 1-.14-.347l.694-.28a.188.188 0 0 1 .245.103zM6.089 14.388a.188.188 0 0 1-.103.245l-.696.28a.188.188 0 1 1-.14-.347l.695-.281a.188.188 0 0 1 .244.103zM9.19 5.046a.188.188 0 0 1 .244.103l.282.696a.188.188 0 0 1-.348.14l-.281-.695a.188.188 0 0 1 .104-.244zm5.198 12.865a.188.188 0 0 1 .245.103l.28.695a.187.187 0 1 1-.347.142l-.282-.696a.188.188 0 0 1 .104-.244zM5.096 9.07a.188.188 0 0 1 .246-.1l.69.293a.188.188 0 0 1-.146.345l-.69-.292a.188.188 0 0 1-.1-.246zm12.773 5.42a.187.187 0 0 1 .245-.098l.69.292a.188.188 0 1 1-.146.345l-.69-.292a.188.188 0 0 1-.1-.246zm-5.21-1.83l-1.319-1.32-3.106 4.425 4.425-3.107v.001zm4.644-5.963l-4.375 6.23-6.231 4.376 4.375-6.23 6.231-4.376z"/>
  </defs>
  <g fill="none" fill-rule="evenodd">
    <polygon points="0 0 24 0 24 24 0 24"/>
    <mask id="safari-b" fill="#fff">
      <use xlink:href="#safari-a"/>
    </mask>
    <use fill="#000" xlink:href="#safari-a"/>
    <g fill="#000" mask="url(#safari-b)">
      <rect width="24" height="24"/>
    </g>
  </g>
</svg>
