<svg xmlns="http://www.w3.org/2000/svg" xmlns:xlink="http://www.w3.org/1999/xlink" width="24" height="24" viewBox="0 0 24 24">
  <defs>
    <path id="skype-a" d="M12.028 17.155c-3.018 0-4.365-1.484-4.365-2.598 0-.573.42-.972 1-.972 1.292 0 .954 1.858 3.365 1.858 1.23 0 1.912-.671 1.912-1.358 0-.413-.201-.87-1.015-1.072l-2.682-.671c-2.16-.543-2.553-1.715-2.553-2.813 0-2.285 2.146-3.143 4.162-3.143 1.854 0 4.045 1.03 4.045 2.399 0 .588-.516.93-1.09.93-1.101 0-.898-1.528-3.123-1.528-1.101 0-1.719.498-1.719 1.213 0 .714.865.943 1.618 1.115l1.978.44c2.168.487 2.718 1.76 2.718 2.958 0 1.857-1.427 3.243-4.292 3.243m8.313-3.661l-.021.101-.034-.18c.012.034.034.056.045.09.09-.506.136-1.022.136-1.539a8.49 8.49 0 0 0-2.494-6.012 8.611 8.611 0 0 0-2.696-1.82c-.989-.473-2.101-.697-3.247-.697a8.53 8.53 0 0 0-1.607.153l.09.045-.18-.025.09-.019a5 5 0 0 0-5.91.883A5.01 5.01 0 0 0 3 8.037c0 .857.219 1.699.633 2.443l.015-.093.03.18-.044-.087a8.558 8.558 0 0 0 .534 4.778 8.197 8.197 0 0 0 1.82 2.707 8.494 8.494 0 0 0 2.696 1.832 8.305 8.305 0 0 0 3.303.674c.495 0 1-.046 1.483-.135l-.09-.046.18.034-.1.023a4.981 4.981 0 0 0 2.47.653 4.98 4.98 0 0 0 3.55-1.472 5.013 5.013 0 0 0 1.471-3.562 5.08 5.08 0 0 0-.64-2.45"/>
  </defs>
  <g fill="none" fill-rule="evenodd">
    <polygon points="0 0 24 0 24 24 0 24"/>
    <mask id="skype-b" fill="#fff">
      <use xlink:href="#skype-a"/>
    </mask>
    <use fill="#000" xlink:href="#skype-a"/>
    <g fill="#000" mask="url(#skype-b)">
      <rect width="24" height="24"/>
    </g>
  </g>
</svg>
