<svg xmlns="http://www.w3.org/2000/svg" xmlns:xlink="http://www.w3.org/1999/xlink" width="24" height="24" viewBox="0 0 24 24">
  <defs>
    <path id="stack-overflow-a" d="M16.857 19.399v-4.803h1.6V21H4v-6.404h1.598v4.803h11.259zm-9.657-1.6h8.055v-1.604H7.2v1.603zm.194-3.64l7.86 1.642.339-1.553-7.859-1.64-.34 1.551zm1.02-3.792l7.279 3.398.677-1.463-7.28-3.397-.676 1.452v.01zm2.036-3.589l6.163 5.142 1.019-1.215-6.162-5.14-1.013 1.213h-.007zM14.43 3l-1.31.97 4.804 6.454 1.31-.971L14.429 3h.001z"/>
  </defs>
  <g fill="none" fill-rule="evenodd">
    <polygon points="0 0 24 0 24 24 0 24"/>
    <mask id="stack-overflow-b" fill="#fff">
      <use xlink:href="#stack-overflow-a"/>
    </mask>
    <use fill="#000" xlink:href="#stack-overflow-a"/>
    <g fill="#000" mask="url(#stack-overflow-b)">
      <rect width="24" height="24"/>
    </g>
  </g>
</svg>
