<svg xmlns="http://www.w3.org/2000/svg" xmlns:xlink="http://www.w3.org/1999/xlink" width="24" height="24" viewBox="0 0 24 24">
  <defs>
    <path id="tumblr-a" d="M14.085 21c-3.82 0-5.273-2.817-5.273-4.808V10.31H7V7.986c2.723-.985 3.384-3.447 3.533-4.852.01-.096.086-.134.13-.134H13.3v4.585h3.6v2.725h-3.614v5.603c.012.75.281 1.778 1.655 1.778h.067c.474-.015 1.115-.154 1.453-.314l.867 2.569c-.328.476-1.8 1.03-3.117 1.052h-.134l.008.002z"/>
  </defs>
  <g fill="none" fill-rule="evenodd">
    <polygon points="0 0 24 0 24 24 0 24"/>
    <mask id="tumblr-b" fill="#fff">
      <use xlink:href="#tumblr-a"/>
    </mask>
    <use fill="#000" xlink:href="#tumblr-a"/>
    <g fill="#000" mask="url(#tumblr-b)">
      <rect width="24" height="24"/>
    </g>
  </g>
</svg>
