<svg xmlns="http://www.w3.org/2000/svg" xmlns:xlink="http://www.w3.org/1999/xlink" width="24" height="24" viewBox="0 0 24 24">
  <defs>
    <path id="twitter-a" d="M20.965 6.742a7.5 7.5 0 0 1-2.119.581 3.718 3.718 0 0 0 1.622-2.042 7.622 7.622 0 0 1-2.345.888 3.69 3.69 0 0 0-6.288 3.361A10.45 10.45 0 0 1 4.23 5.687c-.32.542-.5 1.17-.5 1.856a3.69 3.69 0 0 0 1.641 3.072 3.678 3.678 0 0 1-1.67-.462v.046c0 1.789 1.27 3.28 2.959 3.62a3.747 3.747 0 0 1-1.66.064 3.702 3.702 0 0 0 3.454 2.563 7.4 7.4 0 0 1-4.577 1.578c-.292 0-.584-.017-.877-.05a10.496 10.496 0 0 0 5.668 1.657c6.79 0 10.498-5.622 10.498-10.49 0-.156 0-.314-.01-.472A7.452 7.452 0 0 0 21 6.758l-.035-.016z"/>
  </defs>
  <g fill="none" fill-rule="evenodd">
    <polygon points="0 0 24 0 24 24 0 24"/>
    <mask id="twitter-b" fill="#fff">
      <use xlink:href="#twitter-a"/>
    </mask>
    <use fill="#000" xlink:href="#twitter-a"/>
    <g fill="#000" mask="url(#twitter-b)">
      <rect width="24" height="24"/>
    </g>
  </g>
</svg>
