<svg xmlns="http://www.w3.org/2000/svg" xmlns:xlink="http://www.w3.org/1999/xlink" width="24" height="24" viewBox="0 0 24 24">
  <defs>
    <path id="viber-a" d="M11.09 3.001c-1.443.02-4.55.257-6.287 1.85-1.29 1.282-1.741 3.172-1.794 5.514-.045 2.332-.097 6.712 4.125 7.906v1.815s-.028.727.452.877c.592.188.93-.374 1.492-.974l1.05-1.185c2.888.24 5.1-.314 5.355-.397.585-.187 3.886-.608 4.426-4.989.555-4.523-.27-7.373-1.755-8.663l-.007-.002c-.45-.412-2.25-1.725-6.278-1.74 0 0-.297-.018-.778-.012zm.051 1.273c.409-.002.66.015.66.015 3.405.008 5.033 1.035 5.416 1.38 1.252 1.072 1.896 3.642 1.425 7.42-.45 3.66-3.128 3.892-3.623 4.05-.21.067-2.16.547-4.614.39 0 0-1.829 2.205-2.399 2.775-.09.097-.195.127-.263.112-.097-.022-.127-.142-.12-.307l.015-3.014c-3.578-.99-3.368-4.727-3.33-6.677.045-1.95.412-3.549 1.5-4.629 1.467-1.327 4.106-1.507 5.332-1.515h.001zm.27 1.95a.224.224 0 1 0 0 .45 4.223 4.223 0 0 1 3.022 1.192c.818.795 1.216 1.86 1.231 3.255 0 .124.101.225.225.225v-.007c.124 0 .225-.1.225-.225a4.838 4.838 0 0 0-1.357-3.57c-.893-.87-2.02-1.32-3.347-1.32h.001zm-2.966.518a.716.716 0 0 0-.46.09h-.01c-.307.18-.59.405-.86.705-.203.24-.317.479-.347.711a.93.93 0 0 0 .038.406l.015.008c.231.68.533 1.333.9 1.95.476.864 1.06 1.663 1.74 2.378l.022.03.03.022.023.023.022.022c.718.681 1.52 1.269 2.385 1.748.99.54 1.592.795 1.952.9v.007c.105.03.201.045.298.045a1.38 1.38 0 0 0 .827-.354 3.38 3.38 0 0 0 .697-.86v-.008c.173-.323.113-.63-.135-.84a10.224 10.224 0 0 0-1.612-1.156c-.383-.21-.773-.082-.93.128l-.338.426c-.172.21-.487.18-.487.18l-.009.008c-2.34-.6-2.963-2.97-2.963-2.97s-.03-.322.188-.487l.42-.337c.202-.165.345-.555.127-.938a10.142 10.142 0 0 0-1.155-1.612.632.632 0 0 0-.378-.225zm3.355.667a.225.225 0 0 0 .002.45c.75.013 1.465.323 1.987.863.476.525.72 1.22.675 1.927 0 .124.101.224.225.224l.008.01a.225.225 0 0 0 .225-.226c.022-.893-.255-1.643-.803-2.243-.547-.6-1.312-.937-2.287-1.005H11.8zm.368 1.214a.23.23 0 0 0-.014.459c.743.037 1.103.412 1.148 1.185a.225.225 0 0 0 .225.217h.007a.225.225 0 0 0 .218-.24c-.053-1.005-.6-1.568-1.575-1.62h-.01z"/>
  </defs>
  <g fill="none" fill-rule="evenodd">
    <polygon points="0 0 24 0 24 24 0 24"/>
    <mask id="viber-b" fill="#fff">
      <use xlink:href="#viber-a"/>
    </mask>
    <use fill="#000" xlink:href="#viber-a"/>
    <g fill="#000" mask="url(#viber-b)">
      <rect width="24" height="24"/>
    </g>
  </g>
</svg>
