<svg xmlns="http://www.w3.org/2000/svg" xmlns:xlink="http://www.w3.org/1999/xlink" width="24" height="24" viewBox="0 0 24 24">
  <defs>
    <path id="vk-a" d="M11.775 17.205h1.078s.325-.036.49-.213c.158-.166.158-.473.158-.473s-.023-1.445.652-1.657c.665-.211 1.509 1.395 2.408 2.012.687.472 1.204.37 1.204.37l2.408-.033s1.261-.078.665-1.07c-.046-.078-.338-.73-1.778-2.07-1.509-1.395-1.307-1.17.507-3.59 1.102-1.473 1.552-2.374 1.406-2.756-.124-.36-.945-.271-.945-.271l-2.701.023s-.203-.023-.349.068c-.146.089-.236.293-.236.293s-.429 1.147-1.002 2.115c-1.217 2.047-1.7 2.159-1.892 2.024-.453-.293-.337-1.185-.337-1.824 0-1.98.303-2.812-.585-3.026-.293-.068-.511-.113-1.264-.125-.968-.01-1.784.008-2.246.234-.304.152-.54.489-.405.506.18.022.585.11.798.403.282.379.27 1.227.27 1.227s.158 2.337-.37 2.627c-.372.196-.867-.21-1.947-2.067-.551-.945-.968-2.003-.968-2.003s-.08-.192-.225-.304c-.17-.124-.417-.169-.417-.169l-2.577.023s-.382.012-.516.18c-.125.146-.012.46-.012.46s2.014 4.716 4.299 7.09c2.092 2.177 4.467 2.037 4.467 2.037l-.038-.041z"/>
  </defs>
  <g fill="none" fill-rule="evenodd">
    <polygon points="0 0 24 0 24 24 0 24"/>
    <mask id="vk-b" fill="#fff">
      <use xlink:href="#vk-a"/>
    </mask>
    <use fill="#000" xlink:href="#vk-a"/>
    <g fill="#000" mask="url(#vk-b)">
      <rect width="24" height="24"/>
    </g>
  </g>
</svg>
