<svg xmlns="http://www.w3.org/2000/svg" xmlns:xlink="http://www.w3.org/1999/xlink" width="24" height="24" viewBox="0 0 24 24">
  <defs>
    <path id="whatsapp-a" d="M16.123 13.787c-.225-.113-1.325-.65-1.53-.725-.204-.076-.354-.112-.504.113-.148.22-.579.723-.708.871-.132.146-.262.158-.485.056-.225-.112-.947-.348-1.802-1.114-.666-.596-1.113-1.327-1.245-1.552-.13-.225-.014-.349.098-.461.102-.101.225-.259.338-.393.11-.135.145-.225.223-.372.075-.157.036-.28-.02-.393-.056-.112-.503-1.215-.69-1.654-.18-.438-.366-.383-.505-.383-.129-.01-.278-.01-.428-.01a.845.845 0 0 0-.598.269c-.204.225-.783.764-.783 1.856 0 1.091.802 2.149.914 2.306.111.146 1.579 2.396 3.825 3.364.535.225.952.36 1.278.472.535.17 1.024.146 1.41.09.43-.068 1.325-.54 1.512-1.07.191-.528.191-.967.135-1.068-.056-.101-.203-.158-.428-.259m-4.084 5.582h-.012a7.503 7.503 0 0 1-3.792-1.035l-.27-.16-2.812.731.754-2.733-.18-.282a7.401 7.401 0 0 1-1.136-3.945c0-4.083 3.34-7.413 7.456-7.413a7.4 7.4 0 0 1 5.266 2.182 7.341 7.341 0 0 1 2.181 5.242c-.003 4.084-3.345 7.414-7.45 7.414M18.39 5.587A9.106 9.106 0 0 0 12.034 3c-4.937 0-8.956 4-8.958 8.92 0 1.572.411 3.105 1.196 4.458L3 21l4.751-1.239a9.047 9.047 0 0 0 4.283 1.085h.004c4.939 0 8.96-4.002 8.962-8.922 0-2.382-.93-4.623-2.621-6.308"/>
  </defs>
  <g fill="none" fill-rule="evenodd">
    <polygon points="0 0 24 0 24 24 0 24"/>
    <mask id="whatsapp-b" fill="#fff">
      <use xlink:href="#whatsapp-a"/>
    </mask>
    <use fill="#000" xlink:href="#whatsapp-a"/>
    <g fill="#000" mask="url(#whatsapp-b)">
      <rect width="24" height="24"/>
    </g>
  </g>
</svg>
