<svg xmlns="http://www.w3.org/2000/svg" xmlns:xlink="http://www.w3.org/1999/xlink" width="24" height="24" viewBox="0 0 24 24">
  <defs>
    <path id="wordpress-a" d="M19.102 8.119A8.068 8.068 0 0 1 20.09 12a8.087 8.087 0 0 1-4.022 6.994l2.471-7.146c.461-1.155.615-2.078.615-2.898 0-.303-.02-.584-.052-.832zm-5.986.078c.485-.023.924-.079.924-.079.437-.056.386-.698-.05-.674 0 0-1.316.101-2.16.101-.798 0-2.138-.112-2.138-.112-.438-.023-.495.64-.056.663 0 0 .405.046.844.068l1.26 3.454-1.778 5.31-2.946-8.753c.486-.023.925-.075.925-.075.439-.056.387-.697-.049-.672 0 0-1.31.104-2.155.104-.15 0-.329-.006-.518-.012C6.683 5.363 9.176 3.911 12 3.911c2.107 0 4.024.804 5.465 2.125-.035-.002-.069-.007-.106-.007-.795 0-1.36.692-1.36 1.436 0 .667.385 1.232.796 1.898.308.54.667 1.232.667 2.233 0 .686-.265 1.495-.616 2.609l-.806 2.689-2.925-8.708.001.01zM12 20.088c-.794 0-1.56-.115-2.286-.328l2.428-7.054 2.486 6.815a.99.99 0 0 0 .059.112A8.098 8.098 0 0 1 12 20.09v-.002zM3.908 12a8.05 8.05 0 0 1 .701-3.293l3.858 10.575A8.096 8.096 0 0 1 3.908 12zM12 3c-4.961 0-9 4.039-9 9s4.039 9 9 9 9-4.039 9-9-4.039-9-9-9z"/>
  </defs>
  <g fill="none" fill-rule="evenodd">
    <polygon points="0 0 24 0 24 24 0 24"/>
    <mask id="wordpress-b" fill="#fff">
      <use xlink:href="#wordpress-a"/>
    </mask>
    <use fill="#000" xlink:href="#wordpress-a"/>
    <g fill="#000" mask="url(#wordpress-b)">
      <rect width="24" height="24"/>
    </g>
  </g>
</svg>
