<svg xmlns="http://www.w3.org/2000/svg" xmlns:xlink="http://www.w3.org/1999/xlink" width="24" height="24" viewBox="0 0 24 24">
  <defs>
    <path id="yandex-a" d="M4.426 15.582v-2.138L3 9.62h.718l1.05 2.953L5.978 9h.657l-1.551 4.47v2.111h-.657v.001zm4.229 0h-.55a1.953 1.953 0 0 1-.057-.335h-.043c-.184.235-.419.393-.788.393-.598 0-1.008-.45-1.008-1.277 0-.9.459-1.467 1.635-1.467h.092v-.25c0-.552-.184-.786-.55-.786-.335 0-.619.175-.835.367l-.125-.574c.192-.16.574-.335 1.002-.335.743 0 1.15.318 1.15 1.335v1.977c0 .4.041.752.075.95l.002.002zm-.716-2.194h-.076c-.81 0-.985.36-.985.9 0 .484.158.8.492.8.224 0 .45-.15.567-.333l.002-1.367zm2.101 2.194h-.65v-4.216h.651v.369h.042c.116-.158.434-.417.826-.417.549 0 .84.309.84.95v3.314h-.658v-3.255c0-.317-.14-.428-.393-.428-.273 0-.506.21-.657.42v3.263zm2.352-1.944c0-1.56.585-2.32 1.425-2.32.201 0 .409.067.535.158V9.619h.652v5.962h-.484l-.052-.333h-.041c-.184.234-.417.39-.76.39-.825 0-1.274-.7-1.274-2h-.002zm1.96-1.586a.636.636 0 0 0-.491-.2c-.525 0-.777.793-.777 1.652 0 .985.185 1.585.661 1.585.327 0 .5-.16.609-.326v-2.711h-.001zm2.704 3.588c-.867 0-1.402-.693-1.402-1.985 0-1.353.376-2.337 1.268-2.337.7 0 1.157.526 1.157 1.953v.359h-1.748c0 .95.267 1.451.784 1.451.367 0 .635-.166.801-.284l.15.5a1.58 1.58 0 0 1-1.009.343h-.001zm-.718-2.545h1.076c0-.718-.116-1.243-.492-1.243-.399 0-.54.493-.585 1.243h.001zm4.571-1.719l-.784 1.969.875 2.237h-.674l-.653-1.736-.633 1.735h-.64l.874-2.178-.792-2.026h.675l.546 1.526.573-1.527h.635z"/>
  </defs>
  <g fill="none" fill-rule="evenodd">
    <polygon points="0 0 24 0 24 24 0 24"/>
    <mask id="yandex-b" fill="#fff">
      <use xlink:href="#yandex-a"/>
    </mask>
    <use fill="#000" xlink:href="#yandex-a"/>
    <g fill="#000" mask="url(#yandex-b)">
      <rect width="24" height="24"/>
    </g>
  </g>
</svg>
