<svg xmlns="http://www.w3.org/2000/svg" xmlns:xlink="http://www.w3.org/1999/xlink" width="24" height="24" viewBox="0 0 24 24">
  <defs>
    <path id="youtube-a" d="M20.624 7.942a2.256 2.256 0 0 0-1.566-1.566C17.655 6 12.008 6 12.008 6s-5.632-.007-7.05.376a2.256 2.256 0 0 0-1.566 1.566A23.458 23.458 0 0 0 3 12.298a23.458 23.458 0 0 0 .392 4.339c.212.76.806 1.354 1.567 1.566 1.401.377 7.05.377 7.05.377s5.63 0 7.049-.377a2.256 2.256 0 0 0 1.566-1.566c.26-1.432.385-2.884.375-4.34a23.383 23.383 0 0 0-.375-4.355zm-10.418 7.05V9.595l4.7 2.703-4.7 2.694z"/>
  </defs>
  <g fill="none" fill-rule="evenodd">
    <polygon points="0 0 24 0 24 24 0 24"/>
    <mask id="youtube-b" fill="#fff">
      <use xlink:href="#youtube-a"/>
    </mask>
    <use fill="#000" xlink:href="#youtube-a"/>
    <g fill="#000" mask="url(#youtube-b)">
      <rect width="24" height="24"/>
    </g>
  </g>
</svg>
