<svg xmlns="http://www.w3.org/2000/svg" width="24" height="24" viewBox="0 0 24 24">
  <path fill-rule="evenodd" d="M22,4 L2,4 L2,20 L22,20 L22,4 Z M8.5,15 L7.3,15 L4.75,11.5 L4.75,15 L3.5,15 L3.5,9 L4.75,9 L7.25,12.5 L7.25,9 L8.5,9 L8.5,15 Z M13.5,10.26 L11,10.26 L11,11.38 L13.5,11.38 L13.5,12.64 L11,12.64 L11,13.75 L13.5,13.75 L13.5,15 L9.5,15 L9.5,9 L13.5,9 L13.5,10.26 Z M20.5,15 L14.5,15 L14.5,9 L15.75,9 L15.75,13.51 L16.88,13.51 L16.88,9.99 L18.13,9.99 L18.13,13.5 L19.25,13.5 L19.25,9 L20.5,9 L20.5,15 Z"/>
</svg>
