<svg xmlns="http://www.w3.org/2000/svg" width="24" height="24" viewBox="0 0 24 24">
  <path fill-rule="evenodd" d="M22.5,2.25 L0.5,2.25 L0.5,18.25 L7.5,18.25 L7.5,20.25 L15.5,20.25 L15.5,18.25 L17.5,18.25 L17.5,16.25 L2.5,16.25 L2.5,4.25 L20.5,4.25 L20.5,12.25 L22.5,12.25 L22.5,2.25 Z M12.5,9.25 L12.5,6.25 L10.5,6.25 L10.5,9.25 L7.5,9.25 L7.5,11.25 L10.5,11.25 L10.5,14.25 L12.5,14.25 L12.5,11.25 L15.5,11.25 L15.5,9.25 L12.5,9.25 Z M23.5,17.25 L19,21.75 L17.5,20.25 L20.5,17.25 L17.5,14.25 L19,12.75 L23.5,17.25 Z"/>
</svg>
