<svg xmlns="http://www.w3.org/2000/svg" width="24" height="24" viewBox="0 0 24 24">
  <path fill-rule="evenodd" d="M14,3.25214879 L4,13.2511132 L4,17.0007249 L7.75,17.0007249 L17.75,7.00176046 L14,3.25214879 Z M6.92,15.000932 L6,15.000932 L6,14.0810273 L14,6.08185573 L14.92,7.00176046 L6.92,15.000932 Z M20.71,4.04206698 C21.1,3.65210737 21.1,3.02217261 20.71,2.632213 L18.37,0.292455317 C18.1831685,0.105222035 17.9295176,0 17.665,0 C17.4004824,0 17.1468315,0.105222035 16.96,0.292455317 L15,2.25225235 L18.75,6.00186401 L20.71,4.04206698 Z M0,20.0004142 L24,20.0004142 L24,24 L0,24 L0,20.0004142 Z"/>
</svg>
