<svg xmlns="http://www.w3.org/2000/svg" width="24" height="24" viewBox="0 0 24 24">
  <path fill-rule="evenodd" d="M18.5,17 L20.5,17 L20.5,17.5 L19.5,17.5 L19.5,18.5 L20.5,18.5 L20.5,19 L18.5,19 L18.5,20 L21.5,20 L21.5,16 L18.5,16 L18.5,17 Z M19.5,8 L20.5,8 L20.5,4 L18.5,4 L18.5,5 L19.5,5 L19.5,8 Z M18.5,11 L20.3,11 L18.5,13.1 L18.5,14 L21.5,14 L21.5,13 L19.7,13 L21.5,10.9 L21.5,10 L18.5,10 L18.5,11 Z M2.5,5 L16.5,5 L16.5,7 L2.5,7 L2.5,5 Z M2.5,17 L16.5,17 L16.5,19 L2.5,19 L2.5,17 Z M2.5,11 L16.5,11 L16.5,13 L2.5,13 L2.5,11 Z"/>
</svg>
