<svg xmlns="http://www.w3.org/2000/svg" width="24" height="24" viewBox="0 0 24 24">
  <path fill-rule="evenodd" d="M6.001,14 L9.001,17 L9.001,22 L15.001,22 L15.001,17 L18.001,14 L18.001,9 L6.001,9 L6.001,14 Z M8.001,11 L16.001,11 L16.001,13.17 L13.001,16.17 L13.001,20 L11.001,20 L11.001,16.17 L8.001,13.17 L8.001,11 Z M11.001,2 L13.001,2 L13.001,5 L11.001,5 L11.001,2 Z M3.5032,5.8742 L4.9168,4.4594 L7.039,6.5798 L5.6254,7.9946 L3.5032,5.8742 Z M16.9608,6.5824 L19.0836,4.4626 L20.4968,5.8778 L18.374,7.9976 L16.9608,6.5824 Z"/>
</svg>
