<svg xmlns="http://www.w3.org/2000/svg" width="24" height="24" viewBox="0 0 24 24">
  <path fill-rule="evenodd" d="M12.425,6.9 C14.205,6.9 14.865,7.75 14.925,9 L17.135,9 C17.065,7.28 16.015,5.7 13.925,5.19 L13.925,3 L10.925,3 L10.925,5.16 C10.535,5.24 10.175,5.37 9.825,5.52 L11.335,7.03 C11.655,6.95 12.025,6.9 12.425,6.9 Z M5.395,3.92 L3.985,5.33 L7.425,8.77 C7.425,10.85 8.985,11.99 11.335,12.68 L14.845,16.19 C14.505,16.68 13.795,17.1 12.425,17.1 C10.365,17.1 9.555,16.18 9.445,15 L7.245,15 C7.365,17.19 9.005,18.42 10.925,18.83 L10.925,21 L13.925,21 L13.925,18.85 C14.885,18.67 15.755,18.3 16.385,17.73 L18.605,19.95 L20.015,18.54 L5.395,3.92 Z"/>
</svg>
