<svg xmlns="http://www.w3.org/2000/svg" width="24" height="24" viewBox="0 0 24 24">
  <path fill-rule="evenodd" d="M19,3 L5,3 C3.9,3 3,3.9 3,5 L3,19 C3,20.1 3.9,21 5,21 L19,21 C20.1,21 21,20.1 21,19 L21,5 C21,3.9 20.1,3 19,3 Z M19,19 L5,19 L9,15 L13,19 L19,13 L19,19 Z M19,10.5 L13,16.5 L9,12.5 L5,16.5 L5,5 L19,5 L19,10.5 Z M13.5,9 L13.5,6 L12,6 L12,12 L13.5,12 L13.5,9 Z M17.2,12 L15.2,9 L17.2,6 L15.5,6 L13.5,9 L15.5,12 L17.2,12 Z M11,10.5 L8.5,10.5 L8.5,9.75 L11,9.75 L11,6 L7,6 L7,7.5 L9.5,7.5 L9.5,8.25 L7,8.25 L7,12 L11,12 L11,10.5 Z"/>
</svg>
