<svg xmlns="http://www.w3.org/2000/svg" width="24" height="24" viewBox="0 0 24 24">
  <path fill-rule="evenodd" d="M22,10.5 L22,12.5 L9,12.5 L9,8.5 C9,7.4 9.9,6.5 11,6.5 L18,6.5 C20.21,6.5 22,8.29 22,10.5 Z M2,14.5 C2,15.05 2.45,15.5 3,15.5 L8,15.5 L8,16.5 C8,17.05 8.45,17.5 9,17.5 L15,17.5 C15.55,17.5 16,17.05 16,16.5 L16,15.5 L21,15.5 C21.55,15.5 22,15.05 22,14.5 C22,13.95 21.55,13.5 21,13.5 L3,13.5 C2.45,13.5 2,13.95 2,14.5 Z M7.14,11.6 C8.3,10.41 8.28,8.52 7.1,7.36 C5.91,6.2 4.02,6.22 2.86,7.4 C1.7,8.59 1.72,10.48 2.9,11.64 C4.09,12.8 5.98,12.78 7.14,11.6 L7.14,11.6 Z"/>
</svg>
