<svg xmlns="http://www.w3.org/2000/svg" width="24" height="24" viewBox="0 0 24 24">
  <path fill-rule="evenodd" d="M18,13.0006309 L17.32,13.0006309 L15.32,15.0006309 L17.23,15.0006309 L19,17.0006309 L5,17.0006309 L6.78,15.0006309 L8.83,15.0006309 L6.83,13.0006309 L6,13.0006309 L3,16.0006309 L3,20.0006309 C3,21.1006309 3.89,22.0006309 4.99,22.0006309 L19,22.0006309 C20.1,22.0006309 21,21.1106309 21,20.0006309 L21,16.0006309 L18,13.0006309 Z M19,20.0006309 L5,20.0006309 L5,19.0006309 L19,19.0006309 L19,20.0006309 Z M11.34,15.0206309 C11.73,15.4106309 12.36,15.4106309 12.75,15.0206309 L19.11,8.66063093 C19.5,8.27063093 19.5,7.64063093 19.11,7.25063093 L14.16,2.30063093 C13.78,1.90063093 13.15,1.90063093 12.76,2.29063093 L6.39,8.66063093 C6,9.05063093 6,9.68063093 6.39,10.0706309 L11.34,15.0206309 Z M13.46,4.41063093 L17,7.95063093 L12.05,12.9006309 L8.51,9.36063093 L13.46,4.41063093 Z"/>
</svg>
