<svg xmlns="http://www.w3.org/2000/svg" width="24" height="24" viewBox="0 0 24 24">
  <path fill-rule="evenodd" d="M11,18 L15,14 L11,10 L10,11 L13,14 L10,17 L11,18 Z M20,6.5 L16,6.5 L16,4.5 C16,3.95 15.78,3.45 15.41,3.09 C15.05,2.72 14.55,2.5 14,2.5 L10,2.5 C8.9,2.5 8,3.4 8,4.5 L8,6.5 L4,6.5 C2.9,6.5 2,7.4 2,8.5 L2,19.5 C2,20.6 2.9,21.5 4,21.5 L20,21.5 C21.1,21.5 22,20.6 22,19.5 L22,8.5 C22,7.4 21.1,6.5 20,6.5 Z M10,4.5 L14,4.5 L14,6.5 L10,6.5 L10,4.5 Z M20,19.5 L4,19.5 L4,8.5 L20,8.5 L20,19.5 Z"/>
</svg>
