<svg xmlns="http://www.w3.org/2000/svg" width="24" height="24" viewBox="0 0 24 24">
  <path fill-rule="evenodd" d="M12,0.755 C7.59,0.755 4,4.345 4,8.755 C4,14.325 10.96,22.095 11.26,22.425 L12,23.245 L12.74,22.425 C13.04,22.095 20,14.325 20,8.755 C20,4.345 16.41,0.755 12,0.755 Z M12,20.225 C9.82,17.615 6,12.295 6,8.755 C6,5.445 8.69,2.755 12,2.755 C15.31,2.755 18,5.445 18,8.755 C18,12.585 13.75,18.115 12,20.225 Z M10.47,10.925 L8.71,9.155 L7.29,10.575 L10.47,13.755 L16.48,7.745 L15.07,6.325 L10.47,10.925 Z"/>
</svg>
