<svg xmlns="http://www.w3.org/2000/svg" width="24" height="24" viewBox="0 0 24 24">
  <path fill-rule="evenodd" d="M21,1.5 L3,1.5 L3,19.5 L9,19.5 L12,22.5 L15,19.5 L21,19.5 L21,1.5 Z M13,17.5 L11,17.5 L11,15.5 L13,15.5 L13,17.5 Z M15.07,9.75 L14.17,10.67 C13.45,11.4 13,12 13,13.5 L11,13.5 L11,13 C11,11.9 11.45,10.9 12.17,10.17 L13.41,8.91 C13.78,8.55 14,8.05 14,7.5 C14,6.4 13.1,5.5 12,5.5 C10.9,5.5 10,6.4 10,7.5 L8,7.5 C8,5.29 9.79,3.5 12,3.5 C14.21,3.5 16,5.29 16,7.5 C16,8.38 15.64,9.18 15.07,9.75 Z"/>
</svg>
