<svg xmlns="http://www.w3.org/2000/svg" width="24" height="24" viewBox="0 0 24 24">
  <path fill-rule="evenodd" d="M21.16,6.725 L19.75,5.315 L16.19,8.865 L17.6,10.275 C17.6,10.275 21.05,6.755 21.16,6.725 Z M11,2.465 L13,2.465 L13,7.465 L11,7.465 L11,2.465 Z M6.4,10.275 L7.81,8.865 L4.26,5.305 L2.84,6.725 C2.95,6.755 6.4,10.275 6.4,10.275 L6.4,10.275 Z M0,17.855 L3.68,21.535 L7.6,18.425 L7.6,15.055 C10.45,14.125 13.54,14.125 16.4,15.055 L16.4,18.435 L20.31,21.535 L24,17.855 C17.59,10.665 6.41,10.665 0,17.855 Z"/>
</svg>
