<svg xmlns="http://www.w3.org/2000/svg" xmlns:xlink="http://www.w3.org/1999/xlink" width="100" height="100" viewBox="0 0 100 100">
  <defs>
    <path id="1-project-logo-a" d="M5.898 73V25.756h9.282l19.336 31.55v-31.55h8.862V73h-9.571L14.76 42.191V73H5.898zm45.633-23.332c0-4.813.72-8.852 2.16-12.117a22.235 22.235 0 0 1 4.398-6.478c1.859-1.912 3.894-3.33 6.107-4.254 2.944-1.246 6.338-1.869 10.184-1.869 6.96 0 12.53 2.16 16.71 6.478 4.178 4.318 6.267 10.323 6.267 18.014 0 7.627-2.073 13.595-6.22 17.902-4.146 4.308-9.689 6.462-16.628 6.462-7.026 0-12.612-2.143-16.758-6.43-4.147-4.286-6.22-10.188-6.22-17.708zm9.83-.322c0 5.35 1.235 9.404 3.705 12.165 2.471 2.761 5.608 4.141 9.41 4.141 3.803 0 6.924-1.37 9.362-4.109 2.439-2.739 3.658-6.848 3.658-12.326 0-5.414-1.187-9.453-3.56-12.117-2.375-2.664-5.528-3.996-9.46-3.996-3.931 0-7.1 1.348-9.506 4.044-2.407 2.696-3.61 6.762-3.61 12.198z"/>
  </defs>
  <g fill="none" fill-rule="evenodd">
    <rect width="100" height="100"/>
    <mask id="1-project-logo-b" fill="#fff">
      <use xlink:href="#1-project-logo-a"/>
    </mask>
    <use fill="#000" fill-rule="nonzero" xlink:href="#1-project-logo-a"/>
    <g fill="#000" mask="url(#1-project-logo-b)">
      <rect width="100" height="100"/>
    </g>
  </g>
</svg>
