<svg xmlns="http://www.w3.org/2000/svg" xmlns:xlink="http://www.w3.org/1999/xlink" width="238" height="100" viewBox="0 0 238 100">
  <defs>
    <path id="1-project-logo-with-text-a" d="M5.898 73V25.756h9.282l19.336 31.55v-31.55h8.862V73h-9.571L14.76 42.191V73H5.898zm45.633-23.332c0-4.813.72-8.852 2.16-12.117a22.235 22.235 0 0 1 4.398-6.478c1.859-1.912 3.894-3.33 6.107-4.254 2.944-1.246 6.338-1.869 10.184-1.869 6.96 0 12.53 2.16 16.71 6.478 4.178 4.318 6.267 10.323 6.267 18.014 0 7.627-2.073 13.595-6.22 17.902-4.146 4.308-9.689 6.462-16.628 6.462-7.026 0-12.612-2.143-16.758-6.43-4.147-4.286-6.22-10.188-6.22-17.708zm9.83-.322c0 5.35 1.235 9.404 3.705 12.165 2.471 2.761 5.608 4.141 9.41 4.141 3.803 0 6.924-1.37 9.362-4.109 2.439-2.739 3.658-6.848 3.658-12.326 0-5.414-1.187-9.453-3.56-12.117-2.375-2.664-5.528-3.996-9.46-3.996-3.931 0-7.1 1.348-9.506 4.044-2.407 2.696-3.61 6.762-3.61 12.198z"/>
    <path id="1-project-logo-with-text-c" d="M24 65.121V36.723h5.781v23.574h14.375v4.824H24zm23.105-14.14c0-2.917.437-5.365 1.31-7.344a13.476 13.476 0 0 1 2.665-3.926c1.126-1.159 2.36-2.018 3.701-2.578C56.565 36.378 58.622 36 60.953 36c4.219 0 7.595 1.309 10.127 3.926 2.533 2.617 3.799 6.256 3.799 10.918 0 4.622-1.257 8.239-3.77 10.85-2.513 2.61-5.872 3.915-10.078 3.915-4.258 0-7.643-1.298-10.156-3.896-2.513-2.598-3.77-6.175-3.77-10.733zm5.958-.196c0 3.242.748 5.7 2.246 7.373 1.497 1.673 3.398 2.51 5.703 2.51 2.304 0 4.196-.83 5.674-2.49 1.477-1.66 2.216-4.15 2.216-7.471 0-3.281-.72-5.73-2.158-7.344-1.439-1.614-3.35-2.422-5.732-2.422-2.383 0-4.304.817-5.762 2.452-1.458 1.634-2.188 4.098-2.188 7.392zm39.648 3.809V49.77h12.46v11.406c-1.21 1.172-2.965 2.204-5.263 3.095-2.298.892-4.625 1.338-6.982 1.338-2.995 0-5.606-.628-7.832-1.884-2.227-1.257-3.9-3.054-5.02-5.391-1.12-2.337-1.68-4.88-1.68-7.627 0-2.982.626-5.631 1.876-7.95 1.25-2.317 3.079-4.094 5.488-5.331 1.836-.95 4.12-1.426 6.855-1.426 3.555 0 6.332.745 8.33 2.236 2 1.491 3.285 3.552 3.858 6.182l-5.742 1.074c-.404-1.406-1.163-2.516-2.276-3.33-1.113-.814-2.503-1.22-4.17-1.22-2.526 0-4.534.8-6.025 2.402-1.491 1.601-2.236 3.978-2.236 7.129 0 3.398.755 5.947 2.265 7.646 1.51 1.7 3.49 2.549 5.938 2.549 1.21 0 2.425-.238 3.642-.713 1.218-.475 2.263-1.051 3.135-1.728v-3.633h-6.621zm16.621-3.614c0-2.916.436-5.364 1.309-7.343a13.476 13.476 0 0 1 2.666-3.926c1.126-1.159 2.36-2.018 3.7-2.578 1.785-.755 3.842-1.133 6.173-1.133 4.218 0 7.594 1.309 10.127 3.926 2.532 2.617 3.798 6.256 3.798 10.918 0 4.622-1.256 8.239-3.77 10.85-2.512 2.61-5.871 3.915-10.077 3.915-4.258 0-7.643-1.298-10.156-3.896-2.513-2.598-3.77-6.175-3.77-10.733zm5.957-.195c0 3.242.749 5.7 2.246 7.373 1.498 1.673 3.399 2.51 5.703 2.51 2.305 0 4.196-.83 5.674-2.49 1.478-1.66 2.217-4.15 2.217-7.471 0-3.281-.72-5.73-2.158-7.344-1.44-1.614-3.35-2.422-5.733-2.422-2.383 0-4.303.817-5.761 2.452-1.459 1.634-2.188 4.098-2.188 7.392z"/>
  </defs>
  <g fill="none" fill-rule="evenodd">
    <rect width="100" height="100"/>
    <mask id="1-project-logo-with-text-b" fill="#fff">
      <use xlink:href="#1-project-logo-with-text-a"/>
    </mask>
    <use fill="#000" fill-rule="nonzero" xlink:href="#1-project-logo-with-text-a"/>
    <g fill="#000" mask="url(#1-project-logo-with-text-b)">
      <rect width="100" height="100"/>
    </g>
    <g transform="translate(100 -1)">
      <mask id="1-project-logo-with-text-d" fill="#fff">
        <use xlink:href="#1-project-logo-with-text-c"/>
      </mask>
      <use fill="#000" fill-rule="nonzero" xlink:href="#1-project-logo-with-text-c"/>
      <g fill="#000" mask="url(#1-project-logo-with-text-d)">
        <rect width="138" height="100" transform="translate(0 .805)"/>
      </g>
    </g>
  </g>
</svg>
