<svg xmlns="http://www.w3.org/2000/svg" width="24" height="24" viewBox="0 0 24 24">
  <path fill-rule="evenodd" d="M7.58,3.83 L6.15,2.4 C3.75,4.23 2.17,7.05 2.03,10.25 L4.03,10.25 C4.18,7.6 5.54,5.28 7.58,3.83 L7.58,3.83 Z M19.97,10.25 L21.97,10.25 C21.82,7.05 20.24,4.23 17.85,2.4 L16.43,3.83 C18.45,5.28 19.82,7.6 19.97,10.25 Z M18,10.75 C18,7.68 16.36,5.11 13.5,4.43 L13.5,2.25 L10.5,2.25 L10.5,4.43 C7.63,5.11 6,7.67 6,10.75 L6,15.75 L4,17.75 L4,18.75 L20,18.75 L20,17.75 L18,15.75 L18,10.75 Z M12,21.75 C12.14,21.75 12.27,21.74 12.4,21.71 C13.05,21.57 13.58,21.13 13.84,20.53 C13.94,20.29 13.99,20.03 13.99,19.75 L9.99,19.75 C10,20.85 10.89,21.75 12,21.75 Z"/>
</svg>
