<svg xmlns="http://www.w3.org/2000/svg" width="24" height="24" viewBox="0 0 24 24">
  <path fill-rule="evenodd" d="M19.0714286,3 L4.92857143,3 C3.86345084,3 3,3.86345084 3,4.92857143 L3,19.0714286 C3,20.1365492 3.86345084,21 4.92857143,21 L10.4430804,21 L10.4430804,14.8804018 L7.91183036,14.8804018 L7.91183036,12 L10.4430804,12 L10.4430804,9.80464286 C10.4430804,7.30754464 11.9296875,5.92821429 14.2066071,5.92821429 C15.2970536,5.92821429 16.4373214,6.12267857 16.4373214,6.12267857 L16.4373214,8.57357143 L15.1809375,8.57357143 C13.9430357,8.57357143 13.5569196,9.34178571 13.5569196,10.1296875 L13.5569196,12 L16.3204018,12 L15.8784375,14.8804018 L13.5569196,14.8804018 L13.5569196,21 L19.0714286,21 C20.1365492,21 21,20.1365492 21,19.0714286 L21,4.92857143 C21,3.86345084 20.1365492,3 19.0714286,3 L19.0714286,3 Z"/>
</svg>
