<svg xmlns="http://www.w3.org/2000/svg" width="24" height="24" viewBox="0 0 24 24">
  <path fill-rule="evenodd" d="M12.004,7.4 C9.46,7.4 7.408,9.452 7.408,11.996 C7.408,14.54 9.46,16.592 12.004,16.592 C14.548,16.592 16.6,14.54 16.6,11.996 C16.6,9.452 14.548,7.4 12.004,7.4 Z M12.004,14.984 C10.36,14.984 9.016,13.644 9.016,11.996 C9.016,10.348 10.356,9.008 12.004,9.008 C13.652,9.008 14.992,10.348 14.992,11.996 C14.992,13.644 13.648,14.984 12.004,14.984 L12.004,14.984 Z M17.86,7.212 C17.86,7.808 17.38,8.284 16.788,8.284 C16.192,8.284 15.716,7.804 15.716,7.212 C15.716,6.62 16.196,6.14 16.788,6.14 C17.38,6.14 17.86,6.62 17.86,7.212 Z M20.904,8.3 C20.836,6.864 20.508,5.592 19.456,4.544 C18.408,3.496 17.136,3.168 15.7,3.096 C14.22,3.012 9.784,3.012 8.304,3.096 C6.872,3.164 5.6,3.492 4.548,4.54 C3.496,5.588 3.172,6.86 3.1,8.296 C3.016,9.776 3.016,14.212 3.1,15.692 C3.168,17.128 3.496,18.4 4.548,19.448 C5.6,20.496 6.868,20.824 8.304,20.896 C9.784,20.98 14.22,20.98 15.7,20.896 C17.136,20.828 18.408,20.5 19.456,19.448 C20.504,18.4 20.832,17.128 20.904,15.692 C20.988,14.212 20.988,9.78 20.904,8.3 Z M18.992,17.28 C18.68,18.064 18.076,18.668 17.288,18.984 C16.108,19.452 13.308,19.344 12.004,19.344 C10.7,19.344 7.896,19.448 6.72,18.984 C5.936,18.672 5.332,18.068 5.016,17.28 C4.548,16.1 4.656,13.3 4.656,11.996 C4.656,10.692 4.552,7.888 5.016,6.712 C5.328,5.928 5.932,5.324 6.72,5.008 C7.9,4.54 10.7,4.648 12.004,4.648 C13.308,4.648 16.112,4.544 17.288,5.008 C18.072,5.32 18.676,5.924 18.992,6.712 C19.46,7.892 19.352,10.692 19.352,11.996 C19.352,13.3 19.46,16.104 18.992,17.28 Z"/>
</svg>
