<svg xmlns="http://www.w3.org/2000/svg" width="24" height="24" viewBox="0 0 24 24">
  <path fill-rule="evenodd" d="M16.4421053,14.7192982 C15.4807018,15.3298246 14.1578947,15.5719298 13.2842105,15.6631579 L14.0175439,16.3859649 L16.6947368,19.0631579 C17.6736842,20.0666667 16.0807018,21.6350877 15.0912281,20.6666667 C14.4210526,19.9859649 13.4385965,19.0035088 12.4140351,17.9789474 L9.73684211,20.6631579 C8.74736842,21.6280702 7.15438596,20.045614 8.14385965,19.0596491 C8.8245614,18.3789474 9.79649123,17.3964912 10.8210526,16.3824561 L11.5438596,15.6596491 C10.6807018,15.5684211 9.33684211,15.3403509 8.36491228,14.7157895 C7.22105263,13.9789474 6.71929825,13.5473684 7.16140351,12.645614 C7.42105263,12.1333333 8.13333333,11.7017544 9.07719298,12.445614 C9.07719298,12.445614 10.3508772,13.4596491 12.4070175,13.4596491 C14.4631579,13.4596491 15.7368421,12.445614 15.7368421,12.445614 C16.6807018,11.7052632 17.3894737,12.1333333 17.6526316,12.645614 C18.0877193,13.5473684 17.5859649,13.9789474 16.4421053,14.7192982 Z M7.85263158,7.55087719 C7.85263158,5.03508772 9.89824561,3 12.4035088,3 C14.9087719,3 16.954386,5.03508772 16.954386,7.55087719 C16.954386,10.0561404 14.9087719,12.0912281 12.4035088,12.0912281 C9.89824561,12.0912281 7.85263158,10.0561404 7.85263158,7.55087719 Z M10.1684211,7.55087719 C10.1684211,8.78245614 11.1719298,9.78596491 12.4035088,9.78596491 C13.6350877,9.78596491 14.6385965,8.78245614 14.6385965,7.55087719 C14.6385965,6.30877193 13.6350877,5.30526316 12.4035088,5.30526316 C11.1719298,5.30526316 10.1684211,6.30877193 10.1684211,7.55087719 Z"/>
</svg>
