<svg xmlns="http://www.w3.org/2000/svg" width="24" height="24" viewBox="0 0 24 24">
  <path fill-rule="evenodd" d="M21,12 C21,16.9717742 16.9717742,21 12,21 C11.0709677,21 10.1782258,20.8584677 9.33629032,20.5971774 C9.70282258,19.9983871 10.2508065,19.0185484 10.4540323,18.2383065 C10.5629032,17.8173387 11.0129032,16.0971774 11.0129032,16.0971774 C11.3068548,16.6560484 12.1633065,17.1314516 13.0741935,17.1314516 C15.7887097,17.1314516 17.7447581,14.6346774 17.7447581,11.5318548 C17.7447581,8.55967742 15.3169355,6.33508065 12.1959677,6.33508065 C8.31290323,6.33508065 6.24798387,8.94072581 6.24798387,11.7822581 C6.24798387,13.1032258 6.95201613,14.7471774 8.0733871,15.2697581 C8.24395161,15.3495968 8.33467742,15.3133065 8.37459677,15.15 C8.40362903,15.0266129 8.55604839,14.4133065 8.625,14.1302419 C8.64677419,14.0395161 8.6358871,13.9596774 8.56330645,13.8725806 C8.19677419,13.4189516 7.89919355,12.5915323 7.89919355,11.8185484 C7.89919355,9.83346774 9.4016129,7.91370968 11.9637097,7.91370968 C14.1737903,7.91370968 15.7233871,9.41975806 15.7233871,11.5754032 C15.7233871,14.0104839 14.4931452,15.6979839 12.8927419,15.6979839 C12.0108871,15.6979839 11.3467742,14.9685484 11.5608871,14.0721774 C11.8149194,13.0016129 12.3048387,11.8475806 12.3048387,11.0745968 C12.3048387,10.3850806 11.9346774,9.80806452 11.1653226,9.80806452 C10.2616935,9.80806452 9.5358871,10.7407258 9.5358871,11.9927419 C9.5358871,12.791129 9.80443548,13.3282258 9.80443548,13.3282258 C9.80443548,13.3282258 8.91532258,17.0951613 8.75201613,17.7991935 C8.57056452,18.5758065 8.64314516,19.6717742 8.71935484,20.3830645 C5.3733871,19.0729839 3,15.8141129 3,12 C3,7.02822581 7.02822581,3 12,3 C16.9717742,3 21,7.02822581 21,12 Z"/>
</svg>
