<svg xmlns="http://www.w3.org/2000/svg" width="24" height="24" viewBox="0 0 24 24">
  <path fill-rule="evenodd" d="M12,3 C7.02822581,3 3,7.02822581 3,12 C3,16.9717742 7.02822581,21 12,21 C16.9717742,21 21,16.9717742 21,12 C21,7.02822581 16.9717742,3 12,3 Z M16.4201613,9.16572581 L14.9431452,16.1262097 C14.8342742,16.6197581 14.5403226,16.7395161 14.1302419,16.5072581 L11.8802419,14.8487903 L10.7951613,15.8939516 C10.6754032,16.0137097 10.5737903,16.1153226 10.3415323,16.1153226 L10.5012097,13.8254032 L14.6709677,10.0584677 C14.8524194,9.89879032 14.6310484,9.80806452 14.3915323,9.96774194 L9.23830645,13.2120968 L7.01733871,12.5189516 C6.53467742,12.3665323 6.52379032,12.0362903 7.11895161,11.8040323 L15.7959677,8.45806452 C16.1987903,8.31290323 16.5508065,8.55604839 16.4201613,9.16572581 L16.4201613,9.16572581 Z"/>
</svg>
