<svg xmlns="http://www.w3.org/2000/svg" width="24" height="24" viewBox="0 0 24 24">
  <path fill-rule="evenodd" d="M19.1497266,8.64626563 C19.1611523,8.80615625 19.1611523,8.96608203 19.1611523,9.12597266 C19.1611523,14.0028477 15.44925,19.6221523 8.66497266,19.6221523 C6.57486328,19.6221523 4.63325391,19.0167969 3,17.966082 C3.29696484,18.0003242 3.58246875,18.01175 3.89085937,18.01175 C5.61544922,18.01175 7.20303516,17.4292813 8.47080469,16.435625 C6.84897656,16.4013477 5.48983594,15.3391719 5.02155469,13.8772344 C5.25,13.9114766 5.47841016,13.9343281 5.71828125,13.9343281 C6.04948828,13.9343281 6.38073047,13.888625 6.68908594,13.8087148 C4.99873828,13.4660469 3.73093359,11.981293 3.73093359,10.1881484 L3.73093359,10.1424805 C4.22203125,10.4165938 4.79314453,10.5879102 5.39842969,10.6107266 C4.40477344,9.94827734 3.75378516,8.81758203 3.75378516,7.53838672 C3.75378516,6.85312109 3.93649219,6.22494922 4.25630859,5.67672266 C6.07230469,7.91529688 8.80201172,9.37719922 11.8628906,9.537125 C11.8057969,9.26301172 11.7715195,8.97750781 11.7715195,8.69196875 C11.7715195,6.65895313 13.4161992,5.00288281 15.4606055,5.00288281 C16.5227813,5.00288281 17.4821602,5.4483125 18.1560352,6.16785547 C18.9897656,6.00796484 19.7892539,5.69957422 20.4974063,5.27699609 C20.2232578,6.13361328 19.6407891,6.85315625 18.8755781,7.30997656 C19.6179727,7.23006641 20.3375156,7.0244375 20.9999297,6.73893359 C20.4974766,7.46986719 19.8692695,8.12085547 19.1497266,8.64626563 Z"/>
</svg>
