<svg xmlns="http://www.w3.org/2000/svg" width="24" height="24" viewBox="0 0 24 24">
  <path fill-rule="evenodd" d="M18.122807,4.75087719 C17.677193,4.34035088 15.8736842,3.03157895 11.8526316,3.01403509 C11.8526316,3.01403509 7.1122807,2.72982456 4.80350877,4.84912281 C3.51929825,6.13333333 3.06666667,8.01754386 3.01754386,10.3508772 C2.96842105,12.6842105 2.90877193,17.0561404 7.12280702,18.2421053 L7.12631579,18.2421053 L7.12280702,20.0526316 C7.12280702,20.0526316 7.09473684,20.7859649 7.57894737,20.9333333 C8.16140351,21.1157895 8.50526316,20.5578947 9.06315789,19.9578947 C9.36842105,19.6280702 9.78947368,19.1438596 10.1087719,18.7754386 C12.9929825,19.0175439 15.2070175,18.4631579 15.4596491,18.3824561 C16.0421053,18.1929825 19.3368421,17.7719298 19.8701754,13.4 C20.4245614,8.8877193 19.6035088,6.03859649 18.122807,4.75087719 Z M18.6105263,13.0701754 C18.1578947,16.7192982 15.4877193,16.9508772 14.9964912,17.1087719 C14.7859649,17.1754386 12.8385965,17.6596491 10.3929825,17.5017544 C10.3929825,17.5017544 8.56842105,19.7017544 8,20.2736842 C7.81403509,20.4596491 7.61052632,20.4421053 7.61403509,20.0736842 C7.61403509,19.8315789 7.62807018,17.0666667 7.62807018,17.0666667 C7.6245614,17.0666667 7.6245614,17.0666667 7.62807018,17.0666667 C4.05614035,16.077193 4.26666667,12.354386 4.30526316,10.4070175 C4.34385965,8.45964912 4.7122807,6.86315789 5.8,5.78947368 C7.75438596,4.01754386 11.7789474,4.28070175 11.7789474,4.28070175 C15.1789474,4.29473684 16.8070175,5.31929825 17.1859649,5.66315789 C18.4385965,6.73684211 19.077193,9.30526316 18.6105263,13.0701754 L18.6105263,13.0701754 Z M13.7333333,10.2350877 C13.7473684,10.5368421 13.2947368,10.5578947 13.2807018,10.2561404 C13.2421053,9.48421053 12.8807018,9.10877193 12.1368421,9.06666667 C11.8350877,9.04912281 11.8631579,8.59649123 12.1614035,8.61403509 C13.1403509,8.66666667 13.6842105,9.22807018 13.7333333,10.2350877 Z M14.445614,10.6315789 C14.4807018,9.14385965 13.5508772,7.97894737 11.7859649,7.84912281 C11.4877193,7.82807018 11.5192982,7.3754386 11.8175439,7.39649123 C13.8526316,7.54385965 14.9368421,8.94385965 14.8982456,10.6421053 C14.8947368,10.9438596 14.4385965,10.9298246 14.445614,10.6315789 L14.445614,10.6315789 Z M16.094757,11.1017544 C16.0982456,11.4035088 15.6421053,11.4070175 15.6421053,11.1052632 C15.6210526,8.24561404 13.7157895,6.6877193 11.4035088,6.67017544 C11.1052632,6.66666667 11.1052632,6.21754386 11.4035088,6.21754386 C13.9894737,6.23508772 16.0701754,8.02105263 16.094757,11.1017544 L16.094757,11.1017544 Z M15.6982456,14.5438596 L15.6982456,14.5508772 C15.3192982,15.2175439 14.6105263,15.954386 13.8807018,15.7192982 L13.8736842,15.7087719 C13.1333333,15.5017544 11.3894737,14.6035088 10.2877193,13.7263158 C9.71929825,13.277193 9.2,12.7473684 8.8,12.2385965 C8.43859649,11.7859649 8.07368421,11.2491228 7.71929825,10.6035088 C6.97192982,9.25263158 6.80701754,8.64912281 6.80701754,8.64912281 C6.57192982,7.91929825 7.30526316,7.21052632 7.9754386,6.83157895 L7.98245614,6.83157895 C8.30526316,6.66315789 8.61403509,6.71929825 8.82105263,6.96842105 C8.82105263,6.96842105 9.25614035,7.4877193 9.44210526,7.74385965 C9.61754386,7.98245614 9.85263158,8.36491228 9.9754386,8.57894737 C10.1894737,8.96140351 10.0561404,9.35087719 9.84561404,9.5122807 L9.4245614,9.84912281 C9.21052632,10.0210526 9.23859649,10.3403509 9.23859649,10.3403509 C9.23859649,10.3403509 9.86315789,12.7017544 12.1964912,13.2982456 C12.1964912,13.2982456 12.5157895,13.3263158 12.6877193,13.1122807 L13.0245614,12.6912281 C13.1859649,12.4807018 13.5754386,12.3473684 13.9578947,12.5614035 C14.4736842,12.8526316 15.1298246,13.3052632 15.5649123,13.7157895 C15.8105263,13.9157895 15.8666667,14.2210526 15.6982456,14.5438596 Z"/>
</svg>
