<svg xmlns="http://www.w3.org/2000/svg" width="24" height="24" viewBox="0 0 24 24">
  <path fill-rule="evenodd" d="M20.5666667,7.72333333 C20.69,7.30666667 20.5666667,7 19.9733333,7 L18.01,7 C17.51,7 17.28,7.26333333 17.1566667,7.55666667 C17.1566667,7.55666667 16.1566667,9.99333333 14.7433333,11.5733333 C14.2866667,12.03 14.0766667,12.1766667 13.8266667,12.1766667 C13.7033333,12.1766667 13.5133333,12.03 13.5133333,11.6133333 L13.5133333,7.72333333 C13.5133333,7.22333333 13.3733333,7 12.96,7 L9.87333333,7 C9.56,7 9.37333333,7.23333333 9.37333333,7.45 C9.37333333,7.92333333 10.08,8.03333333 10.1533333,9.36666667 L10.1533333,12.26 C10.1533333,12.8933333 10.04,13.01 9.79,13.01 C9.12333333,13.01 7.50333333,10.5633333 6.54333333,7.76333333 C6.35,7.22 6.16,7 5.65666667,7 L3.69333333,7 C3.13333333,7 3.02,7.26333333 3.02,7.55666667 C3.02,8.07666667 3.68666667,10.66 6.12333333,14.0733333 C7.74666667,16.4033333 10.0333333,17.6666667 12.1133333,17.6666667 C13.3633333,17.6666667 13.5166667,17.3866667 13.5166667,16.9033333 C13.5166667,14.6766667 13.4033333,14.4666667 14.03,14.4666667 C14.32,14.4666667 14.82,14.6133333 15.9866667,15.7366667 C17.32,17.07 17.54,17.6666667 18.2866667,17.6666667 L20.25,17.6666667 C20.81,17.6666667 21.0933333,17.3866667 20.93,16.8333333 C20.5566667,15.67 18.0333333,13.2766667 17.92,13.1166667 C17.63,12.7433333 17.7133333,12.5766667 17.92,12.2433333 C17.9233333,12.24 20.32,8.86666667 20.5666667,7.72333333 Z"/>
</svg>
