<svg xmlns="http://www.w3.org/2000/svg" width="24" height="24" viewBox="0 0 24 24">
  <path fill-rule="evenodd" d="M18.3040179,5.615625 C16.6205357,3.928125 14.3785714,3 11.9959821,3 C7.078125,3 3.07633929,7.00178571 3.07633929,11.9196429 C3.07633929,13.490625 3.48616071,15.0254464 4.265625,16.3794643 L3,21 L7.72901786,19.7584821 C9.03080357,20.4696429 10.4973214,20.8433036 11.9919643,20.8433036 L11.9959821,20.8433036 C16.9098214,20.8433036 21,16.8415179 21,11.9236607 C21,9.54107143 19.9875,7.303125 18.3040179,5.615625 Z M11.9959821,19.340625 C10.6620536,19.340625 9.35625,18.9830357 8.21919643,18.3080357 L7.95,18.1473214 L5.14553571,18.8825893 L5.89285714,16.1464286 L5.71607143,15.8651786 C4.97276786,14.6839286 4.58303571,13.321875 4.58303571,11.9196429 C4.58303571,7.83348214 7.90982143,4.50669643 12,4.50669643 C13.9808036,4.50669643 15.8410714,5.278125 17.2392857,6.68035714 C18.6375,8.08258929 19.4973214,9.94285714 19.4933176,11.9236607 C19.4933176,16.0138393 16.0821429,19.340625 11.9959821,19.340625 Z M16.0620536,13.7879464 C15.8410714,13.6754464 14.7441964,13.1370536 14.5392857,13.0647321 C14.334375,12.9883929 14.1857143,12.9522321 14.0370536,13.1772321 C13.8883929,13.4022321 13.4625,13.9004464 13.3299107,14.053125 C13.2013393,14.2017857 13.06875,14.221875 12.8477679,14.109375 C11.5379464,13.4544643 10.678125,12.9401786 9.81428571,11.4575893 C9.58526786,11.0638393 10.0433036,11.0919643 10.4691964,10.2401786 C10.5415179,10.0915179 10.5053571,9.96294643 10.4491071,9.85044643 C10.3928571,9.73794643 9.946875,8.64107143 9.76205357,8.19508929 C9.58125,7.76116071 9.39642857,7.82142857 9.25982143,7.81339286 C9.13125,7.80535714 8.98258929,7.80535714 8.83392857,7.80535714 C8.68526786,7.80535714 8.44419643,7.86160714 8.23928571,8.08258929 C8.034375,8.30758929 7.45982143,8.84598214 7.45982143,9.94285714 C7.45982143,11.0397321 8.259375,12.1004464 8.36785714,12.2491071 C8.48035714,12.3977679 9.93883929,14.6477679 12.1767857,15.6160714 C13.5910714,16.2267857 14.1455357,16.2790179 14.8526786,16.1745536 C15.2825893,16.1102679 16.1705357,15.6361607 16.3553571,15.1138393 C16.5401786,14.5915179 16.5401786,14.1455357 16.4839286,14.053125 C16.4316964,13.9526786 16.2830357,13.8964286 16.0620536,13.7879464 Z"/>
</svg>
