<svg xmlns="http://www.w3.org/2000/svg" width="24" height="24" viewBox="0 0 24 24">
  <path fill-rule="evenodd" d="M20.5945073,7.9735292 C20.3881971,7.19670438 19.7803358,6.58490146 19.0085365,6.37727737 C17.6095949,6 12,6 12,6 C12,6 6.39043796,6 4.9914635,6.37727737 C4.21966423,6.58493431 3.61180292,7.19670438 3.4054927,7.9735292 C3.03064599,9.38156934 3.03064599,12.3193139 3.03064599,12.3193139 C3.03064599,12.3193139 3.03064599,15.2570584 3.4054927,16.6650985 C3.61180292,17.4419234 4.21966423,18.0282372 4.9914635,18.2358613 C6.39043796,18.6131387 12,18.6131387 12,18.6131387 C12,18.6131387 17.609562,18.6131387 19.0085365,18.2358613 C19.7803358,18.0282372 20.3881971,17.4419234 20.5945073,16.6650985 C20.969354,15.2570584 20.969354,12.3193139 20.969354,12.3193139 C20.969354,12.3193139 20.969354,9.38156934 20.5945073,7.9735292 Z M10.1653467,14.9865657 L10.1653467,9.65206204 L14.853854,12.3193796 L10.1653467,14.9865657 Z"/>
</svg>
