<svg xmlns="http://www.w3.org/2000/svg" width="24" height="24" viewBox="0 0 24 24">
  <path fill-rule="evenodd" d="M3.5,4.5 L3.5,1.5 L5.5,1.5 L5.5,4.5 L8.5,4.5 L8.5,6.5 L5.5,6.5 L5.5,9.5 L3.5,9.5 L3.5,6.5 L0.5,6.5 L0.5,4.5 L3.5,4.5 Z M6.5,10.5 L6.5,7.5 L9.5,7.5 L9.5,4.5 L16.5,4.5 L18.33,6.5 L23.5,6.5 L23.5,22.5 L3.5,22.5 L3.5,10.5 L6.5,10.5 Z M13.5,19.5 C16.26,19.5 18.5,17.26 18.5,14.5 C18.5,11.74 16.26,9.5 13.5,9.5 C10.74,9.5 8.5,11.74 8.5,14.5 C8.5,17.26 10.74,19.5 13.5,19.5 Z M10.5,14.5 C10.5,16.16 11.84,17.5 13.5,17.5 C15.16,17.5 16.5,16.16 16.5,14.5 C16.5,12.84 15.16,11.5 13.5,11.5 C11.84,11.5 10.5,12.84 10.5,14.5 Z"/>
</svg>
