<svg xmlns="http://www.w3.org/2000/svg" width="24" height="24" viewBox="0 0 24 24">
  <path fill-rule="evenodd" d="M11,9 L13,9 L13,11 L11,11 L11,9 Z M9,11 L11,11 L11,13 L9,13 L9,11 Z M13,11 L15,11 L15,13 L13,13 L13,11 Z M15,9 L17,9 L17,11 L15,11 L15,9 Z M7,9 L9,9 L9,11 L7,11 L7,9 Z M21,3 L3,3 L3,21 L21,21 L21,3 Z M9,18 L7,18 L7,16 L9,16 L9,18 Z M13,18 L11,18 L11,16 L13,16 L13,18 Z M17,18 L15,18 L15,16 L17,16 L17,18 Z M19,11 L17,11 L17,13 L19,13 L19,15 L17,15 L17,13 L15,13 L15,15 L13,15 L13,13 L11,13 L11,15 L9,15 L9,13 L7,13 L7,15 L5,15 L5,13 L7,13 L7,11 L5,11 L5,5 L19,5 L19,11 Z"/>
</svg>
