<svg xmlns="http://www.w3.org/2000/svg" width="24" height="24" viewBox="0 0 24 24">
  <path fill-rule="evenodd" d="M17.79,13 L17.79,20 L3.79,20 L3.79,6 L8.81,6 C8.86,5.29 9.03,4.62 9.29,4 L1.79,4 L1.79,22 L19.79,22 L19.79,15 L17.79,13 Z M16.29,18 L5.29,18 L8.04,14.47 L10,16.83 L12.75,13.29 L16.29,18 Z M19.09,8.89 C19.53,8.19 19.79,7.38 19.79,6.5 C19.79,4.01 17.78,2 15.29,2 C12.8,2 10.79,4.01 10.79,6.5 C10.79,8.99 12.8,11 15.28,11 C16.16,11 16.98,10.74 17.67,10.3 L20.79,13.42 L22.21,12 L19.09,8.89 Z M15.29,9 C13.91,9 12.79,7.88 12.79,6.5 C12.79,5.12 13.91,4 15.29,4 C16.67,4 17.79,5.12 17.79,6.5 C17.79,7.88 16.67,9 15.29,9 Z"/>
</svg>
