<svg xmlns="http://www.w3.org/2000/svg" width="24" height="24" viewBox="0 0 24 24">
  <path fill-rule="evenodd" d="M4,6.545 C6.6,7.315 9.28,7.705 12,7.705 C14.72,7.705 17.41,7.315 20,6.545 L20,17.455 C17.4,16.685 14.72,16.295 12,16.295 C9.28,16.295 6.59,16.685 4,17.455 L4,6.545 L4,6.545 Z M2,3.765 L2,20.235 C2,20.235 2.77,19.975 2.88,19.935 C5.82,18.845 8.91,18.295 12,18.295 C15.09,18.295 18.18,18.845 21.12,19.935 C21.23,19.975 22,20.235 22,20.235 L22,3.765 C22,3.765 21.23,4.025 21.12,4.065 C18.18,5.145 15.09,5.705 12,5.705 C8.91,5.705 5.82,5.145 2.88,4.065 C2.77,4.015 2,3.765 2,3.765 Z"/>
</svg>
