<svg xmlns="http://www.w3.org/2000/svg" width="24" height="24" viewBox="0 0 24 24">
  <path fill-rule="evenodd" d="M22,2 L6,2 L6,18 L22,18 L22,2 Z M11.5,11 L9,11 L9,13 L7.5,13 L7.5,7 L11.5,7 L11.5,11 Z M16.5,11.5 C16.5,12.33 15.83,13 15,13 L12.5,13 L12.5,7 L15,7 C15.83,7 16.5,7.67 16.5,8.5 L16.5,11.5 Z M20.5,8.5 L19,8.5 L19,9.5 L20.5,9.5 L20.5,11 L19,11 L19,13 L17.5,13 L17.5,7 L20.5,7 L20.5,8.5 Z M9,9.5 L10,9.5 L10,8.5 L9,8.5 L9,9.5 Z M4,6 L2,6 L2,22 L18,22 L18,20 L4,20 L4,6 Z M14,11.5 L15,11.5 L15,8.5 L14,8.5 L14,11.5 Z"/>
</svg>
