<svg xmlns="http://www.w3.org/2000/svg" width="24" height="24" viewBox="0 0 24 24">
  <path fill-rule="evenodd" d="M7.075,10.065 L5.665,8.645 C4.765,9.805 4.205,11.145 4.035,12.535 L6.055,12.535 C6.195,11.665 6.545,10.815 7.075,10.065 L7.075,10.065 Z M6.055,14.535 L4.035,14.535 C4.205,15.925 4.755,17.265 5.655,18.425 L7.065,17.005 C6.545,16.255 6.195,15.415 6.055,14.535 L6.055,14.535 Z M7.065,19.855 C8.225,20.755 9.575,21.295 10.965,21.465 L10.965,19.435 C10.095,19.285 9.255,18.945 8.505,18.405 L7.065,19.855 Z M12.965,5.605 L12.965,2.535 L8.415,7.085 L12.965,11.535 L12.965,7.625 C15.805,8.105 17.965,10.565 17.965,13.535 C17.965,16.505 15.805,18.965 12.965,19.445 L12.965,21.465 C16.915,20.975 19.965,17.615 19.965,13.535 C19.965,9.455 16.915,6.095 12.965,5.605 Z"/>
</svg>
