<svg xmlns="http://www.w3.org/2000/svg" width="24" height="24" viewBox="0 0 24 24">
  <path fill-rule="evenodd" d="M3.55,18.565 L4.96,19.975 L6.75,18.175 L5.34,16.765 L3.55,18.565 Z M11,22.475 L13,22.475 L13,19.525 L11,19.525 L11,22.475 Z M4,10.525 L1,10.525 L1,12.525 L4,12.525 L4,10.525 Z M15,6.335 L15,1.525 L9,1.525 L9,6.335 C7.21,7.375 6,9.305 6,11.525 C6,14.835 8.69,17.525 12,17.525 C15.31,17.525 18,14.835 18,11.525 C18,9.305 16.79,7.375 15,6.335 Z M20,10.525 L20,12.525 L23,12.525 L23,10.525 L20,10.525 Z M17.24,18.185 L19.03,19.985 L20.44,18.575 L18.64,16.785 L17.24,18.185 Z"/>
</svg>
