<svg xmlns="http://www.w3.org/2000/svg" width="24" height="24" viewBox="0 0 24 24">
  <path fill-rule="evenodd" d="M17.6593691,5.41 L18.5793691,6.33 L15.8893691,9.02 L14.9693691,8.1 L17.6593691,5.41 L17.6593691,5.41 Z M17.6693691,3 C17.4093691,3 17.1593691,3.1 16.9593691,3.29 L13.8393691,6.41 L11.9093691,4.5 L10.4993691,5.91 L11.9193691,7.33 L2.99936907,16.25 L2.99936907,21 L7.74936907,21 L16.6693691,12.08 L18.0893691,13.5 L19.4993691,12.09 L17.5793691,10.17 L20.6993691,7.05 C21.0993691,6.65 21.0993691,6.02 20.7093691,5.63 L18.3693691,3.29 C18.1693691,3.1 17.9193691,3 17.6693691,3 L17.6693691,3 Z M6.91936907,19 L4.99936907,17.08 L13.0593691,9.02 L14.9793691,10.94 L6.91936907,19 Z"/>
</svg>
