<svg xmlns="http://www.w3.org/2000/svg" width="24" height="24" viewBox="0 0 24 24">
  <path fill-rule="evenodd" d="M4.415,7.915 C3.58657288,7.915 2.915,8.58657288 2.915,9.415 C2.915,10.2434271 3.58657288,10.915 4.415,10.915 C5.24342712,10.915 5.915,10.2434271 5.915,9.415 C5.915,8.58657288 5.24342712,7.915 4.415,7.915 Z M22.085,9.085 C22.085,5.215 18.955,2.085 15.085,2.085 C11.215,2.085 8.085,5.215 8.085,9.085 C8.085,12.555 10.605,15.425 13.915,15.975 L13.915,19.915 L5.915,19.915 L5.915,16.915 L6.915,16.915 L6.915,12.915 C6.915,12.365 6.465,11.915 5.915,11.915 L2.915,11.915 C2.365,11.915 1.915,12.365 1.915,12.915 L1.915,16.915 L2.915,16.915 L2.915,21.915 L18.915,21.915 L18.915,19.915 L15.915,19.915 L15.915,16.035 C19.385,15.625 22.085,12.675 22.085,9.085 Z M15.085,14.085 C12.325,14.085 10.085,11.845 10.085,9.085 C10.085,6.325 12.325,4.085 15.085,4.085 C17.845,4.085 20.085,6.325 20.085,9.085 C20.085,11.845 17.845,14.085 15.085,14.085 Z"/>
</svg>
