<svg xmlns="http://www.w3.org/2000/svg" width="24" height="24" viewBox="0 0 24 24">
  <path fill-rule="evenodd" d="M19,3 L5,3 C3.9,3 3,3.9 3,5 L3,19 C3,20.1 3.9,21 5,21 L19,21 C20.1,21 21,20.1 21,19 L21,5 C21,3.9 20.1,3 19,3 Z M18,19 L6,19 C5.45,19 5,18.55 5,18 L5,6 C5,5.45 5.45,5 6,5 L18,5 C18.55,5 19,5.45 19,6 L19,18 C19,18.55 18.55,19 18,19 Z M13.56,12.81 L11.21,15.83 L9.65,13.95 C9.45,13.7 9.07,13.71 8.87,13.96 L7.13,16.19 C6.87,16.52 7.11,17 7.52,17 L16.5,17 C16.91,17 17.15,16.53 16.9,16.2 L14.35,12.81 C14.16,12.55 13.76,12.55 13.56,12.81 L13.56,12.81 Z"/>
</svg>
