<svg xmlns="http://www.w3.org/2000/svg" width="24" height="24" viewBox="0 0 24 24">
  <path fill-rule="evenodd" d="M18,9.5 L18,6 C18,5.45 17.55,5 17,5 L3,5 C2.45,5 2,5.45 2,6 L2,18 C2,18.55 2.45,19 3,19 L17,19 C17.55,19 18,18.55 18,18 L18,14.5 L20.29,16.79 C20.92,17.42 22,16.97 22,16.08 L22,7.91 C22,7.02 20.92,6.57 20.29,7.2 L18,9.5 Z M13,15.5 L13,13 L7,13 L7,15.5 L3.85,12.35 C3.65,12.15 3.65,11.84 3.85,11.64 L7,8.5 L7,11 L13,11 L13,8.5 L16.15,11.65 C16.35,11.85 16.35,12.16 16.15,12.36 L13,15.5 Z"/>
</svg>
