<svg xmlns="http://www.w3.org/2000/svg" xmlns:xlink="http://www.w3.org/1999/xlink" width="24" height="24" viewBox="0 0 24 24">
  <defs>
    <path id="pause-a" d="M8 19c1.1 0 2-.9 2-2V7c0-1.1-.9-2-2-2s-2 .9-2 2v10c0 1.1.9 2 2 2zm6-12v10c0 1.1.9 2 2 2s2-.9 2-2V7c0-1.1-.9-2-2-2s-2 .9-2 2z"/>
  </defs>
  <g fill="none" fill-rule="evenodd">
    <polygon points="0 0 24 0 24 24 0 24"/>
    <mask id="pause-b" fill="#fff">
      <use xlink:href="#pause-a"/>
    </mask>
    <use fill="#000" xlink:href="#pause-a"/>
    <g fill="#000" mask="url(#pause-b)">
      <rect width="24" height="24"/>
    </g>
  </g>
</svg>
