<svg xmlns="http://www.w3.org/2000/svg" xmlns:xlink="http://www.w3.org/1999/xlink" width="24" height="24" viewBox="0 0 24 24">
  <defs>
    <path id="repeat-a" d="M6.79 7.295h10v1.79c0 .45.54.67.85.35l2.79-2.79c.2-.2.2-.51 0-.71l-2.79-2.79a.5.5 0 0 0-.85.36v1.79h-11c-.55 0-1 .45-1 1v4c0 .55.45 1 1 1s1-.45 1-1v-3zm10 10h-10v-1.79c0-.45-.54-.67-.85-.35l-2.79 2.79c-.2.2-.2.51 0 .71l2.79 2.79a.5.5 0 0 0 .85-.36v-1.79h11c.55 0 1-.45 1-1v-4c0-.55-.45-1-1-1s-1 .45-1 1v3z"/>
  </defs>
  <g fill="none" fill-rule="evenodd">
    <polygon points="0 0 24 0 24 24 0 24"/>
    <mask id="repeat-b" fill="#fff">
      <use xlink:href="#repeat-a"/>
    </mask>
    <use fill="#000" xlink:href="#repeat-a"/>
    <g fill="#000" mask="url(#repeat-b)">
      <rect width="24" height="24"/>
    </g>
  </g>
</svg>
