<svg xmlns="http://www.w3.org/2000/svg" xmlns:xlink="http://www.w3.org/1999/xlink" width="24" height="24" viewBox="0 0 24 24">
  <defs>
    <path id="rewind-a" d="M5.58 16.89l5.77-4.07c.56-.4.56-1.24 0-1.63L5.58 7.11C4.91 6.65 4 7.12 4 7.93v8.14c0 .81.91 1.28 1.58.82zM13 7.93v8.14c0 .81.91 1.28 1.58.82l5.77-4.07c.56-.4.56-1.24 0-1.63l-5.77-4.07c-.67-.47-1.58 0-1.58.81z"/>
  </defs>
  <g fill="none" fill-rule="evenodd">
    <polygon points="0 0 24 0 24 24 0 24"/>
    <mask id="rewind-b" fill="#fff">
      <use xlink:href="#rewind-a"/>
    </mask>
    <use fill="#000" xlink:href="#rewind-a"/>
    <g fill="#000" mask="url(#rewind-b)">
      <rect width="24" height="24"/>
    </g>
  </g>
</svg>
