<svg xmlns="http://www.w3.org/2000/svg" xmlns:xlink="http://www.w3.org/1999/xlink" width="24" height="24" viewBox="0 0 24 24">
  <defs>
    <path id="shuffle-a" d="M10.59,9.17 L6.12,4.7 C5.73,4.31 5.1,4.31 4.71,4.7 C4.32,5.09 4.32,5.72 4.71,6.11 L9.17,10.57 L10.59,9.17 Z M15.35,4.85 L16.54,6.04 L4.7,17.88 C4.31,18.27 4.31,18.9 4.7,19.29 C5.09,19.68 5.72,19.68 6.11,19.29 L17.96,7.46 L19.15,8.65 C19.46,8.96 20,8.74 20,8.29 L20,4.5 C20,4.22 19.78,4 19.5,4 L15.71,4 C15.26,4 15.04,4.54 15.35,4.85 L15.35,4.85 Z M14.83,13.41 L13.42,14.82 L16.55,17.95 L15.35,19.15 C15.04,19.46 15.26,20 15.71,20 L19.5,20 C19.78,20 20,19.78 20,19.5 L20,15.71 C20,15.26 19.46,15.04 19.15,15.36 L17.96,16.55 L14.83,13.41 L14.83,13.41 Z"/>
  </defs>
  <g fill="none" fill-rule="evenodd">
    <polygon points="0 0 24 0 24 24 0 24"/>
    <mask id="shuffle-b" fill="#fff">
      <use xlink:href="#shuffle-a"/>
    </mask>
    <use fill="#000" xlink:href="#shuffle-a"/>
    <g fill="#000" mask="url(#shuffle-b)">
      <rect width="24" height="24"/>
    </g>
  </g>
</svg>
