<svg xmlns="http://www.w3.org/2000/svg" width="24" height="24" viewBox="0 0 24 24">
  <path fill-rule="evenodd" d="M15.5,1 L4.5,1 C3.4,1 2.5,1.9 2.5,3 L2.5,16 C2.5,16.55 2.95,17 3.5,17 C4.05,17 4.5,16.55 4.5,16 L4.5,4 C4.5,3.45 4.95,3 5.5,3 L15.5,3 C16.05,3 16.5,2.55 16.5,2 C16.5,1.45 16.05,1 15.5,1 Z M19.5,5 L8.5,5 C7.4,5 6.5,5.9 6.5,7 L6.5,21 C6.5,22.1 7.4,23 8.5,23 L19.5,23 C20.6,23 21.5,22.1 21.5,21 L21.5,7 C21.5,5.9 20.6,5 19.5,5 Z M18.5,21 L9.5,21 C8.95,21 8.5,20.55 8.5,20 L8.5,8 C8.5,7.45 8.95,7 9.5,7 L18.5,7 C19.05,7 19.5,7.45 19.5,8 L19.5,20 C19.5,20.55 19.05,21 18.5,21 Z"/>
</svg>
