<svg xmlns="http://www.w3.org/2000/svg" width="24" height="24" viewBox="0 0 24 24">
  <path fill-rule="evenodd" d="M20,6.5 L16,6.5 L16,4.5 C16,3.95 15.78,3.45 15.41,3.09 C15.05,2.72 14.55,2.5 14,2.5 L10,2.5 C8.9,2.5 8,3.4 8,4.5 L8,6.5 L4,6.5 C2.9,6.5 2,7.4 2,8.5 L2,19.5 C2,20.6 2.9,21.5 4,21.5 L20,21.5 C21.1,21.5 22,20.6 22,19.5 L22,8.5 C22,7.4 21.1,6.5 20,6.5 Z M10,4.5 L14,4.5 L14,6.5 L10,6.5 L10,4.5 Z M10.5,17.5 C10.22,17.22 10.22,16.78 10.5,16.5 L13,14 L10.5,11.5 C10.22,11.22 10.22,10.78 10.5,10.5 C10.78,10.22 11.22,10.22 11.5,10.5 L14.65,13.65 C14.85,13.85 14.85,14.16 14.65,14.36 L11.5,17.5 C11.22,17.78 10.78,17.78 10.5,17.5 Z"/>
</svg>
