<svg xmlns="http://www.w3.org/2000/svg" width="24" height="24" viewBox="0 0 24 24">
  <path fill-rule="evenodd" d="M19,3 L14.82,3 C14.4,1.84 13.3,1 12,1 C10.7,1 9.6,1.84 9.18,3 L5,3 C3.9,3 3,3.9 3,5 L3,21 C3,22.1 3.9,23 5,23 L19,23 C20.1,23 21,22.1 21,21 L21,5 C21,3.9 20.1,3 19,3 Z M12,3 C12.55,3 13,3.45 13,4 C13,4.55 12.55,5 12,5 C11.45,5 11,4.55 11,4 C11,3.45 11.45,3 12,3 Z M18,21 L6,21 C5.45,21 5,20.55 5,20 L5,6 C5,5.45 5.45,5 6,5 L7,5 L7,6 C7,7.1 7.9,8 9,8 L15,8 C16.1,8 17,7.1 17,6 L17,5 L18,5 C18.55,5 19,5.45 19,6 L19,20 C19,20.55 18.55,21 18,21 Z"/>
</svg>
