<svg xmlns="http://www.w3.org/2000/svg" width="24" height="24" viewBox="0 0 24 24">
  <path fill-rule="evenodd" d="M5,18.5 C5,19.05 5.45,19.5 6,19.5 L18,19.5 C18.55,19.5 19,19.05 19,18.5 C19,17.95 18.55,17.5 18,17.5 L6,17.5 C5.45,17.5 5,17.95 5,18.5 Z M9.5,13.3 L14.5,13.3 L15.16,14.9 C15.31,15.26 15.66,15.5 16.05,15.5 C16.74,15.5 17.2,14.79 16.93,14.16 L13.05,5.19 C12.87,4.77 12.46,4.5 12,4.5 C11.54,4.5 11.13,4.77 10.95,5.19 L7.07,14.16 C6.8,14.79 7.27,15.5 7.96,15.5 C8.35,15.5 8.7,15.26 8.85,14.9 L9.5,13.3 Z M12,6.48 L13.87,11.5 L10.13,11.5 L12,6.48 Z"/>
</svg>
