<svg xmlns="http://www.w3.org/2000/svg" width="24" height="24" viewBox="0 0 24 24">
  <path fill-rule="evenodd" d="M16,6 L16,17.5 C16,19.71 14.21,21.5 12,21.5 C9.79,21.5 8,19.71 8,17.5 L8,5 C8,3.62 9.12,2.5 10.5,2.5 C11.88,2.5 13,3.62 13,5 L13,15.5 C13,16.05 12.55,16.5 12,16.5 C11.45,16.5 11,16.05 11,15.5 L11,6 L9.5,6 L9.5,15.5 C9.5,16.88 10.62,18 12,18 C13.38,18 14.5,16.88 14.5,15.5 L14.5,5 C14.5,2.79 12.71,1 10.5,1 C8.29,1 6.5,2.79 6.5,5 L6.5,17.5 C6.5,20.54 8.96,23 12,23 C15.04,23 17.5,20.54 17.5,17.5 L17.5,6 L16,6 Z"/>
</svg>
