<svg xmlns="http://www.w3.org/2000/svg" width="24" height="24" viewBox="0 0 24 24">
  <path fill-rule="evenodd" d="M4.25,10.5 C3.42,10.5 2.75,11.17 2.75,12 C2.75,12.83 3.42,13.5 4.25,13.5 C5.08,13.5 5.75,12.83 5.75,12 C5.75,11.17 5.08,10.5 4.25,10.5 Z M4.25,4.5 C3.42,4.5 2.75,5.17 2.75,6 C2.75,6.83 3.42,7.5 4.25,7.5 C5.08,7.5 5.75,6.83 5.75,6 C5.75,5.17 5.08,4.5 4.25,4.5 Z M4.25,16.5 C3.42,16.5 2.75,17.18 2.75,18 C2.75,18.82 3.43,19.5 4.25,19.5 C5.07,19.5 5.75,18.82 5.75,18 C5.75,17.18 5.08,16.5 4.25,16.5 Z M7.25,19 L21.25,19 L21.25,17 L7.25,17 L7.25,19 Z M7.25,13 L21.25,13 L21.25,11 L7.25,11 L7.25,13 Z M7.25,5 L7.25,7 L21.25,7 L21.25,5 L7.25,5 Z"/>
</svg>
