<svg xmlns="http://www.w3.org/2000/svg" width="24" height="24" viewBox="0 0 24 24">
  <path fill-rule="evenodd" d="M2.5,17 L4.5,17 L4.5,17.5 L3.5,17.5 L3.5,18.5 L4.5,18.5 L4.5,19 L2.5,19 L2.5,20 L5.5,20 L5.5,16 L2.5,16 L2.5,17 Z M3.5,8 L4.5,8 L4.5,4 L2.5,4 L2.5,5 L3.5,5 L3.5,8 Z M2.5,11 L4.3,11 L2.5,13.1 L2.5,14 L5.5,14 L5.5,13 L3.7,13 L5.5,10.9 L5.5,10 L2.5,10 L2.5,11 Z M7.5,5 L7.5,7 L21.5,7 L21.5,5 L7.5,5 Z M7.5,19 L21.5,19 L21.5,17 L7.5,17 L7.5,19 Z M7.5,13 L21.5,13 L21.5,11 L7.5,11 L7.5,13 Z"/>
</svg>
