<svg xmlns="http://www.w3.org/2000/svg" width="24" height="24" viewBox="0 0 24 24">
  <path fill-rule="evenodd" d="M13,7 L11,7 L11,9 L13,9 L13,7 Z M13,11 L11,11 L11,13 L13,13 L13,11 Z M17,11 L15,11 L15,13 L17,13 L17,11 Z M3,5 L3,19 C3,20.1 3.9,21 5,21 L19,21 C20.1,21 21,20.1 21,19 L21,5 C21,3.9 20.1,3 19,3 L5,3 C3.9,3 3,3.9 3,5 Z M18,19 L6,19 C5.45,19 5,18.55 5,18 L5,6 C5,5.45 5.45,5 6,5 L18,5 C18.55,5 19,5.45 19,6 L19,18 C19,18.55 18.55,19 18,19 Z M13,15 L11,15 L11,17 L13,17 L13,15 Z M9,11 L7,11 L7,13 L9,13 L9,11 Z"/>
</svg>
