<svg xmlns="http://www.w3.org/2000/svg" width="24" height="24" viewBox="0 0 24 24">
  <path fill-rule="evenodd" d="M4.25,10.5 C3.42,10.5 2.75,11.17 2.75,12 C2.75,12.83 3.42,13.5 4.25,13.5 C5.08,13.5 5.75,12.83 5.75,12 C5.75,11.17 5.08,10.5 4.25,10.5 Z M4.25,4.5 C3.42,4.5 2.75,5.17 2.75,6 C2.75,6.83 3.42,7.5 4.25,7.5 C5.08,7.5 5.75,6.83 5.75,6 C5.75,5.17 5.08,4.5 4.25,4.5 Z M4.25,16.5 C3.42,16.5 2.75,17.18 2.75,18 C2.75,18.82 3.43,19.5 4.25,19.5 C5.07,19.5 5.75,18.82 5.75,18 C5.75,17.18 5.08,16.5 4.25,16.5 Z M8.25,19 L20.25,19 C20.8,19 21.25,18.55 21.25,18 C21.25,17.45 20.8,17 20.25,17 L8.25,17 C7.7,17 7.25,17.45 7.25,18 C7.25,18.55 7.7,19 8.25,19 Z M8.25,13 L20.25,13 C20.8,13 21.25,12.55 21.25,12 C21.25,11.45 20.8,11 20.25,11 L8.25,11 C7.7,11 7.25,11.45 7.25,12 C7.25,12.55 7.7,13 8.25,13 Z M7.25,6 C7.25,6.55 7.7,7 8.25,7 L20.25,7 C20.8,7 21.25,6.55 21.25,6 C21.25,5.45 20.8,5 20.25,5 L8.25,5 C7.7,5 7.25,5.45 7.25,6 Z"/>
</svg>
