<svg xmlns="http://www.w3.org/2000/svg" width="24" height="24" viewBox="0 0 24 24">
  <path fill-rule="evenodd" d="M2.5,6 C2.5,6.83 3.17,7.5 4,7.5 L7.5,7.5 L7.5,18 C7.5,18.83 8.17,19.5 9,19.5 C9.83,19.5 10.5,18.83 10.5,18 L10.5,7.5 L14,7.5 C14.83,7.5 15.5,6.83 15.5,6 C15.5,5.17 14.83,4.5 14,4.5 L4,4.5 C3.17,4.5 2.5,5.17 2.5,6 Z M20,9.5 L14,9.5 C13.17,9.5 12.5,10.17 12.5,11 C12.5,11.83 13.17,12.5 14,12.5 L15.5,12.5 L15.5,18 C15.5,18.83 16.17,19.5 17,19.5 C17.83,19.5 18.5,18.83 18.5,18 L18.5,12.5 L20,12.5 C20.83,12.5 21.5,11.83 21.5,11 C21.5,10.17 20.83,9.5 20,9.5 Z"/>
</svg>
