<svg xmlns="http://www.w3.org/2000/svg" width="24" height="24" viewBox="0 0 24 24">
  <path fill-rule="evenodd" d="M13.025,9.18 C13.875,9.48 14.535,10.15 14.845,11 L21.975,11 C21.505,6.28 17.745,2.52 13.025,2.05 L13.025,9.18 Z M11.025,14.82 C9.865,14.4 9.025,13.3 9.025,12 C9.025,10.7 9.865,9.6 11.025,9.18 L11.025,2.05 C5.975,2.55 2.025,6.81 2.025,12 C2.025,17.19 5.975,21.45 11.025,21.95 L11.025,14.82 Z M14.845,13 C14.545,13.85 13.875,14.51 13.025,14.82 L13.025,21.95 C17.745,21.48 21.505,17.72 21.975,13 L14.845,13 Z"/>
</svg>
