<svg xmlns="http://www.w3.org/2000/svg" width="24" height="24" viewBox="0 0 24 24">
  <path fill-rule="evenodd" d="M13.025,5.08 C16.085,5.52 18.505,7.94 18.945,11 L21.975,11 C21.505,6.28 17.745,2.52 13.025,2.05 L13.025,5.08 L13.025,5.08 Z M18.945,13 C18.505,16.06 16.085,18.48 13.025,18.92 L13.025,21.95 C17.745,21.48 21.505,17.72 21.975,13 L18.945,13 L18.945,13 Z M11.025,18.92 C7.635,18.43 5.025,15.52 5.025,12 C5.025,8.48 7.635,5.57 11.025,5.08 L11.025,2.05 C5.975,2.55 2.025,6.81 2.025,12 C2.025,17.19 5.975,21.45 11.025,21.95 L11.025,18.92 Z"/>
</svg>
