<svg xmlns="http://www.w3.org/2000/svg" width="24" height="24" viewBox="0 0 24 24">
  <path fill-rule="evenodd" d="M20,8.50138207 L17,8.50138207 L17,6.71138207 C17,4.10138207 15.09,1.77138207 12.49,1.52138207 C9.51,1.24138207 7,3.58138207 7,6.50138207 L9,6.50138207 C9,5.37138207 9.6,4.26138207 10.64,3.80138207 C12.85,2.81138207 15,4.40138207 15,6.50138207 L15,8.50138207 L4,8.50138207 L4,22.5013821 L20,22.5013821 L20,8.50138207 Z M18,20.5013821 L6,20.5013821 L6,10.5013821 L18,10.5013821 L18,20.5013821 Z M12,17.5013821 C13.1,17.5013821 14,16.6013821 14,15.5013821 C14,14.4013821 13.1,13.5013821 12,13.5013821 C10.9,13.5013821 10,14.4013821 10,15.5013821 C10,16.6013821 10.9,17.5013821 12,17.5013821 Z"/>
</svg>
