<svg xmlns="http://www.w3.org/2000/svg" width="24" height="24" viewBox="0 0 24 24">
  <path fill-rule="evenodd" d="M11.42,1.585 L1.59,1.585 L1.59,11.415 L12.58,22.415 C12.58,22.415 13.63,21.365 13.99,20.995 L22.41,12.585 L11.42,1.585 Z M5.09,6.585 C4.26,6.585 3.59,5.915 3.59,5.085 C3.59,4.255 4.26,3.585 5.09,3.585 C5.92,3.585 6.59,4.255 6.59,5.085 C6.59,5.915 5.92,6.585 5.09,6.585 Z M12.59,19.125 L8.32,14.855 C7.87,14.395 7.59,13.775 7.59,13.085 C7.59,11.705 8.71,10.585 10.09,10.585 C10.78,10.585 11.41,10.865 11.86,11.325 L12.59,12.045 L13.32,11.315 C13.77,10.865 14.4,10.585 15.09,10.585 C16.47,10.585 17.59,11.705 17.59,13.085 C17.59,13.775 17.31,14.405 16.86,14.855 L12.59,19.125 Z"/>
</svg>
