<svg xmlns="http://www.w3.org/2000/svg" width="24" height="24" viewBox="0 0 24 24">
  <path fill-rule="evenodd" d="M1.975,0.565 L0.565,1.975 L4.955,6.365 L7.165,11.025 L4.185,16.435 L15.025,16.435 L16.405,17.815 C15.905,18.175 15.575,18.765 15.575,19.435 C15.575,20.535 16.465,21.435 17.565,21.435 C18.235,21.435 18.825,21.105 19.185,20.595 L22.025,23.435 L23.435,22.025 L1.975,0.565 Z M7.565,14.435 L8.665,12.435 L11.025,12.435 L13.025,14.435 L7.565,14.435 Z M16.615,12.375 L17.345,12.375 L22.265,3.435 L7.685,3.435 L16.615,12.375 Z M7.565,17.435 C6.465,17.435 5.575,18.335 5.575,19.435 C5.575,20.535 6.465,21.435 7.565,21.435 C8.665,21.435 9.565,20.535 9.565,19.435 C9.565,18.335 8.665,17.435 7.565,17.435 Z"/>
</svg>
