<svg xmlns="http://www.w3.org/2000/svg" xmlns:xlink="http://www.w3.org/1999/xlink" width="24" height="24" viewBox="0 0 24 24">
  <defs>
    <path id="bitcoin-a" d="M21,12 C21,16.9705766 16.9705766,21 12,21 C7.02942339,21 3,16.9705766 3,12 C3,7.02942339 7.02942339,3 12,3 C16.9705766,3 21,7.02942339 21,12 Z M15.8594395,10.7178629 C16.0386048,9.52031855 15.1267016,8.87652823 13.8798024,8.44706855 L14.2842944,6.82481855 L13.2967258,6.57873387 L12.9029395,8.15823387 C12.6433185,8.09352823 12.3766573,8.03252419 12.1117016,7.97206452 L12.5083185,6.38218548 L11.5212944,6.13610081 L11.1165484,7.75777016 C10.9016371,7.70881452 10.6906815,7.66043952 10.4859315,7.60956048 L10.4870565,7.60447984 L9.12508065,7.26443952 L8.862375,8.31910887 C8.862375,8.31910887 9.5951129,8.48702419 9.57965323,8.49740323 C9.97964516,8.5972379 10.0519355,8.86190323 10.0398145,9.07169758 L9.57907258,10.9197823 C9.60665323,10.9268226 9.6423629,10.9369476 9.6817379,10.9526976 C9.64882258,10.9445323 9.61365726,10.9355323 9.57736694,10.9268226 L8.93154435,13.5157016 C8.88258871,13.6372016 8.75854839,13.8194516 8.47896774,13.7502823 C8.48880242,13.7646169 7.76114516,13.5711169 7.76114516,13.5711169 L7.2708629,14.7014516 L8.55604839,15.0217863 C8.79512903,15.0817016 9.02945565,15.1444113 9.26008065,15.2034556 L8.85137903,16.84425 L9.83782258,17.0903347 L10.2425685,15.4669597 C10.5041692,15.5378571 10.7665272,15.6059296 11.0295968,15.6711653 L10.6262298,17.2869194 L11.6137984,17.533004 L12.0225,15.8952944 C13.7065161,16.2139597 14.9728669,16.0854194 15.5058629,14.5624597 C15.9353952,13.3362097 15.4844879,12.628875 14.5984597,12.167625 C15.2437016,12.0189073 15.7297742,11.5945282 15.8594395,10.7178629 Z M13.6030161,13.8816169 C13.2978145,15.1078669 11.2329677,14.4449516 10.5635202,14.2787419 L11.1058427,12.1049879 C11.775254,12.2720323 13.9219718,12.6027823 13.6030161,13.8816169 Z M13.9084718,10.7001532 C13.6300161,11.8155726 11.911379,11.2488629 11.3538871,11.1099435 L11.8455484,9.13839919 C12.4030766,9.27731855 14.1984677,9.5366129 13.9084718,10.7001532 Z"/>
  </defs>
  <g fill="none" fill-rule="evenodd">
    <mask id="bitcoin-b" fill="#fff">
      <use xlink:href="#bitcoin-a"/>
    </mask>
    <use fill="#000" fill-rule="nonzero" xlink:href="#bitcoin-a"/>
    <g fill="#000" mask="url(#bitcoin-b)">
      <rect width="24" height="24"/>
    </g>
  </g>
</svg>
