<svg xmlns="http://www.w3.org/2000/svg" xmlns:xlink="http://www.w3.org/1999/xlink" width="24" height="24" viewBox="0 0 24 24">
  <defs>
    <path id="paypal-a" d="M8.41346797,13.5817015 C8.27470145,14.3437739 7.72360013,17.8961426 7.56104506,18.9003318 C7.54915079,18.9717761 7.52139748,18.99956 7.44210233,18.99956 L4.48439308,18.99956 C4.18307149,18.99956 3.96500982,18.7375976 4.0046574,18.4478513 L6.32800541,3.68666776 C6.38747678,3.30563156 6.72844594,3.01588529 7.12095696,3.01588529 C13.1592829,3.01588529 13.6667719,2.86902759 15.2090627,3.46836577 C17.5918821,4.39317238 17.8099437,6.62382179 16.9535561,9.03705104 C16.1011332,11.5217246 14.0791067,12.5894198 11.3989305,12.6211728 C9.67822568,12.6489567 8.64342392,12.3433339 8.41346797,13.5817015 Z M18.1548777,7.87012768 C18.083512,7.81852903 18.0557587,7.7986834 18.0359349,7.92172634 C17.9566398,8.37420682 17.8337323,8.81477992 17.6870363,9.25535303 C16.1050979,13.7722196 11.7200759,13.379276 9.57910674,13.379276 C9.33725652,13.379276 9.17866621,13.5102572 9.14694815,13.752374 C8.2509129,19.3250284 8.07249881,20.4879826 8.07249881,20.4879826 C8.03285123,20.7697906 8.21126533,21 8.49276312,21 L11.0103843,21 C11.3513534,21 11.6328512,20.749945 11.7002521,20.4086001 C11.7280054,20.1942672 11.6566398,20.6507168 12.2711772,16.7847871 C12.4535561,15.9115791 12.8381376,16.002869 13.4328512,16.002869 C16.2478292,16.002869 18.444305,14.8597604 19.09849,11.5455393 C19.3561992,10.1642831 19.2808689,8.71158262 18.1548777,7.87012768 Z"/>
  </defs>
  <g fill="none" fill-rule="evenodd">
    <mask id="paypal-b" fill="#fff">
      <use xlink:href="#paypal-a"/>
    </mask>
    <use fill="#000" fill-rule="nonzero" xlink:href="#paypal-a"/>
    <g fill="#000" mask="url(#paypal-b)">
      <rect width="24" height="24"/>
    </g>
  </g>
</svg>
