<svg xmlns="http://www.w3.org/2000/svg" xmlns:xlink="http://www.w3.org/1999/xlink" width="24" height="24" viewBox="0 0 24 24">
  <defs>
    <path id="add---circle-a" d="M12 8c-.44 0-.8.36-.8.8v2.4H8.8c-.44 0-.8.36-.8.8 0 .44.36.8.8.8h2.4v2.4c0 .44.36.8.8.8.44 0 .8-.36.8-.8v-2.4h2.4c.44 0 .8-.36.8-.8 0-.44-.36-.8-.8-.8h-2.4V8.8c0-.44-.36-.8-.8-.8zm0-4c-4.416 0-8 3.584-8 8s3.584 8 8 8 8-3.584 8-8-3.584-8-8-8zm0 14.4A6.408 6.408 0 0 1 5.6 12c0-3.528 2.872-6.4 6.4-6.4 3.528 0 6.4 2.872 6.4 6.4 0 3.528-2.872 6.4-6.4 6.4z"/>
  </defs>
  <g fill="none" fill-rule="evenodd">
    <polygon points="0 0 24 0 24 24 0 24"/>
    <mask id="add---circle-b" fill="#fff">
      <use xlink:href="#add---circle-a"/>
    </mask>
    <use fill="#000" xlink:href="#add---circle-a"/>
    <g fill="#000" mask="url(#add---circle-b)">
      <rect width="24" height="24"/>
    </g>
  </g>
</svg>
