<svg xmlns="http://www.w3.org/2000/svg" width="24" height="24" viewBox="0 0 24 24">
  <path fill-rule="evenodd" d="M22,2 L2.01,2 L2,16 L22,16 L22,2 Z M11,5 L13,5 L13,7 L11,7 L11,5 Z M11,8 L13,8 L13,10 L11,10 L11,8 Z M8,5 L10,5 L10,7 L8,7 L8,5 Z M8,8 L10,8 L10,10 L8,10 L8,8 Z M7,10 L5,10 L5,8 L7,8 L7,10 Z M7,7 L5,7 L5,5 L7,5 L7,7 Z M16,14 L8,14 L8,12 L16,12 L16,14 Z M16,10 L14,10 L14,8 L16,8 L16,10 Z M16,7 L14,7 L14,5 L16,5 L16,7 Z M19,10 L17,10 L17,8 L19,8 L19,10 Z M19,7 L17,7 L17,5 L19,5 L19,7 Z M12,22 L16,18 L8,18 L12,22 Z"/>
</svg>
