<svg xmlns="http://www.w3.org/2000/svg" width="24" height="24" viewBox="0 0 24 24">
  <path fill-rule="evenodd" d="M20,1 L8,1 L8,18.99 L20,18.99 L20,1 Z M14,3 C15.1,3 16,3.89 16,5 C16,6.11 15.1,7 14,7 C12.9,7 12,6.11 12,5 C12,3.89 12.9,3 14,3 Z M14,16.5 C11.79,16.5 10,14.71 10,12.5 C10,10.29 11.79,8.5 14,8.5 C16.21,8.5 18,10.29 18,12.5 C18,14.71 16.21,16.5 14,16.5 Z M14,10 C12.6192881,10 11.5,11.1192881 11.5,12.5 C11.5,13.8807119 12.6192881,15 14,15 C15.3807119,15 16.5,13.8807119 16.5,12.5 C16.5,11.1192881 15.3807119,10 14,10 L14,10 Z M6,5 L4,5 L4,23 L16,23 L16,21 L6,21 L6,5 Z"/>
</svg>
