<svg xmlns="http://www.w3.org/2000/svg" width="24" height="24" viewBox="0 0 24 24">
  <path fill-rule="evenodd" d="M18,8.5 L17,8.5 L17,6.5 C17,3.74 14.76,1.5 12,1.5 C9.24,1.5 7,3.74 7,6.5 L7,8.5 L6,8.5 C4.9,8.5 4,9.4 4,10.5 L4,20.5 C4,21.6 4.9,22.5 6,22.5 L18,22.5 C19.1,22.5 20,21.6 20,20.5 L20,10.5 C20,9.4 19.1,8.5 18,8.5 Z M8.9,6.5 C8.9,4.79 10.29,3.4 12,3.4 C13.71,3.4 15.1,4.79 15.1,6.5 L15.1,8.5 L8.9,8.5 L8.9,6.5 Z M18,20.5 L6,20.5 L6,10.5 L18,10.5 L18,20.5 Z M13,11.5 L11,11.5 L11,14.5 L8,14.5 L8,16.5 L11,16.5 L11,19.5 L13,19.5 L13,16.5 L16,16.5 L16,14.5 L13,14.5 L13,11.5 Z"/>
</svg>
