<svg xmlns="http://www.w3.org/2000/svg" width="24" height="24" viewBox="0 0 24 24">
  <path fill-rule="evenodd" d="M22,3 L7,3 C6.31,3 5.77,3.35 5.41,3.88 L0,12 L5.41,20.11 C5.77,20.64 6.38,21 7.07,21 L22,21 C23.1,21 24,20.1 24,19 L24,5 C24,3.9 23.1,3 22,3 Z M22,19 L7.07,19 L2.4,12 L7.06,5 L22,5 L22,19 Z M9,10.5 C8.17157288,10.5 7.5,11.1715729 7.5,12 C7.5,12.8284271 8.17157288,13.5 9,13.5 C9.82842712,13.5 10.5,12.8284271 10.5,12 C10.5,11.1715729 9.82842712,10.5 9,10.5 Z M14,10.5 C13.1715729,10.5 12.5,11.1715729 12.5,12 C12.5,12.8284271 13.1715729,13.5 14,13.5 C14.8284271,13.5 15.5,12.8284271 15.5,12 C15.5,11.1715729 14.8284271,10.5 14,10.5 L14,10.5 Z M19,10.5 C18.1715729,10.5 17.5,11.1715729 17.5,12 C17.5,12.8284271 18.1715729,13.5 19,13.5 C19.8284271,13.5 20.5,12.8284271 20.5,12 C20.5,11.1715729 19.8284271,10.5 19,10.5 Z"/>
</svg>
