<svg xmlns="http://www.w3.org/2000/svg" width="24" height="24" viewBox="0 0 24 24">
  <path fill-rule="evenodd" d="M8.805,6 C8.805,4.29 10.195,2.9 11.905,2.9 C13.615,2.9 15.005,4.29 15.005,6 L15.005,8 L10.345,8 L12.345,10 L17.905,10 L17.905,15.56 L19.905,17.56 L19.905,10 C19.905,8.9 19.005,8 17.905,8 L16.905,8 L16.905,6 C16.905,3.24 14.665,1 11.905,1 C9.585,1 7.645,2.59 7.085,4.74 L8.805,6.46 L8.805,6 Z M4.315,4.81 L2.905,6.22 L4.945,8.26 C4.325,8.6 3.905,9.25 3.905,10 L3.905,20 C3.905,21.1 4.805,22 5.905,22 L18.685,22 L19.685,23 L21.095,21.59 L4.315,4.81 Z M5.905,20 L5.905,10 L6.685,10 L16.685,20 L5.905,20 Z"/>
</svg>
