<svg xmlns="http://www.w3.org/2000/svg" width="24" height="24" viewBox="0 0 24 24">
  <path fill-rule="evenodd" d="M12,8.4062428 L15.89,12.2962428 C16.28,12.6862428 16.91,12.6862428 17.3,12.2962428 C17.69,11.9062428 17.69,11.2762428 17.3,10.8862428 L12.71,6.2962428 C12.5231685,6.10899013 12.2695176,6.0037572 12.005,6.0037572 C11.7404824,6.0037572 11.4868315,6.10899013 11.3,6.2962428 L6.7,10.8862428 C6.31,11.2762428 6.31,11.9062428 6.7,12.2962428 C7.09,12.6862428 7.72,12.6862428 8.11,12.2962428 L12,8.4062428 Z M7,17.9962428 L17,17.9962428 C17.55,17.9962428 18,17.5462428 18,16.9962428 C18,16.4462428 17.55,15.9962428 17,15.9962428 L7,15.9962428 C6.45,15.9962428 6,16.4462428 6,16.9962428 C6,17.5462428 6.45,17.9962428 7,17.9962428 Z"/>
</svg>
