<svg xmlns="http://www.w3.org/2000/svg" width="24" height="24" viewBox="0 0 24 24">
  <path fill-rule="evenodd" d="M19.8,10.0554266 L5.15,4.70542657 C4.63,4.51542657 4.05,4.78542657 3.85,5.30542657 C3.66,5.83542657 3.93,6.41542657 4.45,6.60542657 L17.6,11.3554266 L5,11.3554266 C3.9,11.3554266 3,12.2554266 3,13.3554266 L3,17.3554266 C3,18.4554266 3.9,19.3554266 5,19.3554266 L19,19.3554266 C20.1,19.3554266 21,18.4554266 21,17.3554266 L21,11.8554266 C21,11.0554266 20.5,10.2554266 19.8,10.0554266 Z M7,16.3554266 L5,16.3554266 L5,14.3554266 L7,14.3554266 L7,16.3554266 Z M18,16.3554266 L10,16.3554266 C9.45,16.3554266 9,15.9054266 9,15.3554266 C9,14.8054266 9.45,14.3554266 10,14.3554266 L18,14.3554266 C18.55,14.3554266 19,14.8054266 19,15.3554266 C19,15.9054266 18.55,16.3554266 18,16.3554266 Z"/>
</svg>
