<svg xmlns="http://www.w3.org/2000/svg" width="24" height="24" viewBox="0 0 24 24">
  <path fill-rule="evenodd" d="M11.19,1.26625 L4.19,4.37625 C3.47,4.69625 3,5.41625 3,6.20625 L3,10.90625 C3,16.45625 6.84,21.64625 12,22.90625 C17.16,21.64625 21,16.45625 21,10.90625 L21,6.20625 C21,5.41625 20.53,4.69625 19.81,4.37625 L12.81,1.26625 C12.3,1.03625 11.7,1.03625 11.19,1.26625 Z M12,11.89625 L19,11.89625 C18.47,16.01625 15.72,19.68625 12,20.83625 L12,11.90625 L5,11.90625 L5,6.20625 L12,3.09625 L12,11.89625 Z"/>
</svg>
