<svg xmlns="http://www.w3.org/2000/svg" width="24" height="24" viewBox="0 0 24 24">
  <path fill-rule="evenodd" d="M19,3 L5,3 C3.9,3 3,3.9 3,5 L3,19 C3,20.1 3.89,21 5,21 L19,21 C20.1,21 21,20.1 21,19 L21,5 C21,3.9 20.11,3 19,3 Z M19,19 L5,19 L5,5 L19,5 L19,19 Z M9.5,15 L11,15 L11,13.51 L12,13.51 L12,12 L11,12 L11,9 L9.5,9 L9.5,12 L8,12 L8,9 L6.5,9 L6.5,13.5 L9.5,13.5 L9.5,15 Z M18.2,15 L16.2,12 L18.2,9 L16.5,9 L14.5,12 L16.5,15 L18.2,15 Z M14.5,12 L14.5,9 L13,9 L13,15 L14.5,15 L14.5,12 Z"/>
</svg>
