<svg xmlns="http://www.w3.org/2000/svg" width="24" height="24" viewBox="0 0 24 24">
  <path fill-rule="evenodd" d="M12,2 C6.48,2 2,6.48 2,12 C2,17.52 6.48,22 12,22 C17.52,22 22,17.52 22,12 C22,6.48 17.52,2 12,2 Z M12,20 C7.59,20 4,16.41 4,12 C4,7.59 7.59,4 12,4 C16.41,4 20,7.59 20,12 C20,16.41 16.41,20 12,20 Z M12,7.5 C9.51,7.5 7.5,9.51 7.5,12 C7.5,14.49 9.51,16.5 12,16.5 C14.49,16.5 16.5,14.49 16.5,12 C16.5,9.51 14.49,7.5 12,7.5 Z M12,13 C11.45,13 11,12.55 11,12 C11,11.45 11.45,11 12,11 C12.55,11 13,11.45 13,12 C13,12.55 12.55,13 12,13 Z"/>
</svg>
