<svg xmlns="http://www.w3.org/2000/svg" width="24" height="24" viewBox="0 0 24 24">
  <path fill-rule="evenodd" d="M5.54,8.46 L2,12 L5.54,15.54 L7.3,13.77 L5.54,12 L7.3,10.23 L5.54,8.46 Z M12,18.46 L10.23,16.7 L8.46,18.46 L12,22 L15.54,18.46 L13.77,16.7 L12,18.46 Z M18.46,8.46 L16.7,10.23 L18.46,12 L16.7,13.77 L18.46,15.54 L22,12 L18.46,8.46 Z M8.46,5.54 L10.23,7.3 L12,5.54 L13.77,7.3 L15.54,5.54 L12,2 L8.46,5.54 Z M12,9 C10.3431458,9 9,10.3431458 9,12 C9,13.6568542 10.3431458,15 12,15 C13.6568542,15 15,13.6568542 15,12 C15,10.3431458 13.6568542,9 12,9 Z"/>
</svg>
