<svg xmlns="http://www.w3.org/2000/svg" width="24" height="24" viewBox="0 0 24 24">
  <path fill-rule="evenodd" d="M7.25,12.5 L4.75,9 L3.5,9 L3.5,15 L4.75,15 L4.75,11.5 L7.3,15 L8.5,15 L8.5,9 L7.25,9 L7.25,12.5 Z M9.5,15 L13.5,15 L13.5,13.75 L11,13.75 L11,12.64 L13.5,12.64 L13.5,11.38 L11,11.38 L11,10.26 L13.5,10.26 L13.5,9 L9.5,9 L9.5,15 Z M19.25,9 L19.25,13.5 L18.13,13.5 L18.13,9.99 L16.88,9.99 L16.88,13.51 L15.75,13.51 L15.75,9 L14.5,9 L14.5,14 C14.5,14.55 14.95,15 15.5,15 L19.5,15 C20.05,15 20.5,14.55 20.5,14 L20.5,9 L19.25,9 Z"/>
</svg>
