<svg xmlns="http://www.w3.org/2000/svg" width="24" height="24" viewBox="0 0 24 24">
  <path fill-rule="evenodd" d="M10.72,5.39 C10.72,4.73 11.26,4.19 11.92,4.19 C12.58,4.19 13.12,4.73 13.12,5.39 L13.11,9.3 L14.92,11.09 L14.92,5.49 C14.92,3.83 13.58,2.49 11.92,2.49 C10.38,2.49 9.13,3.65 8.96,5.14 L10.72,6.9 L10.72,5.39 L10.72,5.39 Z M18.92,11.49 L17.22,11.49 C17.22,12.07 17.12,12.62 16.95,13.13 L18.22,14.4 C18.66,13.52 18.92,12.53 18.92,11.49 Z M4.33,3.35 L2.92,4.76 L8.92,10.76 L8.92,11.49 C8.92,13.15 10.26,14.49 11.92,14.49 C12.15,14.49 12.36,14.46 12.57,14.41 L14.23,16.07 C13.52,16.4 12.73,16.59 11.92,16.59 C9.16,16.59 6.62,14.49 6.62,11.49 L4.92,11.49 C4.92,14.9 7.64,17.72 10.92,18.21 L10.92,21.49 L12.92,21.49 L12.92,18.21 C13.83,18.08 14.69,17.76 15.47,17.31 L19.67,21.51 L21.08,20.1 L4.33,3.35 Z"/>
</svg>
