<svg xmlns="http://www.w3.org/2000/svg" width="24" height="24" viewBox="0 0 24 24">
  <path fill-rule="evenodd" d="M23,11.995 L20.56,9.215 L20.9,5.535 L17.29,4.715 L15.4,1.535 L12,2.995 L8.6,1.535 L6.71,4.715 L3.1,5.525 L3.44,9.205 L1,11.995 L3.44,14.775 L3.1,18.465 L6.71,19.285 L8.6,22.465 L12,20.995 L15.4,22.455 L17.29,19.275 L20.9,18.455 L20.56,14.775 L23,11.995 Z M18.49,14.105 L18.75,16.895 L16.01,17.515 L14.58,19.925 L12,18.815 L9.42,19.925 L7.99,17.515 L5.25,16.895 L5.51,14.095 L3.66,11.995 L5.51,9.875 L5.25,7.095 L7.99,6.485 L9.42,4.075 L12,5.175 L14.58,4.065 L16.01,6.475 L18.75,7.095 L18.49,9.885 L20.34,11.995 L18.49,14.105 L18.49,14.105 Z M11,14.995 L13,14.995 L13,16.995 L11,16.995 L11,14.995 Z M11,6.995 L13,6.995 L13,12.995 L11,12.995 L11,6.995 Z"/>
</svg>
