<svg xmlns="http://www.w3.org/2000/svg" width="24" height="24" viewBox="0 0 24 24">
  <path fill-rule="evenodd" d="M20,6.5 L8.3,6.5 L16.56,3.16 L15.88,1.5 L3.24,6.65 C2.51,6.93 2,7.67 2,8.5 L2,20.5 C2,21.6 2.89,22.5 4,22.5 L20,22.5 C21.11,22.5 22,21.6 22,20.5 L22,8.5 C22,7.39 21.11,6.5 20,6.5 Z M20,8.5 L20,11.5 L18,11.5 L18,9.5 L16,9.5 L16,11.5 L4,11.5 L4,8.5 L20,8.5 Z M4,20.5 L4,13.5 L20,13.5 L20,20.5 L4,20.5 Z M8,14.48 C6.61928813,14.48 5.5,15.5992881 5.5,16.98 C5.5,18.3607119 6.61928813,19.48 8,19.48 C9.38071187,19.48 10.5,18.3607119 10.5,16.98 C10.5,15.5992881 9.38071187,14.48 8,14.48 Z"/>
</svg>
