<svg xmlns="http://www.w3.org/2000/svg" width="24" height="24" viewBox="0 0 24 24">
  <path fill-rule="evenodd" d="M12.0012328,22.75 C13.1012328,22.75 13.9912328,21.86 13.9912328,20.76 L10.0112328,20.76 C10.0112328,21.86 10.9012328,22.75 12.0012328,22.75 Z M19.0012328,16.75 L19.0012328,10.75 C19.0012328,7.4 16.6412328,4.6 13.5012328,3.92 L13.5012328,2.75 C13.5012328,1.92 12.8312328,1.25 12.0012328,1.25 C11.1712328,1.25 10.5012328,1.92 10.5012328,2.75 L10.5012328,3.92 C7.36123277,4.6 5.00123277,7.4 5.00123277,10.75 L5.00123277,16.75 L3.71123277,18.04 C3.08123277,18.67 3.52123277,19.75 4.41123277,19.75 L19.5812328,19.75 C20.4712328,19.75 20.9212328,18.67 20.2912328,18.04 L19.0012328,16.75 Z M15.0012328,12.76 L13.0012328,12.76 L13.0012328,14.76 C13.0012328,15.31 12.5512328,15.76 12.0012328,15.76 C11.4512328,15.76 11.0012328,15.31 11.0012328,14.76 L11.0012328,12.76 L9.00123277,12.76 C8.45123277,12.76 8.00123277,12.31 8.00123277,11.76 L8.00123277,11.75 C8.00123277,11.2 8.45123277,10.75 9.00123277,10.75 L11.0012328,10.75 L11.0012328,8.75 C11.0012328,8.2 11.4512328,7.75 12.0012328,7.75 C12.5512328,7.75 13.0012328,8.2 13.0012328,8.75 L13.0012328,10.75 L15.0012328,10.75 C15.5512328,10.75 16.0012328,11.2 16.0012328,11.75 L16.0012328,11.76 C16.0012328,12.31 15.5512328,12.76 15.0012328,12.76 Z"/>
</svg>
