<svg xmlns="http://www.w3.org/2000/svg" width="24" height="24" viewBox="0 0 24 24">
  <path fill-rule="evenodd" d="M18.5,6.5 C15.46,6.5 13,8.96 13,12 C13,13.33 13.47,14.55 14.26,15.5 L9.74,15.5 C10.53,14.55 11,13.33 11,12 C11,8.96 8.54,6.5 5.5,6.5 C2.46,6.5 0,8.96 0,12 C0,15.04 2.46,17.5 5.5,17.5 L18.5,17.5 C21.54,17.5 24,15.04 24,12 C24,8.96 21.54,6.5 18.5,6.5 Z M5.5,15.5 C3.57,15.5 2,13.93 2,12 C2,10.07 3.57,8.5 5.5,8.5 C7.43,8.5 9,10.07 9,12 C9,13.93 7.43,15.5 5.5,15.5 Z M18.5,15.5 C16.57,15.5 15,13.93 15,12 C15,10.07 16.57,8.5 18.5,8.5 C20.43,8.5 22,10.07 22,12 C22,13.93 20.43,15.5 18.5,15.5 Z"/>
</svg>
