<svg xmlns="http://www.w3.org/2000/svg" xmlns:xlink="http://www.w3.org/1999/xlink" width="24" height="24" viewBox="0 0 24 24">
  <defs>
    <path id="add-a-photo-a" d="M21 6h-3.17l-1.24-1.35A1.99 1.99 0 0 0 15.12 4h-6.4c.17.3.28.63.28 1 0 1.1-.9 2-2 2H6v1c0 1.1-.9 2-2 2-.37 0-.7-.11-1-.28V20c0 1.1.9 2 2 2h16c1.1 0 2-.9 2-2V8c0-1.1-.9-2-2-2zm-8 13c-2.76 0-5-2.24-5-5s2.24-5 5-5 5 2.24 5 5-2.24 5-5 5zm0-2a3 3 0 1 0 0-6 3 3 0 0 0 0 6zM3 8V6H1c-.55 0-1-.45-1-1s.45-1 1-1h2V2c0-.55.45-1 1-1s1 .45 1 1v2h2c.55 0 1 .45 1 1s-.45 1-1 1H5v2c0 .55-.45 1-1 1s-1-.45-1-1z"/>
  </defs>
  <g fill="none" fill-rule="evenodd">
    <polygon points="0 0 24 0 24 24 0 24"/>
    <mask id="add-a-photo-b" fill="#fff">
      <use xlink:href="#add-a-photo-a"/>
    </mask>
    <use fill="#000" xlink:href="#add-a-photo-a"/>
    <g fill="#000" mask="url(#add-a-photo-b)">
      <rect width="24" height="24"/>
    </g>
  </g>
</svg>
