<svg xmlns="http://www.w3.org/2000/svg" xmlns:xlink="http://www.w3.org/1999/xlink" width="24" height="24" viewBox="0 0 24 24">
  <defs>
    <path id="add-to-cart-a" d="M13 10c.55 0 1-.45 1-1V7h2c.55 0 1-.45 1-1s-.45-1-1-1h-2V3c0-.55-.45-1-1-1s-1 .45-1 1v2h-2c-.55 0-1 .45-1 1s.45 1 1 1h2v2c0 .55.45 1 1 1zm-5 9c-1.1 0-1.99.9-1.99 2S6.9 23 8 23s2-.9 2-2-.9-2-2-2zm10 0c-1.1 0-1.99.9-1.99 2s.89 2 1.99 2 2-.9 2-2-.9-2-2-2zm-8.9-5h7.45c.75 0 1.41-.41 1.75-1.03l3.38-6.13c.27-.48.09-1.09-.39-1.36a.997.997 0 0 0-1.35.39L16.55 12H9.53L5.54 3.57a.993.993 0 0 0-.9-.57H3c-.55 0-1 .45-1 1s.45 1 1 1h1l3.6 7.59-1.35 2.44C5.52 16.37 6.48 18 8 18h11c.55 0 1-.45 1-1s-.45-1-1-1H8l1.1-2z"/>
  </defs>
  <g fill="none" fill-rule="evenodd">
    <polygon points="0 0 24 0 24 24 0 24"/>
    <mask id="add-to-cart-b" fill="#fff">
      <use xlink:href="#add-to-cart-a"/>
    </mask>
    <use fill="#000" xlink:href="#add-to-cart-a"/>
    <g fill="#000" mask="url(#add-to-cart-b)">
      <rect width="24" height="24"/>
    </g>
  </g>
</svg>
