<svg xmlns:xlink="http://www.w3.org/1999/xlink" width="24" height="24" viewBox="0 0 24 24">
  <defs>
    <path id="add-to-cart-a" d="M13,10 C13.55,10 14,9.55 14,9 L14,7 L16,7 C16.55,7 17,6.55 17,6 C17,5.45 16.55,5 16,5 L14,5 L14,3 C14,2.45 13.55,2 13,2 C12.45,2 12,2.45 12,3 L12,5 L10,5 C9.45,5 9,5.45 9,6 C9,6.55 9.45,7 10,7 L12,7 L12,9 C12,9.55 12.45,10 13,10 Z M8,19 C6.9,19 6.01,19.9 6.01,21 C6.01,22.1 6.9,23 8,23 C9.1,23 10,22.1 10,21 C10,19.9 9.1,19 8,19 Z M18,19 C16.9,19 16.01,19.9 16.01,21 C16.01,22.1 16.9,23 18,23 C19.1,23 20,22.1 20,21 C20,19.9 19.1,19 18,19 Z M9.1,14 L16.55,14 C17.3,14 17.96,13.59 18.3,12.97 L21.68,6.84 C21.95,6.36 21.77,5.75 21.29,5.48 C20.81,5.22 20.2,5.39 19.94,5.87 L16.55,12 L9.53,12 L5.54,3.57 C5.38,3.22 5.02,3 4.64,3 L3,3 C2.45,3 2,3.45 2,4 C2,4.55 2.45,5 3,5 L4,5 L7.6,12.59 L6.25,15.03 C5.52,16.37 6.48,18 8,18 L19,18 C19.55,18 20,17.55 20,17 C20,16.45 19.55,16 19,16 L8,16 L9.1,14 Z"/>
  </defs>
  <g fill="none" fill-rule="evenodd">
    <polygon points="0 0 24 0 24 24 0 24"/>
    <mask id="add-to-cart-b" fill="#fff">
      <use xlink:href="#add-to-cart-a"/>
    </mask>
    <use fill="#000" xlink:href="#add-to-cart-a"/>
    <g fill="#000" mask="url(#add-to-cart-b)">
      <rect width="24" height="24"/>
    </g>
  </g>
</svg>
