<svg xmlns="http://www.w3.org/2000/svg" xmlns:xlink="http://www.w3.org/1999/xlink" width="24" height="24" viewBox="0 0 24 24">
  <defs>
    <path id="cancel---circle-a" d="M12 4c-4.424 0-8 3.576-8 8 0 4.424 3.576 8 8 8 4.424 0 8-3.576 8-8 0-4.424-3.576-8-8-8zm3.44 11.44a.797.797 0 0 1-1.128 0L12 13.128 9.688 15.44a.797.797 0 1 1-1.128-1.128L10.872 12 8.56 9.688A.797.797 0 1 1 9.688 8.56L12 10.872l2.312-2.312a.797.797 0 1 1 1.128 1.128L13.128 12l2.312 2.312a.812.812 0 0 1 0 1.128z"/>
  </defs>
  <g fill="none" fill-rule="evenodd">
    <polygon points="0 0 24 0 24 24 0 24"/>
    <mask id="cancel---circle-b" fill="#fff">
      <use xlink:href="#cancel---circle-a"/>
    </mask>
    <use fill="#000" xlink:href="#cancel---circle-a"/>
    <g fill="#000" mask="url(#cancel---circle-b)">
      <rect width="24" height="24"/>
    </g>
  </g>
</svg>
