<svg xmlns="http://www.w3.org/2000/svg" xmlns:xlink="http://www.w3.org/1999/xlink" width="24" height="24" viewBox="0 0 24 24">
  <defs>
    <path id="cancel,-close-a" d="M18.3 5.71a.996.996 0 0 0-1.41 0L12 10.59 7.11 5.7A.996.996 0 1 0 5.7 7.11L10.59 12 5.7 16.89a.996.996 0 1 0 1.41 1.41L12 13.41l4.89 4.89a.996.996 0 1 0 1.41-1.41L13.41 12l4.89-4.89c.38-.38.38-1.02 0-1.4z"/>
  </defs>
  <g fill="none" fill-rule="evenodd">
    <polygon points="0 0 24 0 24 24 0 24"/>
    <mask id="cancel,-close-b" fill="#fff">
      <use xlink:href="#cancel,-close-a"/>
    </mask>
    <use fill="#000" xlink:href="#cancel,-close-a"/>
    <g fill="#000" mask="url(#cancel,-close-b)">
      <rect width="24" height="24"/>
    </g>
  </g>
</svg>
