<svg xmlns="http://www.w3.org/2000/svg" xmlns:xlink="http://www.w3.org/1999/xlink" width="24" height="24" viewBox="0 0 24 24">
  <defs>
    <path id="chat,-question-answer-1-a" d="M20 6h-1v8c0 .55-.45 1-1 1H6v1c0 1.1.9 2 2 2h10l4 4V8c0-1.1-.9-2-2-2zm-3 5V4c0-1.1-.9-2-2-2H4c-1.1 0-2 .9-2 2v13l4-4h9c1.1 0 2-.9 2-2z"/>
  </defs>
  <g fill="none" fill-rule="evenodd">
    <polygon points="0 0 24 0 24 24 0 24"/>
    <mask id="chat,-question-answer-1-b" fill="#fff">
      <use xlink:href="#chat,-question-answer-1-a"/>
    </mask>
    <use fill="#000" xlink:href="#chat,-question-answer-1-a"/>
    <g fill="#000" mask="url(#chat,-question-answer-1-b)">
      <rect width="24" height="24"/>
    </g>
  </g>
</svg>
