<svg xmlns="http://www.w3.org/2000/svg" xmlns:xlink="http://www.w3.org/1999/xlink" width="24" height="24" viewBox="0 0 24 24">
  <defs>
    <path id="chat,-question-answer-2-a" d="M20 2H4c-1.1 0-1.99.9-1.99 2L2 22l4-4h14c1.1 0 2-.9 2-2V4c0-1.1-.9-2-2-2zM7 9h10c.55 0 1 .45 1 1s-.45 1-1 1H7c-.55 0-1-.45-1-1s.45-1 1-1zm6 5H7c-.55 0-1-.45-1-1s.45-1 1-1h6c.55 0 1 .45 1 1s-.45 1-1 1zm4-6H7c-.55 0-1-.45-1-1s.45-1 1-1h10c.55 0 1 .45 1 1s-.45 1-1 1z"/>
  </defs>
  <g fill="none" fill-rule="evenodd">
    <polygon points="0 0 24 0 24 24 0 24"/>
    <mask id="chat,-question-answer-2-b" fill="#fff">
      <use xlink:href="#chat,-question-answer-2-a"/>
    </mask>
    <use fill="#000" xlink:href="#chat,-question-answer-2-a"/>
    <g fill="#000" mask="url(#chat,-question-answer-2-b)">
      <rect width="24" height="24"/>
    </g>
  </g>
</svg>
