<svg xmlns="http://www.w3.org/2000/svg" xmlns:xlink="http://www.w3.org/1999/xlink" width="24" height="24" viewBox="0 0 24 24">
  <defs>
    <path id="file-copy-a" d="M15 1H4c-1.1 0-2 .9-2 2v13c0 .55.45 1 1 1s1-.45 1-1V4c0-.55.45-1 1-1h10c.55 0 1-.45 1-1s-.45-1-1-1zm.59 4.59l4.83 4.83c.37.37.58.88.58 1.41V21c0 1.1-.9 2-2 2H7.99C6.89 23 6 22.1 6 21l.01-14c0-1.1.89-2 1.99-2h6.17c.53 0 1.04.21 1.42.59zM15 12h4.5L14 6.5V11c0 .55.45 1 1 1z"/>
  </defs>
  <g fill="none" fill-rule="evenodd">
    <polygon points="0 0 24 0 24 24 0 24"/>
    <mask id="file-copy-b" fill="#fff">
      <use xlink:href="#file-copy-a"/>
    </mask>
    <use fill="#000" xlink:href="#file-copy-a"/>
    <g fill="#000" mask="url(#file-copy-b)">
      <rect width="24" height="24"/>
    </g>
  </g>
</svg>
