<svg xmlns="http://www.w3.org/2000/svg" xmlns:xlink="http://www.w3.org/1999/xlink" width="24" height="24" viewBox="0 0 24 24">
  <defs>
    <path id="filter-a" d="M18.687 5H5.311a.311.311 0 0 0-.281.172.3.3 0 0 0 .038.32l4.6 5.55c.4.48.619 1.085.619 1.702v3.535c0 .084.037.169.103.226l2.8 2.42a.318.318 0 0 0 .338.048.301.301 0 0 0 .184-.275v-5.954c0-.617.219-1.222.619-1.703l4.6-5.548a.293.293 0 0 0 .038-.32.315.315 0 0 0-.282-.173z"/>
  </defs>
  <g fill="none" fill-rule="evenodd">
    <polygon points="0 0 24 0 24 24 0 24"/>
    <mask id="filter-b" fill="#fff">
      <use xlink:href="#filter-a"/>
    </mask>
    <use fill="#000" xlink:href="#filter-a"/>
    <g fill="#000" mask="url(#filter-b)">
      <rect width="24" height="24"/>
    </g>
  </g>
</svg>
