<svg xmlns="http://www.w3.org/2000/svg" xmlns:xlink="http://www.w3.org/1999/xlink" width="24" height="24" viewBox="0 0 24 24">
  <defs>
    <path id="home-a" d="M10.198 19.655v-5h4v5c0 .55.45 1 1 1h3c.55 0 1-.45 1-1v-7h1.7c.46 0 .68-.57.33-.87l-8.36-7.53c-.38-.34-.96-.34-1.34 0l-8.36 7.53c-.34.3-.13.87.33.87h1.7v7c0 .55.45 1 1 1h3c.55 0 1-.45 1-1z"/>
  </defs>
  <g fill="none" fill-rule="evenodd">
    <polygon points="0 0 24 0 24 24 0 24"/>
    <mask id="home-b" fill="#fff">
      <use xlink:href="#home-a"/>
    </mask>
    <use fill="#000" xlink:href="#home-a"/>
    <g fill="#000" mask="url(#home-b)">
      <rect width="24" height="24"/>
    </g>
  </g>
</svg>
