<svg xmlns="http://www.w3.org/2000/svg" xmlns:xlink="http://www.w3.org/1999/xlink" width="24" height="24" viewBox="0 0 24 24">
  <defs>
    <path id="info-a" d="M12 2C6.48 2 2 6.48 2 12s4.48 10 10 10 10-4.48 10-10S17.52 2 12 2zm0 15c-.55 0-1-.45-1-1v-4c0-.55.45-1 1-1s1 .45 1 1v4c0 .55-.45 1-1 1zm-.005-8a.998.998 0 1 1 0-1.996.998.998 0 0 1 0 1.996z"/>
  </defs>
  <g fill="none" fill-rule="evenodd">
    <polygon points="0 0 24 0 24 24 0 24"/>
    <mask id="info-b" fill="#fff">
      <use xlink:href="#info-a"/>
    </mask>
    <use fill="#000" xlink:href="#info-a"/>
    <g fill="#000" mask="url(#info-b)">
      <rect width="24" height="24"/>
    </g>
  </g>
</svg>
