<svg xmlns="http://www.w3.org/2000/svg" xmlns:xlink="http://www.w3.org/1999/xlink" width="24" height="24" viewBox="0 0 24 24">
  <defs>
    <path id="notification-a" d="M12,22 C13.1,22 14,21.1 14,20 L10,20 C10,21.1 10.89,22 12,22 Z M18,16 L18,11 C18,7.93 16.36,5.36 13.5,4.68 L13.5,4 C13.5,3.17 12.83,2.5 12,2.5 C11.17,2.5 10.5,3.17 10.5,4 L10.5,4.68 C7.63,5.36 6,7.92 6,11 L6,16 L4.71,17.29 C4.08,17.92 4.52,19 5.41,19 L18.58,19 C19.47,19 19.92,17.92 19.29,17.29 L18,16 Z"/>
  </defs>
  <g fill="none" fill-rule="evenodd">
    <rect width="24" height="24"/>
    <mask id="notification-b" fill="#fff">
      <use xlink:href="#notification-a"/>
    </mask>
    <use fill="#000" xlink:href="#notification-a"/>
    <g fill="#000" mask="url(#notification-b)">
      <rect width="24" height="24"/>
    </g>
  </g>
</svg>
