<svg xmlns="http://www.w3.org/2000/svg" xmlns:xlink="http://www.w3.org/1999/xlink" width="24" height="24" viewBox="0 0 24 24">
  <defs>
    <path id="place-a" d="M12 2C8.13 2 5 5.13 5 9c0 4.17 4.42 9.92 6.24 12.11.4.48 1.13.48 1.53 0C14.58 18.92 19 13.17 19 9c0-3.87-3.13-7-7-7zm0 9.5a2.5 2.5 0 0 1 0-5 2.5 2.5 0 0 1 0 5z"/>
  </defs>
  <g fill="none" fill-rule="evenodd">
    <polygon points="0 0 24 0 24 24 0 24"/>
    <mask id="place-b" fill="#fff">
      <use xlink:href="#place-a"/>
    </mask>
    <use fill="#000" xlink:href="#place-a"/>
    <g fill="#000" mask="url(#place-b)">
      <rect width="24" height="24"/>
    </g>
  </g>
</svg>
