<svg xmlns="http://www.w3.org/2000/svg" xmlns:xlink="http://www.w3.org/1999/xlink" width="24" height="24" viewBox="0 0 24 24">
  <defs>
    <path id="quote-a" d="M7.17 17c.51 0 .98-.29 1.2-.74l1.42-2.84c.14-.28.21-.58.21-.89V8c0-.55-.45-1-1-1H5c-.55 0-1 .45-1 1v4c0 .55.45 1 1 1h2l-1.03 2.06c-.45.89.2 1.94 1.2 1.94zm10 0c.51 0 .98-.29 1.2-.74l1.42-2.84c.14-.28.21-.58.21-.89V8c0-.55-.45-1-1-1h-4c-.55 0-1 .45-1 1v4c0 .55.45 1 1 1h2l-1.03 2.06c-.45.89.2 1.94 1.2 1.94z"/>
  </defs>
  <g fill="none" fill-rule="evenodd">
    <polygon points="0 0 24 0 24 24 0 24"/>
    <mask id="quote-b" fill="#fff">
      <use xlink:href="#quote-a"/>
    </mask>
    <use fill="#000" xlink:href="#quote-a"/>
    <g fill="#000" mask="url(#quote-b)">
      <rect width="24" height="24"/>
    </g>
  </g>
</svg>
